<?xml version="1.0" encoding="UTF-8"?>
<!-- Generated by Pixelmator Pro 3.7.1 -->
<svg width="376" height="108" viewBox="0 0 376 108" xmlns="http://www.w3.org/2000/svg">
    <g id="TCWTENNISCLUB100JAHRELOGO2cDRUCKAUFWEISS">
        <path id="Pfad" fill="#ed1c24" stroke="none" d="M 209.618713 52.424881 C 208.332504 49.407139 207.674911 46.094002 207.565063 42.83802 C 207.565063 31.926353 213.548584 20.897423 227.862473 20.897423 C 242.412338 20.897423 248.395859 31.926353 248.395859 42.83802 C 248.505707 46.094002 248.010666 49.407139 246.832809 52.424881 L 279.250183 52.424881 C 279.797882 49.416042 280.073975 46.219433 280.073975 42.83802 C 280.427277 15.148422 262.592468 -0.220825 228.214264 -0.220825 C 193.954803 -0.220825 176.237259 15.148422 175.885468 42.83802 C 175.885468 46.219433 176.16008 49.416042 176.704117 52.424881 L 209.618713 52.424881 Z"/>
        <path id="path1" fill="#ed1c24" stroke="none" d="M 96.972206 52.424881 C 95.685257 49.407139 95.027672 46.094002 94.918571 42.83802 C 94.918571 31.926353 100.9021 20.897423 115.215965 20.897423 C 129.764343 20.897423 135.747864 31.926353 135.747864 42.83802 C 135.857727 46.094002 135.362686 49.407139 134.185562 52.424881 L 166.603653 52.424881 C 167.151398 49.416042 167.427475 46.219433 167.427475 42.83802 C 167.779282 15.148422 149.945953 -0.220825 115.567757 -0.220825 C 81.308304 -0.220825 63.590763 15.148422 63.238972 42.83802 C 63.238972 46.219433 63.512836 49.416042 64.057602 52.424881 L 96.972206 52.424881 Z"/>
        <path id="path2" fill="#ed1c24" stroke="none" d="M 4.928136 16.557098 L 0 16.557098 L 0 36.971756 L 24.873728 36.971756 L 24.873728 105.029015 L 55.613716 105.029015 L 55.613716 1.889954 L 30.857256 1.889954 C 26.751463 13.272171 19.476528 16.205307 4.928136 16.557098 Z"/>
        <path id="path3" fill="#231f20" stroke="none" d="M 70.012192 73.019882 L 68.521866 73.019882 L 68.521866 61.527824 L 64.462845 61.527824 L 64.462845 60.204502 L 74.07048 60.204502 L 74.07048 61.527824 L 70.012192 61.527824 L 70.012192 73.019882 Z"/>
        <path id="path4" fill="#231f20" stroke="none" d="M 83.305534 73.019882 L 76.161224 73.019882 L 76.161224 60.204502 L 83.305534 60.204502 L 83.305534 61.527824 L 77.651535 61.527824 L 77.651535 65.656624 L 82.963387 65.656624 L 82.963387 66.971786 L 77.651535 66.971786 L 77.651535 71.687653 L 83.305534 71.687653 L 83.305534 73.019882 Z"/>
        <path id="path5" fill="#231f20" stroke="none" d="M 96.316864 73.019882 L 94.617249 73.019882 L 87.613197 62.26482 L 87.542694 62.26482 C 87.636208 63.526543 87.682968 64.683617 87.682968 65.736038 L 87.682968 73.019882 L 86.306953 73.019882 L 86.306953 60.204502 L 87.989494 60.204502 L 94.976463 70.915771 L 95.046227 70.915771 C 95.034355 70.758438 95.008369 70.251518 94.96756 69.395035 C 94.926735 68.539291 94.911888 67.926987 94.923767 67.558853 L 94.923767 60.204502 L 96.316864 60.204502 L 96.316864 73.019882 Z"/>
        <path id="path6" fill="#231f20" stroke="none" d="M 110.031776 73.019882 L 108.331421 73.019882 L 101.32737 62.26482 L 101.256859 62.26482 C 101.35038 63.526543 101.397141 64.683617 101.397141 65.736038 L 101.397141 73.019882 L 100.021126 73.019882 L 100.021126 60.204502 L 101.703659 60.204502 L 108.690628 70.915771 L 108.760391 70.915771 C 108.74852 70.758438 108.722549 70.251518 108.681725 69.395035 C 108.6409 68.539291 108.62606 67.926987 108.637932 67.558853 L 108.637932 60.204502 L 110.031776 60.204502 L 110.031776 73.019882 Z"/>
        <path id="path7" fill="#231f20" stroke="none" d="M 113.73455 60.204502 L 115.224861 60.204502 L 115.224861 73.019882 L 113.73455 73.019882 Z"/>
        <path id="path8" fill="#231f20" stroke="none" d="M 126.151375 69.610268 C 126.151375 70.738388 125.742439 71.617889 124.92453 72.248749 C 124.105904 72.879608 122.995583 73.195786 121.59285 73.195786 C 120.073586 73.195786 118.904633 72.999847 118.086746 72.608711 L 118.086746 71.170349 C 118.612961 71.393005 119.185928 71.568161 119.804924 71.696564 C 120.424644 71.824966 121.037689 71.889526 121.646286 71.889526 C 122.639336 71.889526 123.387466 71.701019 123.889931 71.323982 C 124.392387 70.946945 124.643982 70.422226 124.643982 69.750534 C 124.643982 69.305969 124.554924 68.942291 124.376053 68.658783 C 124.197929 68.375259 123.900314 68.114014 123.482475 67.875023 C 123.064613 67.634552 122.428551 67.362915 121.575783 67.059357 C 120.38308 66.632599 119.531784 66.127174 119.020416 65.543068 C 118.509056 64.958221 118.253738 64.195999 118.253738 63.254898 C 118.253738 62.267044 118.624092 61.481064 119.36702 60.896969 C 120.108475 60.312862 121.090385 60.020435 122.312027 60.020435 C 123.585625 60.020435 124.757538 60.25423 125.827042 60.721066 L 125.362419 62.019154 C 124.304802 61.574581 123.276138 61.352669 122.277145 61.352669 C 121.488197 61.352669 120.871445 61.522629 120.427612 61.861073 C 119.983032 62.200249 119.761131 62.670799 119.761131 63.271973 C 119.761131 63.716541 119.842766 64.080215 120.006783 64.363731 C 120.170067 64.647247 120.446167 64.907761 120.835075 65.143776 C 121.223236 65.380524 121.818474 65.642525 122.618561 65.929016 C 123.962654 66.407715 124.887428 66.922058 125.392853 67.471275 C 125.899033 68.0205 126.151375 68.733742 126.151375 69.610268 Z"/>
        <path id="path9" fill="#231f20" stroke="none" d="M 127.926689 67.541046 L 132.230637 67.541046 L 132.230637 68.873276 L 127.926689 68.873276 Z"/>
        <path id="path10" fill="#231f20" stroke="none" d="M 140.395462 61.352669 C 138.987534 61.352669 137.875732 61.821732 137.060059 62.759861 C 136.245148 63.697243 135.837677 64.981979 135.837677 66.611824 C 135.837677 68.289169 136.230301 69.58503 137.016281 70.500153 C 137.802261 71.414536 138.922958 71.871719 140.378403 71.871719 C 141.271988 71.871719 142.291763 71.711411 143.436966 71.38929 L 143.436966 72.696289 C 142.549301 73.028793 141.453079 73.195786 140.150543 73.195786 C 138.262405 73.195786 136.806244 72.62281 135.780548 71.476868 C 134.754837 70.33168 134.241989 68.704796 134.241989 66.594749 C 134.241989 65.274399 134.48912 64.117325 134.982681 63.123535 C 135.476242 62.129742 136.189484 61.364548 137.121674 60.827202 C 138.053864 60.289112 139.150818 60.020435 140.413284 60.020435 C 141.757385 60.020435 142.931519 60.266102 143.937195 60.756691 L 143.306335 62.036224 C 142.336304 61.580521 141.365509 61.352669 140.395462 61.352669 Z"/>
        <path id="path11" fill="#231f20" stroke="none" d="M 146.413147 73.019882 L 146.413147 60.204502 L 147.903458 60.204502 L 147.903458 71.669846 L 153.557449 71.669846 L 153.557449 73.019882 L 146.413147 73.019882 Z"/>
        <path id="path12" fill="#231f20" stroke="none" d="M 165.570526 60.204502 L 165.570526 68.496986 C 165.570526 69.957611 165.129669 71.105774 164.247192 71.941483 C 163.364746 72.777931 162.152008 73.195786 160.608994 73.195786 C 159.066727 73.195786 157.872543 72.774216 157.027939 71.932571 C 156.184052 71.091675 155.761749 69.934601 155.761749 68.462097 L 155.761749 60.204502 L 157.252075 60.204502 L 157.252075 68.56675 C 157.252075 69.636978 157.543747 70.457108 158.128601 71.030823 C 158.712692 71.603043 159.572159 71.889526 160.705475 71.889526 C 161.786835 71.889526 162.619583 71.601563 163.20369 71.026367 C 163.788528 70.449677 164.080215 69.625107 164.080215 68.549683 L 164.080215 60.204502 L 165.570526 60.204502 Z"/>
        <path id="path13" fill="#231f20" stroke="none" d="M 170.615189 66.953972 L 170.615189 71.748512 L 173.288544 71.748512 C 174.323166 71.748512 175.101715 71.548866 175.624954 71.148819 C 176.147476 70.748779 176.409454 70.121628 176.409454 69.26886 C 176.409454 68.473228 176.141525 67.88913 175.607147 67.515068 C 175.072037 67.141006 174.258591 66.953972 173.166077 66.953972 L 170.615189 66.953972 Z M 170.615189 65.691513 L 173.069595 65.691513 C 174.121277 65.691513 174.878311 65.526741 175.339966 65.196472 C 175.800858 64.866196 176.03241 64.309555 176.03241 63.526543 C 176.03241 62.808105 175.774872 62.289314 175.260544 61.970917 C 174.746948 61.652515 173.928314 61.492943 172.806122 61.492943 L 170.615189 61.492943 L 170.615189 65.691513 Z M 169.124878 60.204502 L 172.74527 60.204502 C 174.445633 60.204502 175.67543 60.458328 176.43544 60.967472 C 177.194702 61.475876 177.575439 62.278923 177.575439 63.378105 C 177.575439 64.13736 177.363174 64.763779 176.939362 65.257324 C 176.515579 65.751617 175.897339 66.07151 175.085388 66.217728 L 175.085388 66.305298 C 177.031403 66.63855 178.004425 67.661285 178.004425 69.373505 C 178.004425 70.518707 177.617737 71.413048 176.842896 72.055779 C 176.068787 72.699249 174.985931 73.019882 173.595078 73.019882 L 169.124878 73.019882 L 169.124878 60.204502 Z"/>
        <path id="path14" fill="#231f20" stroke="none" d="M 194.768982 73.019882 L 193.347702 73.019882 L 193.347702 63.885761 C 193.347702 63.126503 193.372177 62.407318 193.418213 61.729702 C 193.296494 61.852161 193.15918 61.981304 193.007019 62.114899 C 192.854904 62.249977 192.159439 62.819977 190.919998 63.824905 L 190.148865 62.825176 L 193.541397 60.204502 L 194.768982 60.204502 L 194.768982 73.019882 Z"/>
        <path id="path15" fill="#231f20" stroke="none" d="M 202.371231 61.265091 C 201.535522 61.265091 200.889816 61.53376 200.434143 62.071106 C 199.978409 62.609196 199.750549 63.357323 199.750549 64.315491 C 199.750549 65.157135 199.960602 65.819168 200.382172 66.30159 C 200.802231 66.783272 201.442001 67.023743 202.301468 67.023743 C 202.83287 67.023743 203.322739 66.916122 203.769501 66.700134 C 204.217056 66.484169 204.568848 66.188782 204.825653 65.813965 C 205.083176 65.440643 205.211578 65.048767 205.211578 64.639832 C 205.211578 64.026031 205.092117 63.459743 204.851624 62.939472 C 204.61264 62.419197 204.277924 62.01025 203.848175 61.711891 C 203.419189 61.414272 202.926361 61.265091 202.371231 61.265091 Z M 206.684082 65.674438 C 206.684082 70.68866 204.744003 73.195786 200.863831 73.195786 C 200.185471 73.195786 199.648148 73.137146 199.251053 73.019882 L 199.251053 71.767067 C 199.718628 71.918472 200.250061 71.994171 200.846024 71.994171 C 202.248764 71.994171 203.307861 71.559998 204.023346 70.693115 C 204.739563 69.8255 205.129944 68.494019 205.193787 66.700134 L 205.089111 66.700134 C 204.767029 67.184799 204.341003 67.554398 203.808868 67.808975 C 203.277451 68.063545 202.678482 68.189713 202.011993 68.189713 C 200.877945 68.189713 199.978409 67.851273 199.31192 67.172913 C 198.646164 66.4953 198.312943 65.549011 198.312943 64.333298 C 198.312943 63.000332 198.685516 61.94865 199.430679 61.177517 C 200.175827 60.40638 201.156265 60.020435 202.371231 60.020435 C 203.242569 60.020435 204.003311 60.243839 204.654938 60.690639 C 205.30658 61.138176 205.808319 61.789818 206.157867 62.645565 C 206.508942 63.502048 206.684082 64.510681 206.684082 65.674438 Z"/>
        <path id="path16" fill="#231f20" stroke="none" d="M 216.949326 73.019882 L 208.525467 73.019882 L 208.525467 71.767067 L 211.900925 68.374519 C 212.928864 67.333969 213.606491 66.591782 213.934525 66.147957 C 214.261093 65.703384 214.506775 65.271431 214.670792 64.849869 C 214.834061 64.429779 214.91571 63.977047 214.91571 63.491657 C 214.91571 62.808105 214.708633 62.266304 214.293015 61.865517 C 213.878876 61.465485 213.302948 61.265091 212.566681 61.265091 C 212.034515 61.265091 211.531326 61.352669 211.054855 61.527824 C 210.577621 61.703728 210.047684 62.022129 209.463593 62.483021 L 208.691711 61.492943 C 209.872543 60.511024 211.158752 60.020435 212.549606 60.020435 C 213.753433 60.020435 214.696762 60.328449 215.380325 60.945206 C 216.064621 61.56197 216.406021 62.390251 216.406021 63.430054 C 216.406021 64.242752 216.178177 65.045807 215.722488 65.840683 C 215.266754 66.635574 214.413254 67.640503 213.162674 68.856201 L 210.357178 71.600075 L 210.357178 71.669846 L 216.949326 71.669846 L 216.949326 73.019882 Z"/>
        <path id="path17" fill="#231f20" stroke="none" d="M 223.243088 71.960037 C 224.07283 71.960037 224.717056 71.698044 225.175735 71.174805 C 225.634399 70.652298 225.864471 69.896011 225.864471 68.908897 C 225.864471 68.062057 225.650726 67.395569 225.224701 66.910187 C 224.797958 66.425537 224.160416 66.182098 223.313599 66.182098 C 222.787354 66.182098 222.304947 66.291199 221.86705 66.507172 C 221.428436 66.723152 221.07959 67.021515 220.819092 67.40152 C 220.559326 67.781509 220.429443 68.175613 220.429443 68.584564 C 220.429443 69.186478 220.545959 69.747574 220.779755 70.267105 C 221.013535 70.787384 221.345306 71.200035 221.775024 71.503586 C 222.20401 71.807144 222.693832 71.960037 223.243088 71.960037 Z M 218.939117 67.541046 C 218.939117 65.022797 219.428223 63.139858 220.407166 61.892242 C 221.386124 60.643879 222.834152 60.020435 224.75119 60.020435 C 225.411743 60.020435 225.931274 60.076107 226.311295 60.186695 L 226.311295 61.440247 C 225.860748 61.294037 225.347183 61.221302 224.76828 61.221302 C 223.395233 61.221302 222.346497 61.649548 221.621414 62.505291 C 220.897018 63.361778 220.499924 64.706619 220.429443 66.542053 L 220.534088 66.542053 C 221.177551 65.537132 222.194382 65.034668 223.58522 65.034668 C 224.736359 65.034668 225.643295 65.382019 226.306824 66.077446 C 226.969604 66.772881 227.302109 67.716942 227.302109 68.908897 C 227.302109 70.241127 226.937698 71.288361 226.210358 72.052071 C 225.482254 72.814301 224.499588 73.195786 223.260895 73.195786 C 221.933853 73.195786 220.882187 72.697769 220.105103 71.701019 C 219.327286 70.704254 218.939117 69.317841 218.939117 67.541046 Z"/>
        <path id="path18" fill="#231f20" stroke="none" d="M 229.436661 67.541046 L 236.975052 67.541046 L 236.975052 68.873276 L 229.436661 68.873276 Z"/>
        <path id="path19" fill="#231f20" stroke="none" d="M 246.993866 73.019882 L 238.56929 73.019882 L 238.56929 71.767067 L 241.944763 68.374519 C 242.973434 67.333969 243.651031 66.591782 243.978348 66.147957 C 244.305649 65.703384 244.551315 65.271431 244.714615 64.849869 C 244.877884 64.429779 244.960281 63.977047 244.960281 63.491657 C 244.960281 62.808105 244.752441 62.266304 244.33757 61.865517 C 243.922699 61.465485 243.347488 61.265091 242.610504 61.265091 C 242.079086 61.265091 241.575134 61.352669 241.098663 61.527824 C 240.622162 61.703728 240.092255 62.022129 239.508148 62.483021 L 238.736282 61.492943 C 239.917099 60.511024 241.202576 60.020435 242.593445 60.020435 C 243.797272 60.020435 244.741333 60.328449 245.424881 60.945206 C 246.108429 61.56197 246.44986 62.390251 246.44986 63.430054 C 246.44986 64.242752 246.222748 65.045807 245.766281 65.840683 C 245.310593 66.635574 244.457794 67.640503 243.206467 68.856201 L 240.401749 71.600075 L 240.401749 71.669846 L 246.993866 71.669846 L 246.993866 73.019882 Z"/>
        <path id="path20" fill="#231f20" stroke="none" d="M 250.324799 66.594749 C 250.324799 68.459129 250.544525 69.816597 250.983139 70.666397 C 251.421036 71.516953 252.119431 71.941483 253.077606 71.941483 C 254.047638 71.941483 254.750488 71.511009 255.186172 70.64859 C 255.621094 69.786911 255.839294 68.436127 255.839294 66.594749 C 255.839294 64.75412 255.621094 63.405567 255.186172 62.54908 C 254.750488 61.693333 254.047638 61.265091 253.077606 61.265091 C 252.119431 61.265091 251.421036 61.687397 250.983139 62.531265 C 250.544525 63.376621 250.324799 64.73037 250.324799 66.594749 Z M 257.32962 66.594749 C 257.32962 68.809448 256.980042 70.463783 256.281616 71.55629 C 255.583237 72.648788 254.515961 73.195786 253.077606 73.195786 C 251.698608 73.195786 250.649918 72.636169 249.930695 71.516953 C 249.211517 70.397728 248.853043 68.756744 248.853043 66.594749 C 248.853043 64.362244 249.199661 62.705681 249.895813 61.62431 C 250.5905 60.543686 251.65184 60.002628 253.077606 60.002628 C 254.468445 60.002628 255.524597 60.566689 256.246735 61.694817 C 256.96817 62.822945 257.32962 64.455765 257.32962 66.594749 Z"/>
        <path id="path21" fill="#231f20" stroke="none" d="M 267.52356 73.019882 L 259.098999 73.019882 L 259.098999 71.767067 L 262.474426 68.374519 C 263.503143 67.333969 264.180725 66.591782 264.508057 66.147957 C 264.835358 65.703384 265.081024 65.271431 265.245026 64.849869 C 265.407593 64.429779 265.48996 63.977047 265.48996 63.491657 C 265.48996 62.808105 265.282166 62.266304 264.867249 61.865517 C 264.452393 61.465485 263.877197 61.265091 263.14093 61.265091 C 262.608795 61.265091 262.104828 61.352669 261.629089 61.527824 C 261.151855 61.703728 260.621979 62.022129 260.037842 62.483021 L 259.265961 61.492943 C 260.446777 60.511024 261.732239 60.020435 263.123138 60.020435 C 264.326935 60.020435 265.271027 60.328449 265.95459 60.945206 C 266.638885 61.56197 266.979523 62.390251 266.979523 63.430054 C 266.979523 64.242752 266.752411 65.045807 266.296722 65.840683 C 265.840271 66.635574 264.987518 67.640503 263.736176 68.856201 L 260.931458 71.600075 L 260.931458 71.669846 L 267.52356 71.669846 L 267.52356 73.019882 Z"/>
        <path id="path22" fill="#231f20" stroke="none" d="M 273.816589 71.960037 C 274.647095 71.960037 275.291321 71.698044 275.75 71.174805 C 276.208649 70.652298 276.438751 69.896011 276.438751 68.908897 C 276.438751 68.062057 276.224976 67.395569 275.798218 66.910187 C 275.37146 66.425537 274.73468 66.182098 273.887115 66.182098 C 273.36087 66.182098 272.879181 66.291199 272.441315 66.507172 C 272.002686 66.723152 271.653107 67.021515 271.393341 67.40152 C 271.132843 67.781509 271.00296 68.175613 271.00296 68.584564 C 271.00296 69.186478 271.120239 69.747574 271.354004 70.267105 C 271.587036 70.787384 271.919556 71.200035 272.349304 71.503586 C 272.77829 71.807144 273.267395 71.960037 273.816589 71.960037 Z M 269.513367 67.541046 C 269.513367 65.022797 270.002472 63.139858 270.981415 61.892242 C 271.959625 60.643879 273.408386 60.020435 275.32547 60.020435 C 275.98526 60.020435 276.504791 60.076107 276.884796 60.186695 L 276.884796 61.440247 C 276.435028 61.294037 275.920685 61.221302 275.342529 61.221302 C 273.968719 61.221302 272.920013 61.649548 272.195648 62.505291 C 271.47052 63.361778 271.073425 64.706619 271.00296 66.542053 L 271.108368 66.542053 C 271.751068 65.537132 272.767883 65.034668 274.158722 65.034668 C 275.309875 65.034668 276.21756 65.382019 276.880341 66.077446 C 277.543854 66.772881 277.87561 67.716942 277.87561 68.908897 C 277.87561 70.241127 277.511963 71.288361 276.783844 72.052071 C 276.056519 72.814301 275.073853 73.195786 273.835144 73.195786 C 272.508118 73.195786 271.456421 72.697769 270.679382 71.701019 C 269.90155 70.704254 269.513367 69.317841 269.513367 67.541046 Z"/>
        <path id="path23" fill="#231f20" stroke="none" d="M 97.025642 80.922714 L 90.87883 105.083199 L 85.045227 105.083199 L 81.772919 92.391762 C 81.706863 92.149063 81.618546 91.780197 81.508698 91.284416 C 81.398109 90.788635 81.282326 90.246841 81.161354 89.656799 C 81.040375 89.067497 80.932755 88.511597 80.839241 87.98761 C 80.745728 87.465111 80.68264 87.048744 80.649239 86.73999 C 80.615845 87.048744 80.552757 87.462143 80.459236 87.979446 C 80.364983 88.497498 80.261078 89.048943 80.145294 89.632301 C 80.029518 90.216408 79.916702 90.761177 79.806854 91.268089 C 79.696274 91.775002 79.607956 92.160194 79.541893 92.424416 L 76.286659 105.083199 L 70.469376 105.083199 L 64.305496 80.922714 L 69.345695 80.922714 L 72.435432 94.110672 C 72.523758 94.507004 72.626175 94.981262 72.741959 95.5327 C 72.857002 96.082664 72.972778 96.6586 73.088554 97.258293 C 73.204346 97.859474 73.308998 98.43763 73.402512 98.993538 C 73.496025 99.550179 73.565048 100.03186 73.609573 100.439323 C 73.664497 100.021469 73.735748 99.533104 73.824074 98.976463 C 73.912392 98.420563 74.008133 97.853531 74.113525 97.27462 C 74.21743 96.696465 74.32579 96.159851 74.435631 95.66407 C 74.545479 95.168289 74.644928 94.766029 74.733253 94.458015 L 78.252708 80.922714 L 83.094757 80.922714 L 86.61496 94.458015 C 86.691406 94.754898 86.7827 95.15493 86.887344 95.655907 C 86.991989 96.156883 87.099609 96.700165 87.21019 97.282791 C 87.320038 97.86689 87.421722 98.43763 87.515236 98.993538 C 87.608749 99.550179 87.677773 100.03186 87.722305 100.439323 C 87.799492 99.888611 87.906364 99.219902 88.044411 98.431702 C 88.181717 97.644234 88.330902 96.858994 88.490463 96.076729 C 88.65004 95.295944 88.791054 94.639114 88.912025 94.110672 L 91.985443 80.922714 L 97.025642 80.922714 Z"/>
        <path id="path24" fill="#231f20" stroke="none" d="M 111.171021 95.036186 L 109.419456 89.417809 C 109.309624 89.043007 109.163406 88.560577 108.981575 87.971283 C 108.800468 87.381989 108.617905 86.781555 108.436806 86.169991 C 108.254959 85.558426 108.108757 85.027756 107.998169 84.575027 C 107.888329 85.027756 107.736916 85.585892 107.543945 86.252373 C 107.350983 86.918861 107.166924 87.549721 106.991028 88.144958 C 106.814377 88.739456 106.687462 89.163986 106.610283 89.417809 L 104.875038 95.036186 L 111.171021 95.036186 Z M 114.145729 105.083199 L 112.394165 99.332718 L 103.586594 99.332718 L 101.834282 105.083199 L 96.315369 105.083199 L 104.842377 80.824005 L 111.104973 80.824005 L 119.665382 105.083199 L 114.145729 105.083199 Z"/>
        <path id="path25" fill="#231f20" stroke="none" d="M 122.841202 80.922714 L 127.963806 80.922714 L 127.963806 105.083199 L 122.841202 105.083199 Z"/>
        <path id="path26" fill="#231f20" stroke="none" d="M 138.863602 94.555984 L 138.863602 100.852715 L 142.201965 100.852715 C 143.744217 100.852715 144.818176 100.555099 145.424545 99.960609 C 146.030167 99.365372 146.332977 98.566772 146.332977 97.564072 C 146.332977 96.968842 146.200867 96.445602 145.936661 95.994354 C 145.67244 95.543839 145.228607 95.190552 144.605911 94.937469 C 143.983948 94.682907 143.126724 94.555984 142.036453 94.555984 L 138.863602 94.555984 Z M 138.863602 90.49176 L 141.838287 90.49176 C 143.325638 90.49176 144.355789 90.257233 144.928757 89.789642 C 145.500992 89.321327 145.787476 88.629608 145.787476 87.715225 C 145.787476 86.789719 145.449051 86.126205 144.771408 85.723938 C 144.093796 85.321671 143.022079 85.121277 141.557007 85.121277 L 138.863602 85.121277 L 138.863602 90.49176 Z M 133.740997 80.922714 L 141.259384 80.922714 C 144.476761 80.922714 146.911896 81.37545 148.563995 82.277954 C 150.216858 83.181931 151.042908 84.76799 151.042908 87.037605 C 151.042908 87.951981 150.896698 88.778046 150.605026 89.515778 C 150.312607 90.255005 149.891785 90.860626 149.34108 91.334145 C 148.789627 91.807655 148.11795 92.116409 147.324539 92.259651 L 147.324539 92.424416 C 148.128342 92.589928 148.855682 92.874191 149.505844 93.275711 C 150.156006 93.677979 150.67627 94.262077 151.067398 95.027275 C 151.458542 95.793213 151.65448 96.81002 151.65448 98.076935 C 151.65448 99.542015 151.29599 100.797798 150.579788 101.844276 C 149.863586 102.89077 148.842316 103.692337 147.514542 104.248978 C 146.186768 104.804878 144.608871 105.083199 142.780121 105.083199 L 133.740997 105.083199 L 133.740997 80.922714 Z"/>
        <path id="path27" fill="#231f20" stroke="none" d="M 156.344376 105.083199 L 156.344376 80.922714 L 161.466949 80.922714 L 161.466949 100.852715 L 171.26683 100.852715 L 171.26683 105.083199 L 156.344376 105.083199 Z"/>
        <path id="path28" fill="#231f20" stroke="none" d="M 175.057938 80.922714 L 180.180511 80.922714 L 180.180511 105.083199 L 175.057938 105.083199 Z"/>
        <path id="path29" fill="#231f20" stroke="none" d="M 207.390656 105.083199 L 200.879425 105.083199 L 190.369293 86.806046 L 190.220856 86.806046 C 190.263901 87.566048 190.302505 88.332733 190.336639 89.103119 C 190.369293 89.875 190.402679 90.643166 190.436096 91.408356 C 190.46875 92.174301 190.502136 92.943207 190.53479 93.71434 L 190.53479 105.083199 L 185.956985 105.083199 L 185.956985 80.922714 L 192.41922 80.922714 L 202.912308 99.018021 L 203.028091 99.018021 C 203.005814 98.269165 202.978333 97.525482 202.945679 96.787003 C 202.912308 96.049271 202.881851 95.311539 202.854401 94.573051 C 202.82695 93.83532 202.802429 93.09758 202.780167 92.358368 L 202.780167 80.922714 L 207.390656 80.922714 L 207.390656 105.083199 Z"/>
        <path id="path30" fill="#231f20" stroke="none" d="M 222.339081 91.515976 L 231.923706 91.515976 L 231.923706 104.042648 C 230.656784 104.460503 229.340912 104.793739 227.974533 105.041641 C 226.608154 105.289528 225.059952 105.413467 223.330643 105.413467 C 220.92894 105.413467 218.890869 104.940704 217.216507 103.99218 C 215.54213 103.045151 214.269257 101.646118 213.398682 99.795105 C 212.528091 97.944084 212.09317 95.670006 212.09317 92.970673 C 212.09317 90.436836 212.581512 88.244415 213.55603 86.392647 C 214.53125 84.542366 215.957001 83.110687 217.836227 82.096115 C 219.714722 81.083023 222.00882 80.576111 224.718552 80.576111 C 225.996582 80.576111 227.258316 80.714157 228.503693 80.989517 C 229.74762 81.264862 230.877228 81.623337 231.891052 82.063461 L 230.188492 86.161819 C 229.450745 85.787018 228.607635 85.473076 227.660583 85.219246 C 226.712814 84.966904 225.721252 84.839989 224.685898 84.839989 C 223.198547 84.839989 221.906403 85.181396 220.810165 85.864212 C 219.714722 86.547028 218.865646 87.50296 218.265976 88.731285 C 217.66478 89.95961 217.364929 91.405396 217.364929 93.068642 C 217.364929 94.64505 217.58017 96.0411 218.009918 97.258293 C 218.438873 98.476227 219.116501 99.429199 220.042007 100.117958 C 220.967529 100.805969 222.173569 101.150337 223.660934 101.150337 C 224.38829 101.150337 225.002808 101.113968 225.503784 101.042725 C 226.004745 100.971466 226.476044 100.896507 226.916901 100.820068 L 226.916901 95.780594 L 222.339081 95.780594 L 222.339081 91.515976 Z"/>
        <path id="path31" fill="#231f20" stroke="none" d="M 251.35199 105.083199 L 237.437439 105.083199 L 237.437439 80.922714 L 251.35199 80.922714 L 251.35199 85.121277 L 242.560013 85.121277 L 242.560013 90.424957 L 250.740433 90.424957 L 250.740433 94.62278 L 242.560013 94.62278 L 242.560013 100.852715 L 251.35199 100.852715 L 251.35199 105.083199 Z"/>
        <path id="path32" fill="#231f20" stroke="none" d="M 277.758362 105.083199 L 271.247131 105.083199 L 260.737 86.806046 L 260.588562 86.806046 C 260.632355 87.566048 260.670929 88.332733 260.703583 89.103119 C 260.737 89.875 260.769623 90.643166 260.80304 91.408356 C 260.836426 92.174301 260.86908 92.943207 260.902496 93.71434 L 260.902496 105.083199 L 256.324677 105.083199 L 256.324677 80.922714 L 262.786163 80.922714 L 273.279999 99.018021 L 273.395782 99.018021 C 273.373505 98.269165 273.346039 97.525482 273.313385 96.787003 C 273.279999 96.049271 273.249542 95.311539 273.222076 94.573051 C 273.194641 93.83532 273.169373 93.09758 273.147888 92.358368 L 273.147888 80.922714 L 277.758362 80.922714 L 277.758362 105.083199 Z"/>
        <path id="path33" fill="#bbbdc0" stroke="none" d="M 333.559845 108 C 309.944885 108 290.799347 88.855972 290.799347 65.240257 L 290.799347 1.857307 L 376.318878 1.857307 L 376.318878 65.240257 C 376.318878 88.855972 357.174805 108 333.559845 108 Z"/>
        <path id="path34" fill="#231f20" stroke="none" d="M 333.559845 104.908043 C 311.645966 104.908043 293.88092 87.144485 293.88092 65.229126 L 293.88092 30.522881 L 373.237305 30.522881 L 373.237305 65.229126 C 373.237305 87.144485 355.473724 104.908043 333.559845 104.908043 Z"/>
        <path id="path35" fill="#ed1c24" stroke="none" d="M 356.503876 89.515038 C 356.009552 89.382927 355.509338 89.28199 355.004669 89.194412 C 354.195648 89.056366 348.90683 88.77285 347.388306 87.318161 C 347.320038 87.251358 347.968719 82.98674 351.286285 80.996185 C 353.269409 79.805717 357.214905 80.181267 357.780457 80.237671 C 357.868011 80.248062 357.957092 80.248062 358.046143 80.237671 C 358.298492 80.203529 358.592407 80.053612 357.542938 79.424232 C 356.07489 78.536575 352.311981 78.486107 350.90033 79.007126 C 349.545105 79.520714 348.299713 80.285172 347.229492 81.260406 C 346.610474 81.842285 343.159332 85.260811 342.262756 86.37558 C 341.427063 87.416122 337.416229 87.252846 336.121887 86.939644 C 335.68103 86.832764 335.33963 86.144012 335.369293 85.912445 C 335.455383 85.237061 335.485077 84.695259 335.868042 83.819473 C 336.236176 82.992676 338.514679 79.59642 340.04361 78.250092 C 341.066315 77.352043 343.319611 77.467819 343.764954 77.444077 C 343.987579 77.435165 344.20282 77.350555 344.370575 77.203598 C 344.548676 77.041809 344.612518 76.833992 344.038086 76.69001 C 342.813446 76.384224 339.706665 75.924072 338.238586 76.62915 C 336.770538 77.334229 334.643433 79.473221 332.716705 82.68689 C 330.788513 85.900574 330.574738 86.175186 330.116089 86.541824 C 329.655914 86.90995 326.503113 88.599174 325.063263 86.782303 C 324.659515 86.273155 325.388336 82.830879 325.906372 81.66713 C 326.212189 80.985794 328.55304 77.473763 329.78653 77.148682 C 331.168518 76.786491 331.671692 76.566803 331.545532 76.379776 C 331.135864 75.757813 329.716766 76.030945 328.98053 76.146729 C 327.567413 76.369385 325.260681 77.202118 323.305756 80.294083 C 322.297852 81.886818 321.625427 85.257843 321.485901 85.907997 C 321.35379 86.558151 320.944122 87.11628 320.365204 87.436905 C 320.285034 87.481438 320.201904 87.520035 320.115814 87.552689 C 319.107941 87.919327 317.14856 87.797607 316.994171 87.552689 C 316.841309 87.30777 317.40683 84.334557 314.562775 84.242523 C 312.493561 84.177216 312.120941 86.578934 312.074951 87.62394 C 312.057129 88.00988 311.812225 88.34832 311.450012 88.486359 C 310.597992 88.809952 308.692047 89.566994 308.67572 91.024651 C 308.651978 93.116135 310.455475 93.502075 311.671204 93.594109 C 312.082367 93.625282 312.495026 93.613403 312.903229 93.561447 C 313.378235 93.500587 313.669189 94.4506 313.787933 94.912231 C 313.848785 95.169037 313.954163 95.412468 314.09964 95.630676 C 314.611755 96.355049 317.967926 96.430008 317.426147 93.019653 C 317.256897 91.958328 317.399445 91.517464 318.472626 91.507072 L 353.600403 90.862854 C 354.131836 90.858398 354.664734 90.86731 355.197632 90.89254 C 356.28717 90.944489 357.375214 91.040977 358.458801 91.168633 C 359.122314 91.245827 359.88974 91.276993 360.146545 91.051369 C 360.40332 90.827225 357.992706 89.911362 356.503876 89.515038 Z"/>
        <path id="path36" fill="#ed1c24" stroke="none" d="M 363.922821 72.229454 L 363.894592 72.21312 C 362.616547 71.454605 361.619049 70.838593 359.457794 70.667885 C 355.757233 70.375458 349.564423 69.257729 349.459015 68.671402 C 349.438232 68.555618 349.169586 65.851074 353.141785 63.468651 C 355.516754 62.043648 360.232635 62.487476 360.918427 62.560215 C 361.023804 62.57357 361.132172 62.57357 361.237549 62.560215 C 361.540375 62.520134 361.892181 62.340527 360.636383 61.582005 C 358.877411 60.519192 354.168945 60.262398 352.482697 60.884346 C 351.336761 61.307392 350.331818 61.622086 348.878632 62.990685 C 348.137909 63.688335 346.769348 65.217255 345.693146 66.557648 C 344.695648 67.803032 342.653137 69.186478 341.101959 68.810928 C 340.575012 68.683273 340.165344 67.857956 340.200958 67.581863 C 340.304871 66.766937 340.334534 66.124207 340.799164 65.079201 C 341.238525 64.090607 343.968292 60.023411 345.798553 58.411373 C 347.021667 57.335201 348.932068 57.474731 349.464966 57.445045 C 349.733643 57.434658 349.988953 57.333717 350.192322 57.157078 C 350.404541 56.964104 350.47879 56.713245 349.791504 56.541058 C 348.324951 56.175903 345.394775 55.625198 343.635803 56.468327 C 341.876801 57.311451 339.334076 59.876461 337.021423 63.723965 C 334.710236 67.571472 334.457886 67.901001 333.907196 68.340378 C 333.357971 68.779755 328.686615 68.377487 327.880615 68.340378 C 327.074585 68.303268 327.298737 64.494362 328.759369 61.780914 C 330.220001 59.068954 332.643982 57.014572 333.852264 56.316917 C 334.306519 56.055664 334.646393 55.401051 334.109039 55.254101 C 332.697418 54.868164 330.25116 55.76918 329.051788 56.610825 C 327.54068 57.672153 326.653046 59.355442 325.680756 60.704742 C 324.849518 61.856621 324.07019 64.567093 323.908417 65.17569 C 323.89505 65.226151 323.884644 65.278107 323.877228 65.330063 C 323.710999 66.44928 323.473511 68.865852 320.622009 68.865852 C 316.370728 68.865852 316.884338 68.389359 316.884338 67.181076 C 316.884338 65.971313 318.278168 59.339111 320.83725 57.030895 C 322.189514 55.812229 322.812958 55.304569 321.983185 55.225895 C 321.684814 55.197697 321.102936 55.292698 320.810516 55.353558 C 319.896149 55.549492 319.057465 56.000748 318.390991 56.65387 C 315.318329 59.728016 314.280731 65.205368 313.902222 66.976234 C 313.743378 67.757019 313.249084 68.427963 312.551453 68.810928 C 312.454956 68.862885 312.355499 68.908897 312.253082 68.946007 C 311.0448 69.385384 309.092834 69.239914 308.910278 68.946007 C 308.726196 68.65358 309.403076 65.68483 305.996429 65.574982 C 303.517517 65.494827 303.075165 67.783737 303.017273 69.032104 C 302.995026 69.495224 302.702606 69.900467 302.269135 70.065231 C 301.247894 70.454132 299.55719 71.361092 299.536407 73.10672 C 299.509705 75.605667 301.075714 76.07325 302.533356 76.18309 C 303.024689 76.2202 303.518982 76.206848 304.00885 76.143021 C 304.575867 76.064346 305.11322 76.419113 305.264618 76.971298 C 305.337372 77.278564 305.463531 77.569504 305.638702 77.832237 C 306.250244 78.69912 309.538147 78.906929 310.030975 75.483955 C 310.20166 74.213318 311.276367 73.258133 312.558868 73.240311 L 355.320831 72.275467 C 356.457855 72.248749 357.59491 72.269531 358.731903 72.334839 L 359.520142 72.382339 C 360.600739 72.444687 361.66803 72.811325 362.698212 73.146805 C 363.904968 73.540161 364.099457 73.670784 365.266174 74.170273 C 365.935638 74.456757 366.217651 74.519104 366.487793 74.18512 C 366.787628 73.811798 364.437866 72.542648 363.922821 72.229454 Z"/>
        <path id="path37" fill="#ed1c24" stroke="none" d="M 366.553864 50.283665 L 366.5242 50.265846 C 365.17337 49.465771 363.071503 48.465302 360.787048 48.284203 C 356.871277 47.973972 351.717499 48.361385 351.601715 47.740921 C 351.485931 47.120453 351.911957 43.517868 354.625397 41.889503 C 357.337341 40.262627 363.460419 40.417 363.460419 40.417 C 363.460419 40.417 364.932953 40.494186 363.072968 39.370506 C 361.213074 38.246834 356.232971 37.975197 354.450256 38.634262 C 353.237518 39.082542 352.173218 39.416527 350.633911 40.863792 C 349.444916 41.980049 347.598358 45.128414 346.752258 46.523731 C 346.526642 46.896309 346.281708 47.208031 346.054596 47.27631 C 345.627106 47.409904 342.882477 47.39209 341.21698 47.374283 C 340.560883 47.381699 340.02356 46.856232 340.017639 46.200138 C 340.016144 46.136303 340.020569 46.072479 340.031006 46.008652 C 340.160126 44.936928 340.442169 43.888954 340.868164 42.895905 C 341.332764 41.850914 343.695953 37.898003 345.634521 36.192459 C 346.928894 35.05394 348.25 34.852066 348.815552 34.820892 C 349.099091 34.810501 349.370697 34.703621 349.584442 34.516594 C 349.808594 34.311752 349.888733 34.051987 349.159912 33.86644 C 347.610229 33.480499 345.208496 33.247452 343.347107 34.138077 C 341.487152 35.028702 339.316986 37.393318 336.875214 41.461998 C 334.434875 45.530682 334.163239 45.879509 333.58136 46.34412 C 333.000977 46.810215 329.629944 47.080372 328.776428 47.041775 C 327.924408 47.004669 328.15744 42.973099 329.707123 40.105278 C 331.256836 37.237465 333.814392 35.067299 335.093933 34.331047 C 335.573395 34.054955 335.934113 33.361748 335.364105 33.205887 C 333.870819 32.799164 331.283539 33.749176 330.0159 34.639801 C 328.418701 35.763474 327.479095 37.546211 326.448914 38.971214 C 325.518219 40.24926 324.657288 43.367943 324.55191 43.783569 C 324.378235 44.930992 322.963623 46.733025 319.874634 46.733025 C 315.379913 46.733025 315.923218 46.229824 315.923218 44.950291 C 315.923218 43.672241 317.395721 37.356209 320.107666 34.914406 C 321.538605 33.625969 322.193207 33.088623 321.320404 33.005501 C 321.005707 32.975815 320.389709 33.076744 320.079468 33.142059 C 319.114624 33.348389 318.226959 33.824875 317.521881 34.516594 C 314.266632 37.771835 313.175629 42.863251 312.774841 44.735054 C 312.607117 45.55592 312.087585 46.263962 311.354279 46.669201 C 311.253357 46.724121 311.147949 46.771622 311.039612 46.811699 C 309.761566 47.277794 307.696777 47.121937 307.503815 46.811699 C 307.310822 46.501465 307.852631 43.014664 304.248566 42.8974 C 301.627167 42.812782 301.159576 45.229355 301.098724 46.553417 C 301.074951 47.043259 300.76474 47.472248 300.307556 47.6474 C 299.228394 48.057091 297.438232 49.015999 297.418945 50.862564 C 297.389252 53.507732 299.045837 54.002029 300.586609 54.117809 C 301.107635 54.156403 301.630127 54.14156 302.146667 54.074768 C 302.747864 53.991642 303.316376 54.367184 303.475189 54.95203 C 303.552399 55.275623 303.685974 55.584373 303.870056 55.861954 C 304.578094 56.862427 308.832306 57.554146 308.752197 52.80265 C 308.737305 52.121319 309.276154 51.555767 309.957489 51.539444 L 309.970856 51.539444 L 358.008301 51.108978 C 358.747528 51.101551 359.486725 51.083744 360.227448 51.062962 C 360.898376 51.042179 363.233276 51.310852 364.551422 51.722023 C 365.364868 51.975853 368.735901 53.014919 369.268799 52.351402 C 369.583466 51.958038 367.098633 50.61319 366.553864 50.283665 Z"/>
        <path id="path38" fill="#181619" stroke="none" d="M 306.201996 26.243416 C 304.214417 26.243416 302.686981 26.117241 301.53067 25.860443 C 300.252625 25.573959 299.298187 25.060364 298.698486 24.331535 C 298.098785 23.604187 297.785583 22.600746 297.785583 21.371681 L 297.785583 13.690025 L 294.414551 13.690025 L 294.414551 10.120094 L 297.785583 10.120094 L 297.785583 6.732742 L 303.536072 6.732742 L 303.536072 10.120094 L 313.417572 10.120094 L 313.417572 13.688538 L 303.536072 13.688538 L 303.536072 21.371681 C 303.536072 21.661133 303.573151 22.17028 303.818115 22.332069 C 303.898254 22.382545 304.380676 22.639343 306.203491 22.639343 C 308.225189 22.639343 308.624512 22.303871 308.645294 22.290512 C 308.930298 22.036682 308.992615 21.488945 308.992615 21.074806 L 308.992615 19.262383 L 314.435852 19.262383 L 314.435852 20.191605 C 314.435852 22.168793 313.855469 23.69622 312.71991 24.726372 C 311.582886 25.756538 309.454285 26.243416 306.201996 26.243416 Z"/>
        <path id="path39" fill="#181619" stroke="none" d="M 333.15979 19.993439 L 336.615448 19.993439 C 336.615448 21.437737 336.293335 22.536179 335.646149 23.288757 C 335.000427 24.039856 333.986603 24.554932 332.604675 24.832512 C 331.222687 25.111572 329.300415 25.251099 326.836365 25.251099 C 324.42572 25.251099 322.528687 25.105637 321.148224 24.813217 C 319.766266 24.522278 318.752441 24.07251 318.105255 23.465401 C 317.46991 22.879074 317.040955 22.104225 316.877686 21.256645 C 316.705475 20.397186 316.619385 19.185936 316.619385 17.624367 C 316.619385 15.964836 316.905884 14.655609 317.477356 13.695221 C 318.050323 12.734833 319.077515 12.026779 320.560394 11.569588 C 322.041809 11.112404 324.134766 10.883812 326.83783 10.883812 C 329.811066 10.883812 332.105896 11.173264 333.720917 11.753654 C 335.334412 12.334045 336.141937 13.481468 336.141937 15.192955 L 336.141937 15.651634 L 332.791687 15.651634 C 332.791687 14.798111 332.6091 14.15686 332.243927 13.724915 C 331.878754 13.292953 331.302826 12.996078 330.514648 12.83429 C 329.727936 12.673965 328.629486 12.593811 327.22229 12.593811 C 325.120392 12.593811 323.588531 12.71701 322.629639 12.963425 C 321.66925 13.209831 321.03244 13.658112 320.716248 14.306786 C 320.39859 14.95694 320.239777 15.985619 320.239777 17.392807 L 320.239777 18.805931 C 320.239777 20.052811 320.357056 20.990944 320.588623 21.621803 C 320.821655 22.252655 321.391663 22.736565 322.29715 23.070549 C 323.204071 23.406021 324.629089 23.572273 326.573639 23.572273 C 328.433533 23.572273 329.802155 23.498055 330.679413 23.351105 C 331.555206 23.204147 332.188995 22.877586 332.579407 22.371414 C 332.966827 21.865242 333.15979 21.072578 333.15979 19.993439 Z"/>
        <path id="path40" fill="#181619" stroke="none" d="M 337.367279 19.063477 L 337.367279 19.994179 C 337.367279 21.661133 336.965027 22.973328 336.172333 23.895126 C 335.3797 24.816925 334.19516 25.427002 332.608368 25.746147 C 331.172974 26.034111 329.550537 26.181068 327.03598 26.181068 C 324.571899 26.181068 322.593262 26.026695 321.154907 25.723877 C 319.590363 25.394348 318.450348 24.876297 317.668091 24.143013 C 316.891754 23.426064 316.364807 22.480515 316.164429 21.44442 C 315.978882 20.513718 315.889801 19.263863 315.889801 17.626595 C 315.889801 15.80526 316.22229 14.323853 316.878387 13.220955 C 317.568634 12.058693 318.782867 11.206665 320.482483 10.682671 C 322.06778 10.192825 324.209747 9.95533 327.031555 9.95533 C 330.141327 9.95533 332.495544 10.256653 334.229309 10.884552 C 336.216888 11.600021 337.266327 13.093307 337.266327 15.199646 L 337.266327 16.587524 L 332.059143 16.587524 L 332.059143 15.65683 C 332.059143 15.043785 331.943359 14.585106 331.729614 14.329796 C 331.517334 14.072998 331.10022 13.863693 330.527252 13.747917 C 329.802856 13.60096 328.757874 13.526741 327.418976 13.526741 C 325.403198 13.526741 323.930695 13.642525 323.056366 13.866661 C 322.36911 14.043304 321.94162 14.320885 321.748657 14.717209 C 321.574951 15.074951 321.367157 15.829018 321.367157 17.392067 L 321.367157 18.803703 C 321.367157 20.212379 321.526001 20.938248 321.659607 21.29895 C 321.793182 21.661133 322.183563 21.962463 322.821869 22.198479 C 323.620453 22.492386 324.950439 22.642311 326.77475 22.642311 C 328.572327 22.642311 329.523834 22.57106 330.347656 22.434494 C 330.982941 22.326134 331.475769 22.116844 331.713287 21.80661 C 331.889923 21.573555 332.051727 21.071838 332.051727 19.991211 L 332.051727 19.060509 L 337.367279 19.063477 Z"/>
        <path id="path41" fill="#181619" stroke="none" d="M 369.730408 11.050804 L 363.582123 25.152397 L 358.858856 25.152397 L 354.137054 12.527756 L 349.511719 25.152397 L 344.69046 25.152397 L 338.75293 11.050804 L 342.100189 11.050804 L 347.080322 23.675438 L 351.904541 11.050804 L 356.578827 11.050804 L 361.300629 23.675438 L 366.271851 11.050804 L 369.730408 11.050804 Z"/>
        <path id="path42" fill="#181619" stroke="none" d="M 364.186279 26.083099 L 358.213135 26.083099 L 354.14444 15.207054 L 350.161865 26.083099 L 344.072968 26.083099 L 337.353149 10.121582 L 342.732544 10.121582 L 347.069916 21.10598 L 351.264771 10.121582 L 357.223053 10.121582 L 361.324402 21.080742 L 365.639496 10.121582 L 371.14505 10.121582 L 364.186279 26.083099 Z"/>
    </g>
</svg>
