<?xml version="1.0" encoding="UTF-8" standalone="no"?>
<!-- Generated by Pixelmator Pro 3.4.1 -->

<svg width="250.20032" height="107.97497" viewBox="0 0 250.20032 107.97497" version="1.1" id="svg13"
   sodipodi:docname="tcw-logo.svg" inkscape:version="1.2 (dc2aeda, 2022-05-15)"
   xmlns:inkscape="http://www.inkscape.org/namespaces/inkscape"
   xmlns:sodipodi="http://sodipodi.sourceforge.net/DTD/sodipodi-0.dtd" xmlns:xlink="http://www.w3.org/1999/xlink"
   xmlns="http://www.w3.org/2000/svg" xmlns:svg="http://www.w3.org/2000/svg">
   <sodipodi:namedview id="namedview52" pagecolor="#ffffff" bordercolor="#000000" borderopacity="0.25"
      inkscape:showpageshadow="2" inkscape:pageopacity="0.0" inkscape:pagecheckerboard="0" inkscape:deskcolor="#d1d1d1"
      showgrid="false" inkscape:zoom="2.1856918" inkscape:cx="95.85066" inkscape:cy="53.987484"
      inkscape:window-width="1344" inkscape:window-height="456" inkscape:window-x="0" inkscape:window-y="44"
      inkscape:window-maximized="0" inkscape:current-layer="svg13" />
   <defs id="defs17">
      <linearGradient id="87a9965d-e011-46a4-b058-4e4507776abf" x1="131.89999" y1="500.5" x2="867.51001" y2="500.5"
         gradientUnits="userSpaceOnUse">
         <stop offset="0" stop-color="#a8aaac" id="stop125" />
         <stop offset="0.19" stop-color="#abadaf" id="stop127" />
         <stop offset="0.35" stop-color="#b5b6b8" id="stop129" />
         <stop offset="0.49" stop-color="#c6c6c6" id="stop131" />
         <stop offset="0.5" stop-color="#c8c8c8" id="stop133" />
         <stop offset="0.52" stop-color="#c6c6c6" id="stop135" />
         <stop offset="0.66" stop-color="#b5b6b8" id="stop137" />
         <stop offset="0.81" stop-color="#abadaf" id="stop139" />
         <stop offset="1" stop-color="#a8aaac" id="stop141" />
      </linearGradient>
      <linearGradient id="3ce73e3f-aab2-421f-8d06-37c72b96c1cc" x1="158.41" y1="610.47998" x2="841" y2="610.47998"
         gradientUnits="userSpaceOnUse">
         <stop offset="0" stop-color="#221d1d" id="stop144" />
         <stop offset="0.27" stop-color="#252020" id="stop146" />
         <stop offset="0.48" stop-color="#2f2a2a" id="stop148" />
         <stop offset="0.5" stop-color="#312c2c" id="stop150" />
         <stop offset="0.53" stop-color="#2f2a2a" id="stop152" />
         <stop offset="0.74" stop-color="#252020" id="stop154" />
         <stop offset="1" stop-color="#221d1d" id="stop156" />
      </linearGradient>
      <linearGradient id="60497143-564f-4260-b8bb-d94681b3c164" x1="285.66" y1="767.83002" x2="728.56" y2="767.83002"
         gradientUnits="userSpaceOnUse">
         <stop offset="0" stop-color="#d63c2b" id="stop159" />
         <stop offset="0.24" stop-color="#d93f2e" id="stop161" />
         <stop offset="0.42" stop-color="#e34938" id="stop163" />
         <stop offset="0.5" stop-color="#ea503f" id="stop165" />
         <stop offset="0.58" stop-color="#e34938" id="stop167" />
         <stop offset="0.77" stop-color="#d93f2e" id="stop169" />
         <stop offset="1" stop-color="#d63c2b" id="stop171" />
      </linearGradient>
      <linearGradient id="f1bc3e6e-50a4-4c4f-80cb-5a9afbdd314a" x1="207.06" y1="602.34998" x2="783.15997" y2="602.34998"
         xlink:href="#60497143-564f-4260-b8bb-d94681b3c164" />
      <linearGradient id="789964ca-14a7-446b-b108-4ce4282a9d11" x1="188.82001" y1="413.31" x2="807.07001" y2="413.31"
         xlink:href="#60497143-564f-4260-b8bb-d94681b3c164" />
      <linearGradient xlink:href="#60497143-564f-4260-b8bb-d94681b3c164" id="linearGradient352"
         gradientUnits="userSpaceOnUse" x1="285.66" y1="767.83002" x2="728.56" y2="767.83002" />
   </defs>
   <g id="g215" transform="scale(0.11826393)" style="display:inline" inkscape:label="shield">
      <path class="4ca7ecc8-5172-41ee-b7ce-3844902ee236"
         d="M 867.51,44 V 589.19 C 867.51,792.33 702.84,957 499.71,957 296.58,957 131.9,792.33 131.9,589.19 V 44 Z"
         transform="translate(-131.9,-44)" id="path180"
         style="display:inline;fill:url(#87a9965d-e011-46a4-b058-4e4507776abf)"
         inkscape:label="gray shield background" />
      <path class="45783e1b-9570-408a-8e94-07f851d80325"
         d="M 841,290.57 V 589.1 c 0,188.5 -152.8,341.3 -341.29,341.3 -188.49,0 -341.3,-152.8 -341.3,-341.3 V 290.57 Z"
         transform="translate(-131.9,-44)" id="path182"
         style="display:inline;fill:url(#3ce73e3f-aab2-421f-8d06-37c72b96c1cc)" inkscape:label="black background" />
      <path id="7eafd217-00ee-4e43-8d56-039fe9d09a67" data-name="3" class="6abbca44-430c-47e5-84e2-926406783054"
         d="m 697.06,798 c -4.25,-1.13 -8.56,-2 -12.9,-2.76 -6.95,-1.18 -52.45,-3.63 -65.51,-16.14 -0.59,-0.57 5,-37.26 33.53,-54.38 17.06,-10.24 51,-7 55.86,-6.52 a 9.53,9.53 0 0 0 2.28,0 c 2.18,-0.29 4.7,-1.58 -4.32,-7 -12.63,-7.63 -45,-8.06 -57.14,-3.58 A 98.87,98.87 0 0 0 617.28,727 c -5.32,5 -35,34.41 -42.72,44 -7.18,8.94 -41.68,7.54 -52.82,4.85 -3.79,-0.92 -6.73,-6.85 -6.47,-8.84 0.74,-5.81 1,-10.47 4.29,-18 3.16,-7.11 22.76,-36.32 35.92,-47.9 8.79,-7.73 28.17,-6.73 32,-6.94 a 8.41,8.41 0 0 0 5.22,-2.07 c 1.53,-1.39 2.07,-3.18 -2.87,-4.42 -10.53,-2.63 -37.25,-6.58 -49.88,-0.52 -12.63,6.06 -30.92,24.47 -47.5,52.11 -16.58,27.64 -18.42,30 -22.37,33.16 -3.95,3.16 -31.08,17.69 -43.46,2.07 -3.47,-4.38 2.8,-34 7.25,-44 2.63,-5.87 22.77,-36.08 33.38,-38.87 11.88,-3.12 16.21,-5 15.13,-6.62 -3.52,-5.35 -15.73,-3 -22.06,-2 -12.16,1.92 -32,9.08 -48.82,35.67 -8.67,13.7 -14.45,42.7 -15.65,48.3 a 19.45,19.45 0 0 1 -9.64,13.14 16.26,16.26 0 0 1 -2.14,1 c -8.68,3.16 -25.53,2.11 -26.85,0 -1.32,-2.11 3.55,-27.68 -20.92,-28.47 -17.8,-0.57 -21,20.09 -21.4,29.08 a 8.36,8.36 0 0 1 -5.37,7.42 c -7.33,2.79 -23.73,9.3 -23.87,21.83 -0.2,18 15.31,21.32 25.77,22.11 a 52.77,52.77 0 0 0 10.6,-0.29 c 4.08,-0.52 6.58,7.65 7.61,11.63 a 19.17,19.17 0 0 0 2.68,6.18 c 4.4,6.22 33.27,6.86 28.61,-22.47 -1.45,-9.12 -0.23,-12.92 9,-13 l 302.15,-5.55 q 6.87,-0.06 13.74,0.26 c 9.38,0.44 18.74,1.27 28.06,2.37 5.7,0.67 12.3,0.93 14.51,-1 2.21,-1.93 -18.53,-9.81 -31.33,-13.22 z"
         transform="translate(-131.9,-44)" style="fill:url(#linearGradient352)" inkscape:label="deer antler 3" />
      <path id="621737f6-fe7b-468f-a5b8-8418d7c9f675" data-name="2" class="53a1af57-5292-4405-b549-ed4b2bbab755"
         d="m 760.88,649.31 -0.24,-0.14 c -11,-6.52 -19.58,-11.82 -38.17,-13.29 -31.83,-2.52 -85.09,-12.13 -86,-17.17 -0.18,-1 -2.49,-24.26 31.67,-44.76 20.44,-12.26 61,-8.44 66.9,-7.81 a 11.41,11.41 0 0 0 2.74,0 c 2.61,-0.35 5.63,-1.89 -5.17,-8.42 -15.13,-9.14 -55.63,-11.35 -70.13,-6 -9.86,3.64 -18.51,6.35 -31,18.12 -6.38,6 -18.15,19.15 -27.4,30.68 -8.59,10.71 -26.15,22.61 -39.49,19.39 -4.54,-1.1 -8.06,-8.2 -7.75,-10.58 0.89,-7 1.15,-12.53 5.14,-21.52 3.78,-8.51 27.26,-43.49 43,-57.36 10.52,-9.26 26.95,-8.06 31.54,-8.31 a 10.07,10.07 0 0 0 6.25,-2.48 c 1.83,-1.66 2.47,-3.81 -3.44,-5.29 -12.61,-3.15 -37.82,-7.88 -52.95,-0.63 -15.13,7.25 -37,29.31 -56.89,62.41 -19.89,33.1 -22.06,35.93 -26.79,39.71 -4.73,3.78 -44.91,0.32 -51.84,0 -6.93,-0.32 -5,-33.09 7.56,-56.42 12.56,-23.33 33.41,-41 43.81,-47 3.9,-2.25 6.83,-7.88 2.21,-9.14 -12.15,-3.32 -33.19,4.42 -43.5,11.66 -13,9.13 -20.64,23.61 -29,35.22 -7.15,9.91 -13.85,33.22 -15.25,38.46 a 11.8,11.8 0 0 0 -0.27,1.32 c -1.42,9.63 -3.47,30.42 -28,30.42 -36.56,0 -32.15,-4.1 -32.15,-14.5 0,-10.4 12,-67.45 34,-87.3 11.64,-10.48 17,-14.85 9.86,-15.53 -2.56,-0.24 -7.57,0.58 -10.09,1.1 a 42.33,42.33 0 0 0 -20.8,11.19 c -26.44,26.44 -35.36,73.55 -38.62,88.78 a 23.29,23.29 0 0 1 -11.62,15.79 19.48,19.48 0 0 1 -2.56,1.16 c -10.4,3.78 -27.18,2.52 -28.76,0 -1.58,-2.52 4.25,-28.05 -25.06,-29 -21.32,-0.69 -25.13,19 -25.63,29.74 a 10,10 0 0 1 -6.43,8.89 c -8.78,3.34 -23.33,11.14 -23.5,26.15 -0.24,21.51 13.24,25.53 25.77,26.48 a 63.2,63.2 0 0 0 12.69,-0.35 9.82,9.82 0 0 1 10.81,7.13 23,23 0 0 0 3.21,7.4 c 5.27,7.45 33.54,9.24 37.78,-20.2 A 22.28,22.28 0 0 1 319.07,658 l 367.82,-8.3 q 14.67,-0.33 29.34,0.52 l 6.78,0.4 c 9.3,0.54 18.48,3.7 27.34,6.58 v 0 c 10.38,3.38 12.05,4.51 22.09,8.81 5.75,2.46 8.18,3 10.5,0.13 2.58,-3.22 -17.63,-14.14 -22.06,-16.83 z"
         transform="translate(-131.9,-44)" style="display:inline;fill:url(#f1bc3e6e-50a4-4c4f-80cb-5a9afbdd314a)"
         inkscape:label="deer antler 2" />
      <path id="81f6b13d-9152-40eb-b2e4-d9fc626e6a6b" data-name="1" class="851f7866-10a1-4cec-adb0-a5270fa27319"
         d="m 783.51,460.54 -0.25,-0.15 c -11.63,-6.89 -29.7,-15.49 -49.36,-17.05 -33.67,-2.67 -78,0.67 -79,-4.67 -1,-5.34 2.67,-36.33 26,-50.33 23.33,-14 76,-12.67 76,-12.67 0,0 12.67,0.67 -3.33,-9 -16,-9.67 -58.83,-12 -74.17,-6.33 -10.43,3.85 -19.58,6.72 -32.83,19.17 -10.23,9.61 -26.11,36.69 -33.38,48.69 -1.94,3.2 -4.05,5.88 -6,6.47 -3.68,1.15 -27.29,1 -41.62,0.85 a 10.21,10.21 0 0 1 -10.2,-11.75 97.68,97.68 0 0 1 7.2,-26.77 c 4,-9 24.33,-43 41,-57.67 11.13,-9.79 22.5,-11.52 27.36,-11.79 a 10.65,10.65 0 0 0 6.61,-2.62 c 1.94,-1.76 2.62,-4 -3.64,-5.59 -13.33,-3.33 -34,-5.33 -50,2.33 -16,7.66 -34.67,28 -55.67,63 -21,35 -23.33,38 -28.33,42 -5,4 -34,6.33 -41.33,6 -7.33,-0.33 -5.33,-35 8,-59.67 13.33,-24.67 35.33,-43.33 46.33,-49.67 4.13,-2.37 7.23,-8.33 2.33,-9.67 -12.85,-3.51 -35.1,4.67 -46,12.33 -13.74,9.66 -21.82,25 -30.69,37.25 -8,11 -15.41,37.83 -16.31,41.4 -1.5,9.87 -13.66,25.37 -40.23,25.37 -38.67,0 -34,-4.33 -34,-15.33 0,-11 12.67,-65.33 36,-86.33 12.31,-11.08 17.94,-15.7 10.43,-16.42 -2.71,-0.26 -8,0.61 -10.67,1.17 a 44.77,44.77 0 0 0 -22,11.83 c -28,28 -37.39,71.79 -40.84,87.89 a 24.63,24.63 0 0 1 -12.21,16.64 20.6,20.6 0 0 1 -2.71,1.23 c -11,4 -28.75,2.67 -30.41,0 -1.66,-2.67 3,-32.67 -28,-33.67 -22.55,-0.73 -26.58,20.06 -27.1,31.45 a 10.59,10.59 0 0 1 -6.8,9.4 c -9.29,3.53 -24.68,11.78 -24.85,27.66 -0.25,22.75 14,27 27.25,28 a 66.83,66.83 0 0 0 13.42,-0.37 10.38,10.38 0 0 1 11.43,7.54 24.28,24.28 0 0 0 3.39,7.83 c 6.09,8.61 42.68,14.56 42,-26.31 a 10.62,10.62 0 0 1 10.48,-10.87 L 710,467.64 c 6.36,-0.06 12.72,-0.22 19.09,-0.4 5.78,-0.17 25.86,2.14 37.19,5.67 7,2.19 36,11.12 40.58,5.42 2.71,-3.39 -18.66,-14.95 -23.35,-17.79 z"
         transform="translate(-131.9,-44)" style="display:inline;fill:url(#789964ca-14a7-446b-b108-4ce4282a9d11)"
         inkscape:label="deer antler 1" />
      <g id="deb99063-eb89-46b0-8de0-67819dd50864" data-name="tcw" style="display:inline" inkscape:label="tcw">
         <path class="b2ee50b5-9f0d-45f9-aeee-e8ce2b100024"
            d="m 318.48,123.08 v 14.7 h -85 v 74.08 q 0,11 6,14.95 6,3.95 24.91,4 20.63,0 26.29,-5 5.66,-5 5.66,-16.43 v -7.59 h 30.82 q 0,22.09 -12.14,33.07 -12.14,10.98 -50.63,11 -24.53,0 -38.43,-3.11 -13.9,-3.11 -19.96,-10.52 -6,-7.32 -6,-20.37 v -74.08 h -29 v -14.7 h 29 V 93.94 h 33.46 v 29.13 z"
            transform="translate(-131.9,-44)" id="path187" style="fill:#221d1d" />
         <path class="b2ee50b5-9f0d-45f9-aeee-e8ce2b100024"
            d="m 264.39,253.76 c -17.1,0 -30.24,-1.08 -40.18,-3.3 -11,-2.46 -19.2,-6.88 -24.36,-13.14 -5.16,-6.26 -7.85,-14.89 -7.85,-25.46 v -66.08 h -29 v -30.7 h 29 V 85.94 h 49.46 v 29.13 h 85 v 30.7 h -85 v 66.08 c 0,2.49 0.32,6.87 2.43,8.26 0.68,0.44 4.83,2.65 20.51,2.65 17.39,0 20.83,-2.89 21,-3 2.46,-2.19 3,-6.9 3,-10.46 v -15.59 h 46.82 v 8 c 0,17 -5,30.14 -14.77,39 -9.77,8.86 -28.09,13.05 -56.06,13.05 z M 208,129.78 v 82.08 c 0,6.75 1.42,11.89 4.21,15.27 2.79,3.38 8.07,6 15.51,7.71 a 118.3,118.3 0 0 0 16.74,2.26 27.83,27.83 0 0 1 -9.36,-3.61 c -6.4,-4.21 -9.64,-11.48 -9.64,-21.63 V 101.94 H 208 Z m 96.36,79.93 c -0.08,9.74 -2.88,17.14 -8.34,22 a 23.82,23.82 0 0 1 -9.82,4.89 c 13.73,-1.68 20.32,-4.91 23.47,-7.76 4.93,-4.46 7.91,-10.76 9,-19.13 z"
            transform="translate(-131.9,-44)" id="path189" style="fill:#221d1d" />
         <path class="b2ee50b5-9f0d-45f9-aeee-e8ce2b100024"
            d="M 496.27,200 H 526 q 0,18.64 -8.34,28.34 -8.34,9.7 -26.17,13.29 -17.82,3.59 -49.61,3.59 -31.11,0 -48.93,-3.76 -17.82,-3.76 -26.17,-11.6 a 34.72,34.72 0 0 1 -10.56,-19 Q 354,199.78 354,179.62 q 0,-21.4 7.38,-33.79 7.38,-12.39 26.51,-18.29 19.13,-5.9 54,-5.9 38.37,0 59.2,7.49 20.83,7.49 20.83,29.58 v 3.94 H 493.1 q 0,-11 -4.71,-16.57 -4.71,-5.57 -14.87,-7.66 -10.16,-2.07 -28.32,-2.07 -27.13,0 -39.51,3.18 -12.38,3.18 -16.46,11.56 -4.09,8.39 -4.09,26.54 v 12.15 q 0,16.09 3,24.23 3,8.14 14.7,12.46 11.69,4.32 36.78,4.31 24,0 35.31,-1.9 11.31,-1.9 16.35,-8.42 4.99,-6.53 4.99,-20.46 z"
            transform="translate(-131.9,-44)" id="path191" style="fill:#221d1d" />
         <path class="b2ee50b5-9f0d-45f9-aeee-e8ce2b100024"
            d="m 532.46,192 v 8 c 0,14.34 -3.46,25.63 -10.28,33.56 -6.82,7.93 -17,13.18 -30.65,15.92 -12.35,2.48 -26.31,3.74 -47.93,3.74 -21.2,0 -38.22,-1.32 -50.59,-3.93 -13.46,-2.84 -23.27,-7.29 -30,-13.6 a 42.67,42.67 0 0 1 -12.93,-23.21 c -1.59,-8 -2.36,-18.75 -2.36,-32.84 0,-15.66 2.86,-28.41 8.5,-37.89 5.94,-10 16.38,-17.33 31,-21.84 13.64,-4.21 32.07,-6.26 56.34,-6.26 26.75,0 47,2.6 61.91,8 17.09,6.15 26.12,19 26.12,37.11 V 170.7 H 486.8 v -8 c 0,-5.27 -1,-9.22 -2.83,-11.42 -1.83,-2.2 -5.42,-4 -10.35,-5 -6.22,-1.26 -15.22,-1.91 -26.73,-1.91 -17.34,0 -30,1 -37.52,2.93 -5.92,1.52 -9.6,3.91 -11.26,7.32 -1.49,3.07 -3.28,9.56 -3.28,23 v 12.15 c 0,12.11 1.37,18.35 2.52,21.46 1.15,3.11 4.5,5.71 10,7.73 6.87,2.53 18.31,3.82 34,3.82 15.46,0 23.64,-0.61 30.73,-1.79 5.47,-0.92 9.71,-2.73 11.75,-5.4 1.52,-2 2.91,-6.32 2.91,-15.61 v -8 z"
            transform="translate(-131.9,-44)" id="path193" style="fill:#221d1d" />
         <path class="b2ee50b5-9f0d-45f9-aeee-e8ce2b100024"
            d="m 810.83,123.08 -52.88,121.3 h -40.63 l -40.62,-108.6 -39.78,108.6 h -41.47 l -51.07,-121.3 h 28.79 L 616,231.67 657.5,123.08 h 40.2 l 40.62,108.59 42.76,-108.59 z"
            transform="translate(-131.9,-44)" id="path195" style="fill:#221d1d" />
         <path class="b2ee50b5-9f0d-45f9-aeee-e8ce2b100024"
            d="m 737.53,252.38 h -25.76 l -35,-93.55 -34.26,93.55 h -52.37 l -57.81,-137.3 h 46.28 l 37.3,94.49 36.09,-94.49 h 51.25 l 35.27,94.27 37.12,-94.27 H 823 l -59.86,137.3 z m 7.54,-16 h 7.63 l 45.91,-105.3 h -12.08 z m -22.2,0 h 8.67 l -39.39,-105.3 h -8.67 z m -100.07,0 h 8.54 L 669.9,131.08 H 663 Z m -22,0 h 8.52 l -41.56,-105.3 h -11.3 z"
            transform="translate(-131.9,-44)" id="path197" style="fill:#221d1d" />
      </g>
   </g>
   <text id="Tennis-Club--Waiblingen-eV" xml:space="preserve" x="-0.34753796" y="-7.8979144">
      <tspan x="99.652466" y="18.102085" font-family="'Open Sans'" font-size="21px" font-weight="600" fill="#ffffff"
         xml:space="preserve" id="tspan3">Tennis-Club</tspan>
      <tspan x="99.652466" y="43.102085" font-family="'Open Sans'" font-size="21px" font-weight="600" fill="#ffffff"
         xml:space="preserve" id="tspan5">Waiblingen</tspan>
      <tspan font-family="'Open Sans'" font-size="21px" font-weight="300" fill="#ffffff" xml:space="preserve"
         id="tspan7"> e.V.</tspan>
      <tspan x="99.652466" y="68.102089" font-family="'Open Sans'" font-size="21px" font-weight="300" fill="#ffffff"
         xml:space="preserve" id="tspan9">seit 1926</tspan>
   </text>
</svg>