<svg viewBox="0 0 400 300" xmlns="http://www.w3.org/2000/svg" fill="none">
  <defs>
    <!-- Gradient for faces: from background color to slightly darker -->
    <radialGradient id="faceGradient" cx="50%" cy="40%" r="60%">
      <stop offset="0%" style="stop-color:#DDD5C0;stop-opacity:1" />
      <stop offset="100%" style="stop-color:#D0C4A8;stop-opacity:1" />
    </radialGradient>
  </defs>

  <!-- Back row (5 people - taller) -->

  <!-- Person 1 - Male (back row, far left) -->
  <g transform="translate(80, 100)">
    <circle cx="0" cy="0" r="20" fill="url(#faceGradient)" stroke="#887050" stroke-width="2.5"/>
    <!-- Short hair -->
    <path d="M -17 -6 Q -19 -14, -13 -18 Q -5 -20, 0 -20 Q 5 -20, 13 -18 Q 19 -14, 17 -6"
          fill="none" stroke="#887050" stroke-width="2.5" stroke-linecap="round"/>
    <circle cx="-6" cy="-3" r="1.5" fill="#887050"/>
    <circle cx="6" cy="-3" r="1.5" fill="#887050"/>
    <path d="M -7 5 Q 0 9, 7 5" fill="none" stroke="#887050" stroke-width="1.8" stroke-linecap="round"/>
    <line x1="-4" y1="20" x2="-4" y2="28" stroke="#887050" stroke-width="2.5"/>
    <line x1="4" y1="20" x2="4" y2="28" stroke="#887050" stroke-width="2.5"/>
    <path d="M -4 28 L -20 33 L -22 55" fill="none" stroke="#887050" stroke-width="2.5" stroke-linecap="round"/>
    <path d="M 4 28 L 20 33 L 22 55" fill="none" stroke="#887050" stroke-width="2.5" stroke-linecap="round"/>
    <path d="M -20 33 Q 0 36, 20 33" fill="#A89878" stroke="#887050" stroke-width="2.5"/>
  </g>

  <!-- Person 2 - Female (back row, left-center) -->
  <g transform="translate(130, 95)">
    <circle cx="0" cy="0" r="21" fill="url(#faceGradient)" stroke="#887050" stroke-width="2.5"/>
    <!-- Longer hair -->
    <path d="M -18 -5 Q -20 -15, -14 -19 Q -6 -21, 0 -21 Q 6 -21, 14 -19 Q 20 -15, 18 -5 L 16 8"
          fill="none" stroke="#887050" stroke-width="2.5" stroke-linecap="round"/>
    <path d="M -18 -5 L -16 8" fill="none" stroke="#887050" stroke-width="2.5" stroke-linecap="round"/>
    <circle cx="-6" cy="-2" r="1.6" fill="#887050"/>
    <circle cx="6" cy="-2" r="1.6" fill="#887050"/>
    <path d="M -8 6 Q 0 10, 8 6" fill="none" stroke="#887050" stroke-width="1.8" stroke-linecap="round"/>
    <line x1="-5" y1="21" x2="-5" y2="30" stroke="#887050" stroke-width="2.5"/>
    <line x1="5" y1="21" x2="5" y2="30" stroke="#887050" stroke-width="2.5"/>
    <path d="M -5 30 L -22 36 L -24 58" fill="none" stroke="#887050" stroke-width="2.5" stroke-linecap="round"/>
    <path d="M 5 30 L 22 36 L 24 58" fill="none" stroke="#887050" stroke-width="2.5" stroke-linecap="round"/>
    <path d="M -22 36 Q 0 39, 22 36" fill="#A89878" stroke="#887050" stroke-width="2.5"/>
  </g>

  <!-- Person 3 - Male (back row, center) -->
  <g transform="translate(180, 90)">
    <circle cx="0" cy="0" r="22" fill="url(#faceGradient)" stroke="#887050" stroke-width="2.5"/>
    <path d="M -19 -4 Q -21 -16, -14 -20 Q -6 -22, 0 -22 Q 6 -22, 14 -20 Q 21 -16, 19 -4"
          fill="none" stroke="#887050" stroke-width="2.5" stroke-linecap="round"/>
    <circle cx="-7" cy="-2" r="1.7" fill="#887050"/>
    <circle cx="7" cy="-2" r="1.7" fill="#887050"/>
    <path d="M -8 6 Q 0 11, 8 6" fill="none" stroke="#887050" stroke-width="2" stroke-linecap="round"/>
    <line x1="-5" y1="22" x2="-5" y2="32" stroke="#887050" stroke-width="2.5"/>
    <line x1="5" y1="22" x2="5" y2="32" stroke="#887050" stroke-width="2.5"/>
    <path d="M -5 32 L -24 38 L -26 62" fill="none" stroke="#887050" stroke-width="2.5" stroke-linecap="round"/>
    <path d="M 5 32 L 24 38 L 26 62" fill="none" stroke="#887050" stroke-width="2.5" stroke-linecap="round"/>
    <path d="M -24 38 Q 0 41, 24 38" fill="#A89878" stroke="#887050" stroke-width="2.5"/>
  </g>

  <!-- Person 4 - Female (back row, right-center) -->
  <g transform="translate(230, 95)">
    <circle cx="0" cy="0" r="21" fill="url(#faceGradient)" stroke="#887050" stroke-width="2.5"/>
    <!-- Longer hair -->
    <path d="M -18 -5 Q -20 -15, -14 -19 Q -6 -21, 0 -21 Q 6 -21, 14 -19 Q 20 -15, 18 -5 L 16 8"
          fill="none" stroke="#887050" stroke-width="2.5" stroke-linecap="round"/>
    <path d="M -18 -5 L -16 8" fill="none" stroke="#887050" stroke-width="2.5" stroke-linecap="round"/>
    <circle cx="-6" cy="-2" r="1.6" fill="#887050"/>
    <circle cx="6" cy="-2" r="1.6" fill="#887050"/>
    <path d="M -8 6 Q 0 10, 8 6" fill="none" stroke="#887050" stroke-width="1.8" stroke-linecap="round"/>
    <line x1="-5" y1="21" x2="-5" y2="30" stroke="#887050" stroke-width="2.5"/>
    <line x1="5" y1="21" x2="5" y2="30" stroke="#887050" stroke-width="2.5"/>
    <path d="M -5 30 L -22 36 L -24 58" fill="none" stroke="#887050" stroke-width="2.5" stroke-linecap="round"/>
    <path d="M 5 30 L 22 36 L 24 58" fill="none" stroke="#887050" stroke-width="2.5" stroke-linecap="round"/>
    <path d="M -22 36 Q 0 39, 22 36" fill="#A89878" stroke="#887050" stroke-width="2.5"/>
  </g>

  <!-- Person 5 - Male (back row, far right) -->
  <g transform="translate(280, 100)">
    <circle cx="0" cy="0" r="20" fill="url(#faceGradient)" stroke="#887050" stroke-width="2.5"/>
    <path d="M -17 -6 Q -19 -14, -13 -18 Q -5 -20, 0 -20 Q 5 -20, 13 -18 Q 19 -14, 17 -6"
          fill="none" stroke="#887050" stroke-width="2.5" stroke-linecap="round"/>
    <circle cx="-6" cy="-3" r="1.5" fill="#887050"/>
    <circle cx="6" cy="-3" r="1.5" fill="#887050"/>
    <path d="M -7 5 Q 0 9, 7 5" fill="none" stroke="#887050" stroke-width="1.8" stroke-linecap="round"/>
    <line x1="-4" y1="20" x2="-4" y2="28" stroke="#887050" stroke-width="2.5"/>
    <line x1="4" y1="20" x2="4" y2="28" stroke="#887050" stroke-width="2.5"/>
    <path d="M -4 28 L -20 33 L -22 55" fill="none" stroke="#887050" stroke-width="2.5" stroke-linecap="round"/>
    <path d="M 4 28 L 20 33 L 22 55" fill="none" stroke="#887050" stroke-width="2.5" stroke-linecap="round"/>
    <path d="M -20 33 Q 0 36, 20 33" fill="#A89878" stroke="#887050" stroke-width="2.5"/>
  </g>

  <!-- Front row (5 people - shorter, closer to camera) -->

  <!-- Person 6 - Male (front row, far left) -->
  <g transform="translate(95, 155)">
    <circle cx="0" cy="0" r="24" fill="url(#faceGradient)" stroke="#887050" stroke-width="2.5"/>
    <path d="M -20 -7 Q -22 -17, -15 -22 Q -7 -24, 0 -24 Q 7 -24, 15 -22 Q 22 -17, 20 -7"
          fill="none" stroke="#887050" stroke-width="2.5" stroke-linecap="round"/>
    <circle cx="-7" cy="-3" r="1.8" fill="#887050"/>
    <circle cx="7" cy="-3" r="1.8" fill="#887050"/>
    <path d="M -9 7 Q 0 12, 9 7" fill="none" stroke="#887050" stroke-width="2" stroke-linecap="round"/>
    <line x1="-6" y1="24" x2="-6" y2="35" stroke="#887050" stroke-width="2.5"/>
    <line x1="6" y1="24" x2="6" y2="35" stroke="#887050" stroke-width="2.5"/>
    <path d="M -6 35 L -26 42 L -28 72" fill="none" stroke="#887050" stroke-width="2.5" stroke-linecap="round"/>
    <path d="M 6 35 L 26 42 L 28 72" fill="none" stroke="#887050" stroke-width="2.5" stroke-linecap="round"/>
    <path d="M -26 42 Q 0 45, 26 42" fill="#A89878" stroke="#887050" stroke-width="2.5"/>
  </g>

  <!-- Person 7 - Female (front row, left-center) -->
  <g transform="translate(145, 150)">
    <circle cx="0" cy="0" r="25" fill="url(#faceGradient)" stroke="#887050" stroke-width="2.5"/>
    <!-- Longer hair with more detail -->
    <path d="M -21 -6 Q -23 -18, -16 -23 Q -7 -25, 0 -25 Q 7 -25, 16 -23 Q 23 -18, 21 -6 L 19 10"
          fill="none" stroke="#887050" stroke-width="2.5" stroke-linecap="round"/>
    <path d="M -21 -6 L -19 10" fill="none" stroke="#887050" stroke-width="2.5" stroke-linecap="round"/>
    <circle cx="-7" cy="-3" r="1.9" fill="#887050"/>
    <circle cx="7" cy="-3" r="1.9" fill="#887050"/>
    <path d="M -10 8 Q 0 13, 10 8" fill="none" stroke="#887050" stroke-width="2" stroke-linecap="round"/>
    <line x1="-6" y1="25" x2="-6" y2="37" stroke="#887050" stroke-width="2.5"/>
    <line x1="6" y1="25" x2="6" y2="37" stroke="#887050" stroke-width="2.5"/>
    <path d="M -6 37 L -28 44 L -30 76" fill="none" stroke="#887050" stroke-width="2.5" stroke-linecap="round"/>
    <path d="M 6 37 L 28 44 L 30 76" fill="none" stroke="#887050" stroke-width="2.5" stroke-linecap="round"/>
    <path d="M -28 44 Q 0 47, 28 44" fill="#A89878" stroke="#887050" stroke-width="2.5"/>
  </g>

  <!-- Person 8 - Male (front row, center) -->
  <g transform="translate(195, 145)">
    <circle cx="0" cy="0" r="26" fill="url(#faceGradient)" stroke="#887050" stroke-width="2.5"/>
    <path d="M -22 -5 Q -24 -19, -17 -24 Q -8 -26, 0 -26 Q 8 -26, 17 -24 Q 24 -19, 22 -5"
          fill="none" stroke="#887050" stroke-width="2.5" stroke-linecap="round"/>
    <circle cx="-8" cy="-2" r="2" fill="#887050"/>
    <circle cx="8" cy="-2" r="2" fill="#887050"/>
    <path d="M -10 8 Q 0 14, 10 8" fill="none" stroke="#887050" stroke-width="2.2" stroke-linecap="round"/>
    <line x1="-6" y1="26" x2="-6" y2="38" stroke="#887050" stroke-width="2.5"/>
    <line x1="6" y1="26" x2="6" y2="38" stroke="#887050" stroke-width="2.5"/>
    <path d="M -6 38 L -30 46 L -32 80" fill="none" stroke="#887050" stroke-width="2.5" stroke-linecap="round"/>
    <path d="M 6 38 L 30 46 L 32 80" fill="none" stroke="#887050" stroke-width="2.5" stroke-linecap="round"/>
    <path d="M -30 46 Q 0 49, 30 46" fill="#A89878" stroke="#887050" stroke-width="2.5"/>
  </g>

  <!-- Person 9 - Female (front row, right-center) -->
  <g transform="translate(245, 150)">
    <circle cx="0" cy="0" r="25" fill="url(#faceGradient)" stroke="#887050" stroke-width="2.5"/>
    <!-- Longer hair -->
    <path d="M -21 -6 Q -23 -18, -16 -23 Q -7 -25, 0 -25 Q 7 -25, 16 -23 Q 23 -18, 21 -6 L 19 10"
          fill="none" stroke="#887050" stroke-width="2.5" stroke-linecap="round"/>
    <path d="M -21 -6 L -19 10" fill="none" stroke="#887050" stroke-width="2.5" stroke-linecap="round"/>
    <circle cx="-7" cy="-3" r="1.9" fill="#887050"/>
    <circle cx="7" cy="-3" r="1.9" fill="#887050"/>
    <path d="M -10 8 Q 0 13, 10 8" fill="none" stroke="#887050" stroke-width="2" stroke-linecap="round"/>
    <line x1="-6" y1="25" x2="-6" y2="37" stroke="#887050" stroke-width="2.5"/>
    <line x1="6" y1="25" x2="6" y2="37" stroke="#887050" stroke-width="2.5"/>
    <path d="M -6 37 L -28 44 L -30 76" fill="none" stroke="#887050" stroke-width="2.5" stroke-linecap="round"/>
    <path d="M 6 37 L 28 44 L 30 76" fill="none" stroke="#887050" stroke-width="2.5" stroke-linecap="round"/>
    <path d="M -28 44 Q 0 47, 28 44" fill="#A89878" stroke="#887050" stroke-width="2.5"/>
  </g>

  <!-- Person 10 - Male (front row, far right) -->
  <g transform="translate(295, 155)">
    <circle cx="0" cy="0" r="24" fill="url(#faceGradient)" stroke="#887050" stroke-width="2.5"/>
    <path d="M -20 -7 Q -22 -17, -15 -22 Q -7 -24, 0 -24 Q 7 -24, 15 -22 Q 22 -17, 20 -7"
          fill="none" stroke="#887050" stroke-width="2.5" stroke-linecap="round"/>
    <circle cx="-7" cy="-3" r="1.8" fill="#887050"/>
    <circle cx="7" cy="-3" r="1.8" fill="#887050"/>
    <path d="M -9 7 Q 0 12, 9 7" fill="none" stroke="#887050" stroke-width="2" stroke-linecap="round"/>
    <line x1="-6" y1="24" x2="-6" y2="35" stroke="#887050" stroke-width="2.5"/>
    <line x1="6" y1="24" x2="6" y2="35" stroke="#887050" stroke-width="2.5"/>
    <path d="M -6 35 L -26 42 L -28 72" fill="none" stroke="#887050" stroke-width="2.5" stroke-linecap="round"/>
    <path d="M 6 35 L 26 42 L 28 72" fill="none" stroke="#887050" stroke-width="2.5" stroke-linecap="round"/>
    <path d="M -26 42 Q 0 45, 26 42" fill="#A89878" stroke="#887050" stroke-width="2.5"/>
  </g>
</svg>
