<?xml version="1.0" encoding="UTF-8"?>
<!-- Generated by Pixelmator Pro 3.7.1 -->
<svg width="1000" height="1000" viewBox="0 0 1000 1000" xmlns="http://www.w3.org/2000/svg">
    <g id="shield">
        <g id="gray-shield-background">
            <linearGradient id="linearGradient1" x1="207.083309" y1="400.179939" x2="792.916606" y2="400.179939" gradientUnits="userSpaceOnUse">
                <stop offset="1e-05" stop-color="#a8aaac" stop-opacity="1"/>
                <stop offset="0.19" stop-color="#abadaf" stop-opacity="1"/>
                <stop offset="0.35" stop-color="#b5b6b8" stop-opacity="1"/>
                <stop offset="0.49" stop-color="#c6c6c6" stop-opacity="1"/>
                <stop offset="0.5" stop-color="#c8c8c8" stop-opacity="1"/>
                <stop offset="0.52" stop-color="#c6c6c6" stop-opacity="1"/>
                <stop offset="0.66" stop-color="#b5b6b8" stop-opacity="1"/>
                <stop offset="0.81" stop-color="#abadaf" stop-opacity="1"/>
                <stop offset="1" stop-color="#a8aaac" stop-opacity="1"/>
            </linearGradient>
            <path id="Pfad" fill="url(#linearGradient1)" stroke="none" d="M 792.916626 36.62738 L 792.916626 470.81189 C 792.916626 632.59082 661.774902 763.732544 500.003906 763.732544 C 338.233002 763.732544 207.083298 632.59082 207.083298 470.81189 L 207.083298 36.62738 L 792.916626 36.62738 Z"/>
        </g>
        <g id="black-background">
            <linearGradient id="linearGradient2" x1="228.195638" y1="487.767038" x2="771.804276" y2="487.767038" gradientUnits="userSpaceOnUse">
                <stop offset="1e-05" stop-color="#221d1d" stop-opacity="1"/>
                <stop offset="0.27" stop-color="#252020" stop-opacity="1"/>
                <stop offset="0.48" stop-color="#2f2a2a" stop-opacity="1"/>
                <stop offset="0.5" stop-color="#312c2c" stop-opacity="1"/>
                <stop offset="0.53" stop-color="#2f2a2a" stop-opacity="1"/>
                <stop offset="0.74" stop-color="#252020" stop-opacity="1"/>
                <stop offset="1" stop-color="#221d1d" stop-opacity="1"/>
            </linearGradient>
            <path id="path1" fill="url(#linearGradient2)" stroke="none" d="M 771.80426 232.99353 L 771.80426 470.740173 C 771.80426 620.859863 650.115723 742.548523 500.003906 742.548523 C 349.892181 742.548523 228.195648 620.859863 228.195648 470.740173 L 228.195648 232.99353 L 771.80426 232.99353 Z"/>
        </g>
        <g id="deer-antler-3">
            <linearGradient id="linearGradient3" x1="329.536413" y1="613.079186" x2="682.258055" y2="613.079186" gradientUnits="userSpaceOnUse">
                <stop offset="1e-05" stop-color="#d63c2b" stop-opacity="1"/>
                <stop offset="0.24" stop-color="#d93f2e" stop-opacity="1"/>
                <stop offset="0.42" stop-color="#e34938" stop-opacity="1"/>
                <stop offset="0.5" stop-color="#ea503f" stop-opacity="1"/>
                <stop offset="0.58" stop-color="#e34938" stop-opacity="1"/>
                <stop offset="0.77" stop-color="#d93f2e" stop-opacity="1"/>
                <stop offset="1" stop-color="#d63c2b" stop-opacity="1"/>
            </linearGradient>
            <path id="path2" fill="url(#linearGradient3)" stroke="none" d="M 657.171753 637.106323 C 653.787048 636.206421 650.354614 635.51355 646.898254 634.908264 C 641.363403 633.968506 605.127563 632.017334 594.726746 622.054504 C 594.256836 621.600586 598.708679 592.380981 621.429688 578.746704 C 635.016113 570.591675 662.045654 573.171997 665.916077 573.554321 C 666.518982 573.62677 667.129028 573.62677 667.731873 573.554321 C 669.468018 573.323364 671.474915 572.296021 664.291443 567.979553 C 654.233032 561.903076 628.453857 561.560669 618.785645 565.128479 C 609.504517 568.642151 600.971252 573.879211 593.635681 580.5625 C 589.398865 584.544495 565.761963 607.966309 559.613831 615.60376 C 553.895752 622.723511 526.420227 621.608521 517.548401 619.466187 C 514.530151 618.733521 512.188721 614.010986 512.395813 612.426147 C 512.985107 607.799133 513.1922 604.087891 515.812317 598.091125 C 518.328857 592.428772 533.938171 569.166138 544.41864 559.94397 C 551.418945 553.787842 566.853027 554.584229 569.903198 554.416992 C 571.436279 554.35968 572.904785 553.777527 574.060364 552.768433 C 575.278809 551.661499 575.708923 550.235962 571.774719 549.248413 C 563.388672 547.153931 542.109131 544.008179 532.05072 548.83429 C 521.99231 553.6604 507.426331 568.322021 494.222168 590.334229 C 481.017944 612.346497 479.552612 614.226013 476.40686 616.742554 C 473.261108 619.259216 451.655029 630.83075 441.795715 618.391113 C 439.032227 614.902954 444.025604 591.313843 447.56955 583.349915 C 449.664063 578.675049 465.703369 554.616089 474.153076 552.394165 C 483.614197 549.909424 487.062561 548.412231 486.202515 547.12207 C 483.39917 542.861328 473.675232 544.73291 468.634094 545.529297 C 458.949982 547.05835 443.149567 552.760498 429.754272 573.936523 C 422.849548 584.847168 418.246399 607.942505 417.290771 612.402222 C 416.387634 616.84375 413.578766 620.671997 409.613525 622.866821 C 409.065643 623.173462 408.496216 623.439453 407.909271 623.663208 C 400.996613 626.17981 387.577393 625.343628 386.526154 623.663208 C 385.474915 621.982849 389.353333 601.619141 369.865662 600.98999 C 355.689911 600.536011 353.141449 616.989502 352.822876 624.149048 C 352.699432 626.789063 351.015076 629.116089 348.546265 630.058228 C 342.70874 632.280151 329.647888 637.464722 329.536407 647.443481 C 329.377136 661.778503 341.729156 664.422485 350.059418 665.051697 C 352.87384 665.257935 355.701843 665.180664 358.50116 664.820679 C 361.750427 664.406616 363.741394 670.913086 364.561707 674.082764 C 364.977417 675.836426 365.699738 677.502441 366.696045 679.004395 C 370.200134 683.958008 393.191956 684.467651 389.480774 661.109558 C 388.326019 653.846436 389.297607 650.820129 396.648285 650.75647 L 637.277893 646.336548 C 640.925354 646.304626 644.572815 646.373901 648.220276 646.543518 C 655.69043 646.893921 663.144653 647.554932 670.567017 648.430969 C 675.106506 648.9646 680.36261 649.171631 682.122681 647.634583 C 683.88269 646.097534 667.36554 639.822021 657.171753 637.106323 Z"/>
        </g>
        <g id="deer-antler-2">
            <linearGradient id="linearGradient4" x1="95267.596633" y1="96176.967467" x2="359587.431412" y2="96176.967467" gradientUnits="userSpaceOnUse">
                <stop offset="1e-05" stop-color="#d63c2b" stop-opacity="1"/>
                <stop offset="0.24" stop-color="#d93f2e" stop-opacity="1"/>
                <stop offset="0.42" stop-color="#e34938" stop-opacity="1"/>
                <stop offset="0.5" stop-color="#ea503f" stop-opacity="1"/>
                <stop offset="0.58" stop-color="#e34938" stop-opacity="1"/>
                <stop offset="0.77" stop-color="#d93f2e" stop-opacity="1"/>
                <stop offset="1" stop-color="#d63c2b" stop-opacity="1"/>
            </linearGradient>
            <path id="path3" fill="url(#linearGradient4)" stroke="none" d="M 707.997437 518.690918 L 707.806274 518.579407 C 699.046021 513.386963 692.212952 509.166077 677.40802 507.995361 C 652.058899 505.988464 609.643127 498.335144 608.918396 494.32135 C 608.775024 493.524963 606.935364 475.000916 634.140137 458.674866 C 650.418335 448.911133 682.719971 451.953308 687.41864 452.455078 C 688.143372 452.542664 688.876038 452.542664 689.60083 452.455078 C 691.679382 452.176331 694.084412 450.94989 685.483398 445.74939 C 673.434021 438.470459 641.180176 436.710388 629.632507 440.971069 C 621.78009 443.869934 614.891296 446.028198 604.944397 455.401733 C 599.863403 460.180054 590.489929 470.652588 583.123291 479.835022 C 576.282288 488.364319 562.297668 497.84137 551.673828 495.276978 C 548.058167 494.401001 545.254883 488.746643 545.50177 486.851196 C 546.21051 481.276489 546.417603 476.872375 549.595215 469.71283 C 552.605591 462.935547 571.30481 435.07782 583.840027 424.03186 C 592.218079 416.657288 605.302795 417.612976 608.958252 417.413879 C 610.793884 417.345337 612.552368 416.647705 613.935669 415.438782 C 615.393005 414.11676 615.90271 412.404541 611.196106 411.225891 C 601.153564 408.717224 581.076538 404.950317 569.027161 410.724121 C 556.977783 416.497986 539.560669 434.066345 523.720459 460.426941 C 507.880249 486.787476 506.1521 489.04126 502.385132 492.051636 C 498.618225 495.062012 466.619232 492.306458 461.10022 492.051636 C 455.581238 491.796753 457.118256 465.699036 467.120972 447.119263 C 477.123657 428.539429 493.728394 414.467224 502.010864 409.688843 C 505.11676 407.896973 507.450195 403.413269 503.770874 402.409851 C 494.094727 399.765808 477.338623 405.929871 469.127869 411.695801 C 458.77478 418.966858 452.690338 430.498535 446.032501 439.744629 C 440.338318 447.636902 435.002502 466.200806 433.887543 470.37384 C 433.795959 470.719482 433.724274 471.07074 433.672516 471.42511 C 432.541656 479.09436 430.909058 495.651306 411.373566 495.651306 C 382.257507 495.651306 385.769592 492.386108 385.769592 484.103638 C 385.769592 475.821167 395.326263 430.387024 412.846893 414.578674 C 422.116882 406.232544 426.385529 402.752319 420.69931 402.210754 C 418.660553 402.019592 414.670624 402.672668 412.663727 403.086792 C 406.408875 404.425476 400.662903 407.51709 396.098785 411.998413 C 375.042206 433.054993 367.938385 470.572937 365.342163 482.701965 C 364.25827 488.048157 360.869629 492.652893 356.088104 495.276978 C 355.431854 495.633789 354.750153 495.942017 354.049347 496.200806 C 345.766876 499.211182 332.403442 498.207764 331.145111 496.200806 C 329.886841 494.193909 334.529785 473.862061 311.187561 473.105469 C 294.208496 472.555969 291.174255 488.236938 290.776062 496.790161 C 290.631927 499.95343 288.614655 502.743164 285.655273 503.870056 C 278.662933 506.529968 267.075439 512.741882 266.940063 524.695679 C 266.748932 541.82605 277.484283 545.027588 287.463074 545.78418 C 290.832611 546.031006 294.218048 545.937012 297.569275 545.505371 C 301.438934 544.972595 305.144531 547.416748 306.178253 551.183655 C 306.676788 553.282959 307.541687 555.278687 308.73468 557.076965 C 312.931641 563.010132 335.445618 564.435608 338.822327 540.989868 C 339.987457 532.320313 347.397888 525.741394 356.14386 525.611572 L 649.072449 519.001526 C 656.861145 518.826294 664.649841 518.964111 672.438538 519.415588 L 677.838074 519.734192 C 685.244507 520.164185 692.555359 522.680847 699.611389 524.974426 C 707.87793 527.66626 709.207947 528.566162 717.203674 531.990662 C 721.782959 533.949707 723.718201 534.379822 725.565796 532.094177 C 727.620483 529.529785 711.525452 520.833191 707.997437 518.690918 Z"/>
        </g>
        <g id="deer-antler-1">
            <linearGradient id="linearGradient5" x1="93223.260541" y1="67032.157162" x2="397635.018786" y2="67032.157162" gradientUnits="userSpaceOnUse">
                <stop offset="1e-05" stop-color="#d63c2b" stop-opacity="1"/>
                <stop offset="0.24" stop-color="#d93f2e" stop-opacity="1"/>
                <stop offset="0.42" stop-color="#e34938" stop-opacity="1"/>
                <stop offset="0.5" stop-color="#ea503f" stop-opacity="1"/>
                <stop offset="0.58" stop-color="#e34938" stop-opacity="1"/>
                <stop offset="0.77" stop-color="#d93f2e" stop-opacity="1"/>
                <stop offset="1" stop-color="#d63c2b" stop-opacity="1"/>
            </linearGradient>
            <path id="path4" fill="url(#linearGradient5)" stroke="none" d="M 726.019775 368.35614 L 725.820679 368.236694 C 716.558655 362.749573 702.167847 355.900574 686.510803 354.658203 C 659.696289 352.53186 624.392273 355.191833 623.595886 350.939087 C 622.7995 346.68634 625.722229 322.006165 644.302063 310.856689 C 662.881836 299.707214 704.82782 300.766418 704.82782 300.766418 C 704.82782 300.766418 714.918091 301.299988 702.175781 293.598938 C 689.433533 285.897827 655.324097 284.042236 643.107483 288.557739 C 634.801086 291.62384 627.51416 293.909485 616.961975 303.824585 C 608.81488 311.477905 596.168213 333.044189 590.378418 342.600891 C 588.833435 345.149292 587.153015 347.28363 585.600037 347.75354 C 582.669373 348.669373 563.866577 348.549927 552.454285 348.43042 C 552.425598 348.43042 552.397705 348.431213 552.36908 348.431213 C 547.908447 348.431213 544.237915 344.760681 544.237915 340.30011 C 544.237915 339.88916 544.268921 339.479004 544.331055 339.072815 C 545.219055 331.730103 547.150269 324.551453 550.065063 317.753479 C 553.250671 310.585938 569.441284 283.508606 582.717102 271.825562 C 591.580994 264.028931 600.635925 262.651123 604.506409 262.436157 C 606.447998 262.364441 608.306763 261.626953 609.770508 260.349609 C 611.315491 258.947937 611.857056 257.164001 606.871704 255.897766 C 596.255798 253.245789 579.794373 251.653015 567.052124 257.753357 C 554.309875 263.853699 539.441223 280.052307 522.71698 307.925964 C 505.992798 335.799683 504.137207 338.188843 500.155273 341.37439 C 496.173279 344.559998 473.077942 346.415588 467.240417 346.152771 C 461.402863 345.889954 462.995636 318.279053 473.611572 298.63208 C 484.227417 278.985168 501.748047 264.124451 510.508362 259.075378 C 513.797485 257.187927 516.266235 252.441406 512.363892 251.374268 C 502.13031 248.578918 484.410583 255.093384 475.729919 261.193787 C 464.787506 268.886902 458.352692 281.103516 451.288696 290.859314 C 444.917572 299.619629 439.016296 320.986816 438.299561 323.829895 C 437.10498 331.690308 427.420868 344.034363 406.260742 344.034363 C 375.464294 344.034363 379.183441 340.585999 379.183441 331.825684 C 379.183441 323.065369 389.273712 279.797424 407.853516 263.073242 C 417.657104 254.249207 422.140778 250.569885 416.159882 249.996521 C 414.001648 249.789429 409.788757 250.4823 407.662384 250.928284 C 401.047577 252.342651 394.969482 255.611084 390.141785 260.349609 C 367.842834 282.64856 360.364716 317.522522 357.617188 330.344421 C 356.472748 335.969299 352.915253 340.816956 347.893219 343.596375 C 347.198792 343.974609 346.477264 344.301941 345.735016 344.575928 C 336.974701 347.761475 322.838776 346.702271 321.516754 344.575928 C 320.194733 342.449524 323.905914 318.5578 299.217804 317.761414 C 281.259186 317.180054 278.049713 333.737061 277.63562 342.807922 C 277.479523 346.151978 275.347565 349.099426 272.220154 350.294006 C 264.821655 353.105286 252.565216 359.675476 252.42981 372.322144 C 252.230713 390.440063 263.579285 393.824707 274.13147 394.621094 C 277.694519 394.881531 281.275116 394.782776 284.819031 394.326477 C 288.911713 393.761841 292.829956 396.346924 293.921814 400.331238 C 294.446625 402.553223 295.36087 404.664429 296.621582 406.567017 C 301.471588 413.42395 330.611542 418.162476 330.069977 385.613953 C 330.06839 385.547058 330.067596 385.480957 330.067596 385.414063 C 330.067596 380.815674 333.81781 377.016907 338.416168 376.957153 L 667.477051 374.010559 C 672.542053 373.962708 677.607117 373.835327 682.680176 373.691956 C 687.283264 373.55658 703.274841 375.39624 712.297974 378.20752 C 717.872681 379.951599 740.968018 387.063354 744.615479 382.523926 C 746.773682 379.824158 729.754822 370.61792 726.019775 368.35614 Z"/>
        </g>
        <g id="tcw">
            <g id="path187">
                <path id="path5" fill="#221d1d" stroke="none" d="M 355.673981 99.606018 L 355.673981 111.312988 L 287.980713 111.312988 L 287.980713 170.309631 C 287.980713 176.149536 289.573486 180.118774 292.759064 182.215698 C 295.944611 184.312561 302.557068 185.374939 312.597168 185.401245 C 323.549927 185.401245 330.52951 184.073669 333.534271 181.419312 C 336.539063 178.764893 338.04184 174.403076 338.04184 168.334595 L 338.04184 162.289978 L 362.586639 162.289978 C 362.586639 174.018433 359.363647 182.797058 352.918427 188.626648 C 346.473267 194.456177 333.032532 197.376587 312.597168 197.386902 C 299.573792 197.386902 289.372009 196.561096 281.991852 194.910156 C 274.611694 193.259216 269.313293 190.466309 266.095886 186.532104 C 262.910309 182.645752 261.317535 177.23822 261.317535 170.309631 L 261.317535 111.312988 L 238.222198 111.312988 L 238.222198 99.606018 L 261.317535 99.606018 L 261.317535 76.39917 L 287.964783 76.39917 L 287.964783 99.598083 L 355.673981 99.606018 Z"/>
            </g>
            <g id="path189">
                <path id="path6" fill="#221d1d" stroke="none" d="M 312.597168 203.678406 C 298.978851 203.678406 288.514282 202.818298 280.598175 201.050354 C 271.83786 199.091187 265.307434 195.571167 261.19809 190.585754 C 257.088684 185.600342 254.946411 178.727478 254.946411 170.309631 L 254.946411 117.684082 L 231.851074 117.684082 L 231.851074 93.234924 L 254.946411 93.234924 L 254.946411 70.028076 L 294.335907 70.028076 L 294.335907 93.226929 L 362.029144 93.226929 L 362.029144 117.676147 L 294.335907 117.676147 L 294.335907 170.301697 C 294.335907 172.284668 294.590759 175.772888 296.271149 176.879883 C 296.812683 177.230286 300.117706 178.990295 312.605133 178.990295 C 326.454376 178.990295 329.19397 176.688721 329.329346 176.601135 C 331.288452 174.857056 331.718506 171.106018 331.718506 168.270874 L 331.718506 155.855164 L 369.005554 155.855164 L 369.005554 162.226257 C 369.005554 175.764893 365.02359 186.229492 357.242859 193.285522 C 349.462097 200.341553 334.872223 203.678406 312.597168 203.678406 Z M 267.68866 82.770325 L 267.68866 170.309631 C 267.68866 175.685242 268.81955 179.778748 271.041473 182.47052 C 273.263397 185.162292 277.468353 187.248901 283.393494 188.610718 C 287.788788 189.527344 292.243774 190.129395 296.725098 190.410522 C 294.086639 189.911987 291.561279 188.937195 289.270874 187.535583 C 284.17395 184.182739 281.593658 178.393005 281.593658 170.309631 L 281.593658 82.770325 L 267.68866 82.770325 Z M 344.428894 168.597412 C 344.365204 176.354248 342.135315 182.247559 337.787018 186.117981 C 335.51889 188.007019 332.840607 189.34021 329.966461 190.012329 C 340.900909 188.674438 346.149109 186.102051 348.657776 183.832336 C 352.583954 180.280457 354.957184 175.263184 355.825287 168.597412 L 344.428894 168.597412 Z"/>
            </g>
            <g id="path191">
                <path id="path7" fill="#221d1d" stroke="none" d="M 497.264343 160.864441 L 520.94104 160.864441 C 520.94104 170.761169 518.727051 178.283875 514.299133 183.434143 C 509.871216 188.584412 502.924316 192.112427 493.457581 194.018188 C 483.99646 195.92395 470.826538 196.877258 453.948639 196.877258 C 437.431488 196.877258 424.442322 195.879333 414.981201 193.882813 C 405.520081 191.88623 398.573151 188.807434 394.139648 184.644653 C 389.789764 180.631653 386.840729 175.326111 385.729767 169.513245 C 384.551086 163.63031 383.961761 155.337463 383.961761 144.633972 C 383.961761 133.271851 385.920898 124.302124 389.839142 117.723938 C 393.757385 111.145752 400.795074 106.290161 410.951477 103.157959 C 421.107849 100.025696 435.442902 98.459229 453.956604 98.459229 C 474.328247 98.459229 490.043457 100.447815 501.102966 104.424194 C 512.162415 108.400574 517.691772 116.252991 517.691772 127.981445 L 517.691772 131.119202 L 494.739807 131.119202 C 494.739807 125.279297 493.489441 120.880005 490.98877 117.923035 C 488.488098 114.966003 484.540405 112.932068 479.146423 111.822693 C 473.752502 110.723633 466.234558 110.174133 456.592651 110.174133 C 442.188324 110.174133 431.699829 111.018311 425.127228 112.706665 C 418.554626 114.39502 414.184814 117.463501 412.018646 121.912964 C 409.846863 126.367126 408.761414 133.412842 408.761414 143.049194 L 408.761414 152.725342 C 408.761414 161.268188 409.5578 167.699829 411.150574 172.021851 C 412.743347 176.343872 416.64566 179.651306 422.857513 181.944885 C 429.063782 184.238525 438.827545 185.382935 452.148773 185.37738 C 464.891022 185.37738 474.264587 184.87323 480.269348 183.864197 C 486.27417 182.855164 490.614502 180.620483 493.290344 177.15863 C 495.939941 173.691895 497.264343 168.260498 497.264343 160.864441 Z"/>
            </g>
            <g id="path193">
                <path id="path8" fill="#221d1d" stroke="none" d="M 526.085754 154.493286 L 526.085754 160.864441 C 526.085754 172.284668 523.3302 181.27594 517.898804 187.591309 C 512.467407 193.906677 504.360168 198.087769 493.489441 200.269836 C 483.653992 202.244934 472.536377 203.248352 455.31842 203.248352 C 438.434906 203.248352 424.880341 202.197144 415.028992 200.11853 C 404.30957 197.856812 396.496948 194.312866 391.137268 189.287659 C 385.826111 184.379456 382.217682 177.902405 380.839905 170.803406 C 379.573639 164.432251 378.960449 155.871033 378.960449 144.649902 C 378.960449 132.178406 381.238098 122.024414 385.729767 114.47467 C 390.460327 106.510742 398.774658 100.673218 410.417877 97.081482 C 421.28064 93.728638 435.95816 92.096069 455.28656 92.096069 C 476.590027 92.096069 492.716919 94.166687 504.591125 98.467163 C 518.201477 103.36499 525.392883 113.598633 525.392883 128.02124 L 525.392883 137.530151 L 489.722534 137.530151 L 489.722534 131.159058 C 489.722534 126.962036 488.926086 123.816284 487.46875 122.06427 C 486.011353 120.312195 483.152283 118.878662 479.226074 118.082275 C 474.272522 117.078857 467.105011 116.561218 457.938568 116.561218 C 444.12912 116.561218 434.046814 117.357605 428.057953 118.894592 C 423.343323 120.105164 420.412598 122.008484 419.090576 124.724182 C 417.903961 127.169128 416.478424 132.337708 416.478424 143.041199 L 416.478424 152.717346 C 416.478424 162.361633 417.569489 167.331116 418.485321 169.807922 C 419.401184 172.284668 422.069092 174.355286 426.449249 175.963989 C 431.920441 177.978882 441.031158 179.006226 453.52655 179.006226 C 465.838745 179.006226 472.35321 178.520447 477.999634 177.580688 C 482.355896 176.848022 485.732605 175.406555 487.357239 173.280151 C 488.567749 171.687378 489.674744 168.247009 489.674744 160.848511 L 489.674744 154.477356 L 526.085754 154.493286 Z"/>
            </g>
            <g id="path195">
                <path id="path9" fill="#221d1d" stroke="none" d="M 747.777161 99.606018 L 705.664001 196.208252 L 673.306641 196.208252 L 640.957214 109.720215 L 609.276733 196.208252 L 576.250427 196.208252 L 535.578735 99.606018 L 558.506836 99.606018 L 592.616272 186.086121 L 625.666504 99.606018 L 657.681396 99.606018 L 690.030823 186.086121 L 724.084534 99.606018 L 747.777161 99.606018 Z"/>
            </g>
            <g id="path197">
                <path id="path10" fill="#221d1d" stroke="none" d="M 709.797241 202.579407 L 668.886658 202.579407 L 641.012939 128.077026 L 613.728577 202.579407 L 572.021606 202.579407 L 525.982239 93.234924 L 562.839172 93.234924 L 592.544556 168.485901 L 621.286316 93.234924 L 662.101379 93.234924 L 690.190125 168.310669 L 719.752136 93.234924 L 757.469238 93.234924 L 709.797241 202.579407 Z M 695.406494 189.837158 L 701.48291 189.837158 L 738.045227 105.977173 L 728.424866 105.977173 L 695.406494 189.837158 Z M 677.726563 189.837158 L 684.631287 189.837158 L 653.261475 105.977173 L 646.356689 105.977173 L 677.726563 189.837158 Z M 598.031677 189.837158 L 604.832886 189.837158 L 635.541748 105.977173 L 630.046631 105.977173 L 598.031677 189.837158 Z M 580.511108 189.837158 L 587.296387 189.837158 L 554.198364 105.977173 L 545.199158 105.977173 L 580.511108 189.837158 Z"/>
            </g>
        </g>
    </g>
    <g id="Gruppe">
        <text id="Waiblingen" xml:space="preserve" x="220" y="947" font-family="Open Sans" font-size="76.18737" font-weight="600" fill="#000000">Waiblingen</text>
        <text id="eV" xml:space="preserve" x="650" y="947" font-family="Open Sans" font-size="76.18737" font-weight="300" fill="#000000">e.V.</text>
    </g>
    <g id="Tennis-Club">
        <text id="text1" xml:space="preserve" x="279" y="856" font-family="Open Sans" font-size="76.18737" font-weight="600" fill="#000000">Tennis-Club</text>
    </g>
</svg>
