<?xml version="1.0" encoding="UTF-8" standalone="no"?>
<!DOCTYPE svg PUBLIC "-//W3C//DTD SVG 1.1//EN" "http://www.w3.org/Graphics/SVG/1.1/DTD/svg11.dtd">
<svg width="100%" height="100%" viewBox="0 0 251 108" version="1.1" xmlns="http://www.w3.org/2000/svg" xmlns:xlink="http://www.w3.org/1999/xlink" xml:space="preserve" xmlns:serif="http://www.serif.com/" style="fill-rule:evenodd;clip-rule:evenodd;stroke-linejoin:round;stroke-miterlimit:2;">
    <g id="shield" transform="matrix(0.118264,0,0,0.118264,0,0)">
        <g id="gray-shield-background" serif:id="gray shield background" transform="matrix(1,0,0,1,-131.9,-44)">
            <path d="M867.51,44L867.51,589.19C867.51,792.33 702.84,957 499.71,957C296.58,957 131.9,792.33 131.9,589.19L131.9,44L867.51,44Z" style="fill:url(#_Linear1);fill-rule:nonzero;"/>
        </g>
        <g id="black-background" serif:id="black background" transform="matrix(1,0,0,1,-131.9,-44)">
            <path d="M841,290.57L841,589.1C841,777.6 688.2,930.4 499.71,930.4C311.22,930.4 158.41,777.6 158.41,589.1L158.41,290.57L841,290.57Z" style="fill:url(#_Linear2);fill-rule:nonzero;"/>
        </g>
        <g id="deer-antler-3" serif:id="deer antler 3" transform="matrix(1,0,0,1,-131.9,-44)">
            <path d="M697.06,798C692.81,796.87 688.5,796 684.16,795.24C677.21,794.06 631.71,791.61 618.65,779.1C618.06,778.53 623.65,741.84 652.18,724.72C669.24,714.48 703.18,717.72 708.04,718.2C708.797,718.291 709.563,718.291 710.32,718.2C712.5,717.91 715.02,716.62 706,711.2C693.37,703.57 661,703.14 648.86,707.62C637.206,712.032 626.491,718.608 617.28,727C611.96,732 582.28,761.41 574.56,771C567.38,779.94 532.88,778.54 521.74,775.85C517.95,774.93 515.01,769 515.27,767.01C516.01,761.2 516.27,756.54 519.56,749.01C522.72,741.9 542.32,712.69 555.48,701.11C564.27,693.38 583.65,694.38 587.48,694.17C589.405,694.098 591.249,693.367 592.7,692.1C594.23,690.71 594.77,688.92 589.83,687.68C579.3,685.05 552.58,681.1 539.95,687.16C527.32,693.22 509.03,711.63 492.45,739.27C475.87,766.91 474.03,769.27 470.08,772.43C466.13,775.59 439,790.12 426.62,774.5C423.15,770.12 429.42,740.5 433.87,730.5C436.5,724.63 456.64,694.42 467.25,691.63C479.13,688.51 483.46,686.63 482.38,685.01C478.86,679.66 466.65,682.01 460.32,683.01C448.16,684.93 428.32,692.09 411.5,718.68C402.83,732.38 397.05,761.38 395.85,766.98C394.716,772.557 391.189,777.364 386.21,780.12C385.522,780.505 384.807,780.839 384.07,781.12C375.39,784.28 358.54,783.23 357.22,781.12C355.9,779.01 360.77,753.44 336.3,752.65C318.5,752.08 315.3,772.74 314.9,781.73C314.745,785.045 312.63,787.967 309.53,789.15C302.2,791.94 285.8,798.45 285.66,810.98C285.46,828.98 300.97,832.3 311.43,833.09C314.964,833.349 318.515,833.252 322.03,832.8C326.11,832.28 328.61,840.45 329.64,844.43C330.162,846.632 331.069,848.724 332.32,850.61C336.72,856.83 365.59,857.47 360.93,828.14C359.48,819.02 360.7,815.22 369.93,815.14L672.08,809.59C676.66,809.55 681.24,809.637 685.82,809.85C695.2,810.29 704.56,811.12 713.88,812.22C719.58,812.89 726.18,813.15 728.39,811.22C730.6,809.29 709.86,801.41 697.06,798Z" style="fill:url(#_Linear3);fill-rule:nonzero;"/>
        </g>
        <g id="deer-antler-2" serif:id="deer antler 2" transform="matrix(1,0,0,1,-131.9,-44)">
            <path d="M760.88,649.31L760.64,649.17C749.64,642.65 741.06,637.35 722.47,635.88C690.64,633.36 637.38,623.75 636.47,618.71C636.29,617.71 633.98,594.45 668.14,573.95C688.58,561.69 729.14,565.51 735.04,566.14C735.95,566.25 736.87,566.25 737.78,566.14C740.39,565.79 743.41,564.25 732.61,557.72C717.48,548.58 676.98,546.37 662.48,551.72C652.62,555.36 643.97,558.07 631.48,569.84C625.1,575.84 613.33,588.99 604.08,600.52C595.49,611.23 577.93,623.13 564.59,619.91C560.05,618.81 556.53,611.71 556.84,609.33C557.73,602.33 557.99,596.8 561.98,587.81C565.76,579.3 589.24,544.32 604.98,530.45C615.5,521.19 631.93,522.39 636.52,522.14C638.825,522.054 641.033,521.178 642.77,519.66C644.6,518 645.24,515.85 639.33,514.37C626.72,511.22 601.51,506.49 586.38,513.74C571.25,520.99 549.38,543.05 529.49,576.15C509.6,609.25 507.43,612.08 502.7,615.86C497.97,619.64 457.79,616.18 450.86,615.86C443.93,615.54 445.86,582.77 458.42,559.44C470.98,536.11 491.83,518.44 502.23,512.44C506.13,510.19 509.06,504.56 504.44,503.3C492.29,499.98 471.25,507.72 460.94,514.96C447.94,524.09 440.3,538.57 431.94,550.18C424.79,560.09 418.09,583.4 416.69,588.64C416.575,589.074 416.485,589.515 416.42,589.96C415,599.59 412.95,620.38 388.42,620.38C351.86,620.38 356.27,616.28 356.27,605.88C356.27,595.48 368.27,538.43 390.27,518.58C401.91,508.1 407.27,503.73 400.13,503.05C397.57,502.81 392.56,503.63 390.04,504.15C382.186,505.831 374.971,509.713 369.24,515.34C342.8,541.78 333.88,588.89 330.62,604.12C329.259,610.833 325.004,616.615 319,619.91C318.176,620.358 317.32,620.745 316.44,621.07C306.04,624.85 289.26,623.59 287.68,621.07C286.1,618.55 291.93,593.02 262.62,592.07C241.3,591.38 237.49,611.07 236.99,621.81C236.809,625.782 234.276,629.285 230.56,630.7C221.78,634.04 207.23,641.84 207.06,656.85C206.82,678.36 220.3,682.38 232.83,683.33C237.061,683.64 241.312,683.522 245.52,682.98C250.379,682.311 255.032,685.38 256.33,690.11C256.956,692.746 258.042,695.252 259.54,697.51C264.81,704.96 293.08,706.75 297.32,677.31C298.783,666.424 308.088,658.163 319.07,658L686.89,649.7C696.67,649.48 706.45,649.653 716.23,650.22L723.01,650.62C732.31,651.16 741.49,654.32 750.35,657.2C760.73,660.58 762.4,661.71 772.44,666.01C778.19,668.47 780.62,669.01 782.94,666.14C785.52,662.92 765.31,652 760.88,649.31Z" style="fill:url(#_Linear4);fill-rule:nonzero;"/>
        </g>
        <g id="deer-antler-1" serif:id="deer antler 1" transform="matrix(1,0,0,1,-131.9,-44)">
            <path d="M783.51,460.54L783.26,460.39C771.63,453.5 753.56,444.9 733.9,443.34C700.23,440.67 655.9,444.01 654.9,438.67C653.9,433.33 657.57,402.34 680.9,388.34C704.23,374.34 756.9,375.67 756.9,375.67C756.9,375.67 769.57,376.34 753.57,366.67C737.57,357 694.74,354.67 679.4,360.34C668.97,364.19 659.82,367.06 646.57,379.51C636.34,389.12 620.46,416.2 613.19,428.2C611.25,431.4 609.14,434.08 607.19,434.67C603.51,435.82 579.9,435.67 565.57,435.52C565.534,435.52 565.499,435.521 565.463,435.521C559.862,435.521 555.253,430.912 555.253,425.311C555.253,424.795 555.292,424.28 555.37,423.77C556.485,414.55 558.91,405.536 562.57,397C566.57,388 586.9,354 603.57,339.33C614.7,329.54 626.07,327.81 630.93,327.54C633.368,327.45 635.702,326.524 637.54,324.92C639.48,323.16 640.16,320.92 633.9,319.33C620.57,316 599.9,314 583.9,321.66C567.9,329.32 549.23,349.66 528.23,384.66C507.23,419.66 504.9,422.66 499.9,426.66C494.9,430.66 465.9,432.99 458.57,432.66C451.24,432.33 453.24,397.66 466.57,372.99C479.9,348.32 501.9,329.66 512.9,323.32C517.03,320.95 520.13,314.99 515.23,313.65C502.38,310.14 480.13,318.32 469.23,325.98C455.49,335.64 447.41,350.98 438.54,363.23C430.54,374.23 423.13,401.06 422.23,404.63C420.73,414.5 408.57,430 382,430C343.33,430 348,425.67 348,414.67C348,403.67 360.67,349.34 384,328.34C396.31,317.26 401.94,312.64 394.43,311.92C391.72,311.66 386.43,312.53 383.76,313.09C375.454,314.866 367.822,318.97 361.76,324.92C333.76,352.92 324.37,396.71 320.92,412.81C319.483,419.873 315.016,425.96 308.71,429.45C307.838,429.925 306.932,430.336 306,430.68C295,434.68 277.25,433.35 275.59,430.68C273.93,428.01 278.59,398.01 247.59,397.01C225.04,396.28 221.01,417.07 220.49,428.46C220.294,432.659 217.617,436.36 213.69,437.86C204.4,441.39 189.01,449.64 188.84,465.52C188.59,488.27 202.84,492.52 216.09,493.52C220.564,493.847 225.06,493.723 229.51,493.15C234.649,492.441 239.569,495.687 240.94,500.69C241.599,503.48 242.747,506.131 244.33,508.52C250.42,517.13 287.01,523.08 286.33,482.21C286.328,482.126 286.327,482.043 286.327,481.959C286.327,476.185 291.036,471.415 296.81,471.34L710,467.64C716.36,467.58 722.72,467.42 729.09,467.24C734.87,467.07 754.95,469.38 766.28,472.91C773.28,475.1 802.28,484.03 806.86,478.33C809.57,474.94 788.2,463.38 783.51,460.54Z" style="fill:url(#_Linear5);fill-rule:nonzero;"/>
        </g>
        <g id="tcw">
            <g id="path187" transform="matrix(1,0,0,1,-131.9,-44)">
                <path d="M318.48,123.08L318.48,137.78L233.48,137.78L233.48,211.86C233.48,219.193 235.48,224.177 239.48,226.81C243.48,229.443 251.783,230.777 264.39,230.81C278.143,230.81 286.907,229.143 290.68,225.81C294.453,222.477 296.34,217 296.34,209.38L296.34,201.79L327.16,201.79C327.16,216.517 323.113,227.54 315.02,234.86C306.927,242.18 290.05,245.847 264.39,245.86C248.037,245.86 235.227,244.823 225.96,242.75C216.693,240.677 210.04,237.17 206,232.23C202,227.35 200,220.56 200,211.86L200,137.78L171,137.78L171,123.08L200,123.08L200,93.94L233.46,93.94L233.46,123.07L318.48,123.08Z" style="fill:rgb(34,29,29);fill-rule:nonzero;"/>
            </g>
            <g id="path189" transform="matrix(1,0,0,1,-131.9,-44)">
                <path d="M264.39,253.76C247.29,253.76 234.15,252.68 224.21,250.46C213.21,248 205.01,243.58 199.85,237.32C194.69,231.06 192,222.43 192,211.86L192,145.78L163,145.78L163,115.08L192,115.08L192,85.94L241.46,85.94L241.46,115.07L326.46,115.07L326.46,145.77L241.46,145.77L241.46,211.85C241.46,214.34 241.78,218.72 243.89,220.11C244.57,220.55 248.72,222.76 264.4,222.76C281.79,222.76 285.23,219.87 285.4,219.76C287.86,217.57 288.4,212.86 288.4,209.3L288.4,193.71L335.22,193.71L335.22,201.71C335.22,218.71 330.22,231.85 320.45,240.71C310.68,249.57 292.36,253.76 264.39,253.76ZM208,101.94L208,211.86C208,218.61 209.42,223.75 212.21,227.13C215,230.51 220.28,233.13 227.72,234.84C233.239,235.991 238.833,236.747 244.46,237.1C241.147,236.474 237.976,235.25 235.1,233.49C228.7,229.28 225.46,222.01 225.46,211.86L225.46,101.94L208,101.94ZM304.36,209.71C304.28,219.45 301.48,226.85 296.02,231.71C293.172,234.082 289.809,235.756 286.2,236.6C299.93,234.92 306.52,231.69 309.67,228.84C314.6,224.38 317.58,218.08 318.67,209.71L304.36,209.71Z" style="fill:rgb(34,29,29);fill-rule:nonzero;"/>
            </g>
            <g id="path191" transform="matrix(1,0,0,1,-131.9,-44)">
                <path d="M496.27,200L526,200C526,212.427 523.22,221.873 517.66,228.34C512.1,234.807 503.377,239.237 491.49,241.63C479.61,244.023 463.073,245.22 441.88,245.22C421.14,245.22 404.83,243.967 392.95,241.46C381.07,238.953 372.347,235.087 366.78,229.86C361.318,224.821 357.615,218.159 356.22,210.86C354.74,203.473 354,193.06 354,179.62C354,165.353 356.46,154.09 361.38,145.83C366.3,137.57 375.137,131.473 387.89,127.54C400.643,123.607 418.643,121.64 441.89,121.64C467.47,121.64 487.203,124.137 501.09,129.13C514.977,134.123 521.92,143.983 521.92,158.71L521.92,162.65L493.1,162.65C493.1,155.317 491.53,149.793 488.39,146.08C485.25,142.367 480.293,139.813 473.52,138.42C466.747,137.04 457.307,136.35 445.2,136.35C427.113,136.35 413.943,137.41 405.69,139.53C397.437,141.65 391.95,145.503 389.23,151.09C386.503,156.683 385.14,165.53 385.14,177.63L385.14,189.78C385.14,200.507 386.14,208.583 388.14,214.01C390.14,219.437 395.04,223.59 402.84,226.47C410.633,229.35 422.893,230.787 439.62,230.78C455.62,230.78 467.39,230.147 474.93,228.88C482.47,227.613 487.92,224.807 491.28,220.46C494.607,216.107 496.27,209.287 496.27,200Z" style="fill:rgb(34,29,29);fill-rule:nonzero;"/>
            </g>
            <g id="path193" transform="matrix(1,0,0,1,-131.9,-44)">
                <path d="M532.46,192L532.46,200C532.46,214.34 529,225.63 522.18,233.56C515.36,241.49 505.18,246.74 491.53,249.48C479.18,251.96 465.22,253.22 443.6,253.22C422.4,253.22 405.38,251.9 393.01,249.29C379.55,246.45 369.74,242 363.01,235.69C356.341,229.527 351.81,221.394 350.08,212.48C348.49,204.48 347.72,193.73 347.72,179.64C347.72,163.98 350.58,151.23 356.22,141.75C362.16,131.75 372.6,124.42 387.22,119.91C400.86,115.7 419.29,113.65 443.56,113.65C470.31,113.65 490.56,116.25 505.47,121.65C522.56,127.8 531.59,140.65 531.59,158.76L531.59,170.7L486.8,170.7L486.8,162.7C486.8,157.43 485.8,153.48 483.97,151.28C482.14,149.08 478.55,147.28 473.62,146.28C467.4,145.02 458.4,144.37 446.89,144.37C429.55,144.37 416.89,145.37 409.37,147.3C403.45,148.82 399.77,151.21 398.11,154.62C396.62,157.69 394.83,164.18 394.83,177.62L394.83,189.77C394.83,201.88 396.2,208.12 397.35,211.23C398.5,214.34 401.85,216.94 407.35,218.96C414.22,221.49 425.66,222.78 441.35,222.78C456.81,222.78 464.99,222.17 472.08,220.99C477.55,220.07 481.79,218.26 483.83,215.59C485.35,213.59 486.74,209.27 486.74,199.98L486.74,191.98L532.46,192Z" style="fill:rgb(34,29,29);fill-rule:nonzero;"/>
            </g>
            <g id="path195" transform="matrix(1,0,0,1,-131.9,-44)">
                <path d="M810.83,123.08L757.95,244.38L717.32,244.38L676.7,135.78L636.92,244.38L595.45,244.38L544.38,123.08L573.17,123.08L616,231.67L657.5,123.08L697.7,123.08L738.32,231.67L781.08,123.08L810.83,123.08Z" style="fill:rgb(34,29,29);fill-rule:nonzero;"/>
            </g>
            <g id="path197" transform="matrix(1,0,0,1,-131.9,-44)">
                <path d="M763.14,252.38L711.77,252.38L676.77,158.83L642.51,252.38L590.14,252.38L532.33,115.08L578.61,115.08L615.91,209.57L652,115.08L703.25,115.08L738.52,209.35L775.64,115.08L823,115.08L763.14,252.38ZM745.07,236.38L752.7,236.38L798.61,131.08L786.53,131.08L745.07,236.38ZM722.87,236.38L731.54,236.38L692.15,131.08L683.48,131.08L722.87,236.38ZM622.8,236.38L631.34,236.38L669.9,131.08L663,131.08L622.8,236.38ZM600.8,236.38L609.32,236.38L567.76,131.08L556.46,131.08L600.8,236.38Z" style="fill:rgb(34,29,29);fill-rule:nonzero;"/>
            </g>
        </g>
    </g>
    <g id="Tennis-Club--Waiblingen-eV">
        <g transform="matrix(1,0,0,1,99.6525,18.1021)">
            <g transform="matrix(21,0,0,21,0,0)">
                <path d="M0.341,-0L0.224,-0L0.224,-0.614L0.015,-0.614L0.015,-0.714L0.55,-0.714L0.55,-0.614L0.341,-0.614L0.341,-0Z" style="fill:white;fill-rule:nonzero;"/>
            </g>
            <g transform="matrix(21,0,0,21,11.8638,0)">
                <path d="M0.297,-0.551C0.346,-0.551 0.387,-0.541 0.421,-0.521C0.456,-0.501 0.482,-0.473 0.501,-0.437C0.52,-0.4 0.529,-0.356 0.529,-0.306L0.529,-0.244L0.168,-0.244C0.169,-0.192 0.183,-0.151 0.21,-0.123C0.237,-0.095 0.275,-0.081 0.323,-0.081C0.358,-0.081 0.389,-0.084 0.416,-0.091C0.444,-0.097 0.472,-0.107 0.501,-0.12L0.501,-0.027C0.474,-0.014 0.447,-0.005 0.419,0.001C0.391,0.007 0.357,0.01 0.318,0.01C0.265,0.01 0.219,-0.001 0.178,-0.021C0.138,-0.042 0.107,-0.073 0.084,-0.114C0.062,-0.155 0.05,-0.206 0.05,-0.267C0.05,-0.327 0.061,-0.379 0.081,-0.421C0.102,-0.463 0.13,-0.495 0.167,-0.518C0.205,-0.54 0.248,-0.551 0.297,-0.551ZM0.297,-0.464C0.261,-0.464 0.232,-0.453 0.21,-0.429C0.187,-0.406 0.174,-0.371 0.17,-0.326L0.417,-0.326C0.416,-0.353 0.412,-0.377 0.403,-0.398C0.394,-0.419 0.381,-0.435 0.364,-0.447C0.347,-0.458 0.324,-0.464 0.297,-0.464Z" style="fill:white;fill-rule:nonzero;"/>
            </g>
            <g transform="matrix(21,0,0,21,23.9634,0)">
                <path d="M0.364,-0.551C0.425,-0.551 0.472,-0.535 0.506,-0.504C0.54,-0.472 0.557,-0.422 0.557,-0.353L0.557,-0L0.442,-0L0.442,-0.331C0.442,-0.373 0.434,-0.405 0.417,-0.426C0.399,-0.447 0.373,-0.457 0.336,-0.457C0.284,-0.457 0.248,-0.441 0.227,-0.409C0.207,-0.376 0.197,-0.33 0.197,-0.269L0.197,-0L0.082,-0L0.082,-0.541L0.171,-0.541L0.188,-0.467L0.194,-0.467C0.206,-0.486 0.22,-0.502 0.238,-0.514C0.255,-0.526 0.274,-0.535 0.296,-0.542C0.318,-0.548 0.34,-0.551 0.364,-0.551Z" style="fill:white;fill-rule:nonzero;"/>
            </g>
            <g transform="matrix(21,0,0,21,37.3037,0)">
                <path d="M0.364,-0.551C0.425,-0.551 0.472,-0.535 0.506,-0.504C0.54,-0.472 0.557,-0.422 0.557,-0.353L0.557,-0L0.442,-0L0.442,-0.331C0.442,-0.373 0.434,-0.405 0.417,-0.426C0.399,-0.447 0.373,-0.457 0.336,-0.457C0.284,-0.457 0.248,-0.441 0.227,-0.409C0.207,-0.376 0.197,-0.33 0.197,-0.269L0.197,-0L0.082,-0L0.082,-0.541L0.171,-0.541L0.188,-0.467L0.194,-0.467C0.206,-0.486 0.22,-0.502 0.238,-0.514C0.255,-0.526 0.274,-0.535 0.296,-0.542C0.318,-0.548 0.34,-0.551 0.364,-0.551Z" style="fill:white;fill-rule:nonzero;"/>
            </g>
            <g transform="matrix(21,0,0,21,50.644,0)">
                <path d="M0.197,-0.541L0.197,-0L0.082,-0L0.082,-0.541L0.197,-0.541ZM0.14,-0.748C0.158,-0.748 0.173,-0.743 0.186,-0.733C0.199,-0.724 0.205,-0.708 0.205,-0.685C0.205,-0.662 0.199,-0.646 0.186,-0.636C0.173,-0.626 0.158,-0.622 0.14,-0.622C0.122,-0.622 0.107,-0.626 0.094,-0.636C0.081,-0.646 0.075,-0.662 0.075,-0.685C0.075,-0.708 0.081,-0.724 0.094,-0.733C0.107,-0.743 0.122,-0.748 0.14,-0.748Z" style="fill:white;fill-rule:nonzero;"/>
            </g>
            <g transform="matrix(21,0,0,21,56.499,0)">
                <path d="M0.445,-0.154C0.445,-0.119 0.437,-0.089 0.419,-0.064C0.402,-0.04 0.377,-0.022 0.344,-0.009C0.311,0.003 0.271,0.01 0.223,0.01C0.185,0.01 0.152,0.007 0.125,0.002C0.098,-0.004 0.072,-0.012 0.048,-0.023L0.048,-0.122C0.074,-0.11 0.103,-0.1 0.135,-0.091C0.167,-0.082 0.197,-0.078 0.226,-0.078C0.264,-0.078 0.291,-0.084 0.308,-0.095C0.324,-0.107 0.333,-0.123 0.333,-0.143C0.333,-0.155 0.329,-0.165 0.323,-0.175C0.316,-0.184 0.303,-0.193 0.285,-0.203C0.267,-0.213 0.241,-0.225 0.206,-0.239C0.172,-0.253 0.143,-0.267 0.12,-0.28C0.096,-0.294 0.078,-0.31 0.066,-0.33C0.054,-0.349 0.048,-0.374 0.048,-0.404C0.048,-0.452 0.067,-0.489 0.105,-0.513C0.143,-0.538 0.193,-0.551 0.256,-0.551C0.289,-0.551 0.32,-0.547 0.35,-0.541C0.379,-0.534 0.408,-0.524 0.437,-0.512L0.4,-0.425C0.376,-0.436 0.351,-0.445 0.327,-0.452C0.302,-0.459 0.277,-0.462 0.252,-0.462C0.222,-0.462 0.2,-0.458 0.184,-0.449C0.169,-0.44 0.161,-0.427 0.161,-0.41C0.161,-0.397 0.165,-0.386 0.172,-0.377C0.18,-0.369 0.193,-0.36 0.211,-0.351C0.23,-0.342 0.255,-0.331 0.288,-0.318C0.32,-0.306 0.348,-0.293 0.372,-0.28C0.395,-0.266 0.414,-0.25 0.426,-0.23C0.439,-0.21 0.445,-0.185 0.445,-0.154Z" style="fill:white;fill-rule:nonzero;"/>
            </g>
            <g transform="matrix(21,0,0,21,66.7222,0)">
                <rect x="0.035" y="-0.317" width="0.252" height="0.097" style="fill:white;fill-rule:nonzero;"/>
            </g>
            <g transform="matrix(21,0,0,21,73.4795,0)">
                <path d="M0.398,-0.625C0.364,-0.625 0.333,-0.618 0.306,-0.606C0.28,-0.594 0.257,-0.576 0.238,-0.552C0.22,-0.529 0.206,-0.501 0.196,-0.468C0.186,-0.435 0.181,-0.398 0.181,-0.356C0.181,-0.301 0.189,-0.253 0.205,-0.214C0.22,-0.174 0.244,-0.143 0.276,-0.122C0.308,-0.101 0.348,-0.09 0.397,-0.09C0.427,-0.09 0.457,-0.093 0.485,-0.099C0.514,-0.104 0.544,-0.112 0.574,-0.123L0.574,-0.023C0.545,-0.012 0.516,-0.003 0.486,0.002C0.457,0.007 0.423,0.01 0.384,0.01C0.311,0.01 0.25,-0.005 0.202,-0.036C0.154,-0.066 0.119,-0.109 0.095,-0.164C0.071,-0.219 0.06,-0.283 0.06,-0.357C0.06,-0.411 0.067,-0.46 0.082,-0.505C0.097,-0.55 0.119,-0.589 0.147,-0.622C0.176,-0.655 0.212,-0.68 0.254,-0.698C0.296,-0.715 0.344,-0.724 0.398,-0.724C0.434,-0.724 0.469,-0.72 0.504,-0.712C0.539,-0.704 0.571,-0.693 0.601,-0.678L0.56,-0.582C0.535,-0.593 0.509,-0.603 0.482,-0.612C0.455,-0.62 0.427,-0.625 0.398,-0.625Z" style="fill:white;fill-rule:nonzero;"/>
            </g>
            <g transform="matrix(21,0,0,21,86.7891,0)">
                <rect x="0.082" y="-0.76" width="0.115" height="0.76" style="fill:white;fill-rule:nonzero;"/>
            </g>
            <g transform="matrix(21,0,0,21,92.644,0)">
                <path d="M0.553,-0.541L0.553,-0L0.463,-0L0.447,-0.073L0.441,-0.073C0.43,-0.054 0.415,-0.039 0.397,-0.027C0.38,-0.014 0.36,-0.005 0.339,0.001C0.317,0.007 0.295,0.01 0.271,0.01C0.23,0.01 0.196,0.003 0.167,-0.011C0.138,-0.025 0.116,-0.046 0.101,-0.075C0.085,-0.104 0.078,-0.142 0.078,-0.188L0.078,-0.541L0.193,-0.541L0.193,-0.209C0.193,-0.167 0.201,-0.136 0.219,-0.115C0.236,-0.094 0.262,-0.083 0.298,-0.083C0.333,-0.083 0.361,-0.091 0.381,-0.105C0.402,-0.119 0.416,-0.14 0.425,-0.168C0.434,-0.196 0.438,-0.231 0.438,-0.271L0.438,-0.541L0.553,-0.541Z" style="fill:white;fill-rule:nonzero;"/>
            </g>
            <g transform="matrix(21,0,0,21,105.984,0)">
                <path d="M0.197,-0.76L0.197,-0.577C0.197,-0.556 0.196,-0.535 0.195,-0.514C0.194,-0.494 0.193,-0.478 0.192,-0.467L0.197,-0.467C0.211,-0.49 0.232,-0.51 0.258,-0.526C0.284,-0.542 0.318,-0.55 0.359,-0.55C0.423,-0.55 0.475,-0.527 0.514,-0.48C0.553,-0.433 0.572,-0.363 0.572,-0.271C0.572,-0.21 0.563,-0.158 0.545,-0.117C0.528,-0.075 0.502,-0.044 0.47,-0.022C0.438,-0.001 0.4,0.01 0.356,0.01C0.315,0.01 0.282,0.002 0.257,-0.013C0.231,-0.028 0.212,-0.046 0.197,-0.066L0.189,-0.066L0.168,-0L0.082,-0L0.082,-0.76L0.197,-0.76ZM0.329,-0.457C0.296,-0.457 0.27,-0.451 0.251,-0.438C0.232,-0.424 0.218,-0.405 0.21,-0.379C0.201,-0.353 0.197,-0.32 0.197,-0.281L0.197,-0.271C0.197,-0.21 0.206,-0.164 0.225,-0.132C0.244,-0.1 0.279,-0.084 0.33,-0.084C0.37,-0.084 0.4,-0.101 0.422,-0.133C0.443,-0.165 0.454,-0.212 0.454,-0.272C0.454,-0.334 0.443,-0.38 0.422,-0.411C0.401,-0.442 0.37,-0.457 0.329,-0.457Z" style="fill:white;fill-rule:nonzero;"/>
            </g>
        </g>
        <g transform="matrix(1,0,0,1,99.6525,43.1021)">
            <g transform="matrix(21,0,0,21,0,0)">
                <path d="M0.938,-0.714L0.751,-0L0.624,-0L0.504,-0.428C0.501,-0.438 0.498,-0.451 0.495,-0.465C0.491,-0.479 0.488,-0.494 0.484,-0.509C0.481,-0.524 0.478,-0.538 0.475,-0.55C0.473,-0.563 0.471,-0.572 0.47,-0.579C0.47,-0.572 0.468,-0.563 0.466,-0.55C0.464,-0.538 0.461,-0.524 0.458,-0.51C0.455,-0.495 0.451,-0.48 0.448,-0.466C0.444,-0.451 0.441,-0.438 0.438,-0.427L0.321,-0L0.193,-0L0.007,-0.714L0.125,-0.714L0.228,-0.295C0.231,-0.282 0.235,-0.268 0.238,-0.252C0.241,-0.237 0.245,-0.221 0.248,-0.206C0.251,-0.19 0.254,-0.175 0.256,-0.16C0.259,-0.145 0.261,-0.132 0.263,-0.12C0.264,-0.132 0.266,-0.146 0.269,-0.161C0.272,-0.176 0.274,-0.191 0.278,-0.207C0.281,-0.223 0.284,-0.238 0.287,-0.253C0.291,-0.268 0.294,-0.281 0.298,-0.292L0.414,-0.714L0.528,-0.714L0.647,-0.291C0.651,-0.279 0.654,-0.265 0.657,-0.25C0.661,-0.236 0.664,-0.22 0.667,-0.205C0.671,-0.189 0.674,-0.174 0.676,-0.159C0.679,-0.145 0.681,-0.131 0.683,-0.12C0.685,-0.136 0.688,-0.154 0.691,-0.174C0.695,-0.195 0.699,-0.216 0.704,-0.237C0.708,-0.258 0.713,-0.278 0.717,-0.295L0.82,-0.714L0.938,-0.714Z" style="fill:white;fill-rule:nonzero;"/>
            </g>
            <g transform="matrix(21,0,0,21,19.8516,0)">
                <path d="M0.294,-0.551C0.362,-0.551 0.414,-0.536 0.449,-0.505C0.484,-0.475 0.501,-0.428 0.501,-0.364L0.501,-0L0.42,-0L0.398,-0.077L0.394,-0.077C0.379,-0.057 0.363,-0.041 0.347,-0.028C0.33,-0.016 0.312,-0.006 0.29,0C0.269,0.007 0.243,0.01 0.212,0.01C0.18,0.01 0.151,0.004 0.126,-0.008C0.101,-0.02 0.081,-0.038 0.066,-0.063C0.051,-0.087 0.044,-0.118 0.044,-0.155C0.044,-0.211 0.065,-0.253 0.106,-0.281C0.148,-0.309 0.21,-0.324 0.294,-0.327L0.388,-0.331L0.388,-0.359C0.388,-0.396 0.379,-0.423 0.362,-0.439C0.345,-0.455 0.32,-0.463 0.289,-0.463C0.262,-0.463 0.235,-0.459 0.21,-0.451C0.185,-0.443 0.16,-0.434 0.136,-0.422L0.099,-0.503C0.125,-0.517 0.155,-0.529 0.189,-0.538C0.222,-0.546 0.257,-0.551 0.294,-0.551ZM0.388,-0.258L0.318,-0.256C0.261,-0.254 0.22,-0.244 0.197,-0.227C0.174,-0.209 0.163,-0.185 0.163,-0.154C0.163,-0.128 0.171,-0.108 0.187,-0.096C0.202,-0.084 0.223,-0.078 0.25,-0.078C0.289,-0.078 0.322,-0.089 0.348,-0.112C0.375,-0.134 0.388,-0.167 0.388,-0.211L0.388,-0.258Z" style="fill:white;fill-rule:nonzero;"/>
            </g>
            <g transform="matrix(21,0,0,21,32.0332,0)">
                <path d="M0.197,-0.541L0.197,-0L0.082,-0L0.082,-0.541L0.197,-0.541ZM0.14,-0.748C0.158,-0.748 0.173,-0.743 0.186,-0.733C0.199,-0.724 0.205,-0.708 0.205,-0.685C0.205,-0.662 0.199,-0.646 0.186,-0.636C0.173,-0.626 0.158,-0.622 0.14,-0.622C0.122,-0.622 0.107,-0.626 0.094,-0.636C0.081,-0.646 0.075,-0.662 0.075,-0.685C0.075,-0.708 0.081,-0.724 0.094,-0.733C0.107,-0.743 0.122,-0.748 0.14,-0.748Z" style="fill:white;fill-rule:nonzero;"/>
            </g>
            <g transform="matrix(21,0,0,21,37.8882,0)">
                <path d="M0.197,-0.76L0.197,-0.577C0.197,-0.556 0.196,-0.535 0.195,-0.514C0.194,-0.494 0.193,-0.478 0.192,-0.467L0.197,-0.467C0.211,-0.49 0.232,-0.51 0.258,-0.526C0.284,-0.542 0.318,-0.55 0.359,-0.55C0.423,-0.55 0.475,-0.527 0.514,-0.48C0.553,-0.433 0.572,-0.363 0.572,-0.271C0.572,-0.21 0.563,-0.158 0.545,-0.117C0.528,-0.075 0.502,-0.044 0.47,-0.022C0.438,-0.001 0.4,0.01 0.356,0.01C0.315,0.01 0.282,0.002 0.257,-0.013C0.231,-0.028 0.212,-0.046 0.197,-0.066L0.189,-0.066L0.168,-0L0.082,-0L0.082,-0.76L0.197,-0.76ZM0.329,-0.457C0.296,-0.457 0.27,-0.451 0.251,-0.438C0.232,-0.424 0.218,-0.405 0.21,-0.379C0.201,-0.353 0.197,-0.32 0.197,-0.281L0.197,-0.271C0.197,-0.21 0.206,-0.164 0.225,-0.132C0.244,-0.1 0.279,-0.084 0.33,-0.084C0.37,-0.084 0.4,-0.101 0.422,-0.133C0.443,-0.165 0.454,-0.212 0.454,-0.272C0.454,-0.334 0.443,-0.38 0.422,-0.411C0.401,-0.442 0.37,-0.457 0.329,-0.457Z" style="fill:white;fill-rule:nonzero;"/>
            </g>
            <g transform="matrix(21,0,0,21,50.9619,0)">
                <rect x="0.082" y="-0.76" width="0.115" height="0.76" style="fill:white;fill-rule:nonzero;"/>
            </g>
            <g transform="matrix(21,0,0,21,56.8169,0)">
                <path d="M0.197,-0.541L0.197,-0L0.082,-0L0.082,-0.541L0.197,-0.541ZM0.14,-0.748C0.158,-0.748 0.173,-0.743 0.186,-0.733C0.199,-0.724 0.205,-0.708 0.205,-0.685C0.205,-0.662 0.199,-0.646 0.186,-0.636C0.173,-0.626 0.158,-0.622 0.14,-0.622C0.122,-0.622 0.107,-0.626 0.094,-0.636C0.081,-0.646 0.075,-0.662 0.075,-0.685C0.075,-0.708 0.081,-0.724 0.094,-0.733C0.107,-0.743 0.122,-0.748 0.14,-0.748Z" style="fill:white;fill-rule:nonzero;"/>
            </g>
            <g transform="matrix(21,0,0,21,62.6719,0)">
                <path d="M0.364,-0.551C0.425,-0.551 0.472,-0.535 0.506,-0.504C0.54,-0.472 0.557,-0.422 0.557,-0.353L0.557,-0L0.442,-0L0.442,-0.331C0.442,-0.373 0.434,-0.405 0.417,-0.426C0.399,-0.447 0.373,-0.457 0.336,-0.457C0.284,-0.457 0.248,-0.441 0.227,-0.409C0.207,-0.376 0.197,-0.33 0.197,-0.269L0.197,-0L0.082,-0L0.082,-0.541L0.171,-0.541L0.188,-0.467L0.194,-0.467C0.206,-0.486 0.22,-0.502 0.238,-0.514C0.255,-0.526 0.274,-0.535 0.296,-0.542C0.318,-0.548 0.34,-0.551 0.364,-0.551Z" style="fill:white;fill-rule:nonzero;"/>
            </g>
            <g transform="matrix(21,0,0,21,76.0122,0)">
                <path d="M0.236,0.24C0.163,0.24 0.107,0.227 0.068,0.201C0.029,0.174 0.009,0.137 0.009,0.09C0.009,0.057 0.02,0.029 0.041,0.006C0.061,-0.017 0.091,-0.033 0.13,-0.042C0.115,-0.049 0.103,-0.059 0.092,-0.073C0.081,-0.086 0.076,-0.102 0.076,-0.119C0.076,-0.139 0.082,-0.156 0.093,-0.17C0.105,-0.185 0.122,-0.199 0.145,-0.212C0.116,-0.224 0.094,-0.244 0.076,-0.271C0.059,-0.298 0.051,-0.33 0.051,-0.367C0.051,-0.406 0.059,-0.439 0.076,-0.467C0.092,-0.494 0.117,-0.515 0.148,-0.53C0.18,-0.544 0.219,-0.551 0.264,-0.551C0.274,-0.551 0.285,-0.551 0.296,-0.55C0.308,-0.548 0.318,-0.547 0.328,-0.546C0.338,-0.544 0.346,-0.543 0.351,-0.541L0.538,-0.541L0.538,-0.477L0.446,-0.46C0.455,-0.448 0.462,-0.434 0.467,-0.418C0.472,-0.402 0.475,-0.385 0.475,-0.366C0.475,-0.31 0.456,-0.266 0.417,-0.234C0.379,-0.202 0.326,-0.186 0.258,-0.186C0.242,-0.187 0.226,-0.188 0.21,-0.19C0.199,-0.183 0.19,-0.175 0.184,-0.166C0.177,-0.158 0.174,-0.148 0.174,-0.137C0.174,-0.128 0.177,-0.121 0.184,-0.116C0.19,-0.111 0.199,-0.107 0.211,-0.104C0.223,-0.101 0.238,-0.1 0.256,-0.1L0.349,-0.1C0.408,-0.1 0.454,-0.088 0.485,-0.063C0.516,-0.037 0.532,-0.001 0.532,0.048C0.532,0.109 0.506,0.157 0.456,0.19C0.405,0.224 0.332,0.24 0.236,0.24ZM0.241,0.16C0.281,0.16 0.314,0.156 0.342,0.148C0.369,0.14 0.39,0.129 0.404,0.115C0.418,0.1 0.425,0.083 0.425,0.063C0.425,0.045 0.42,0.032 0.412,0.022C0.403,0.013 0.39,0.007 0.372,0.003C0.354,-0.001 0.333,-0.002 0.307,-0.002L0.222,-0.002C0.201,-0.002 0.182,0.001 0.166,0.008C0.149,0.014 0.137,0.024 0.128,0.037C0.119,0.049 0.114,0.065 0.114,0.083C0.114,0.107 0.125,0.126 0.147,0.14C0.169,0.153 0.2,0.16 0.241,0.16ZM0.263,-0.261C0.297,-0.261 0.322,-0.27 0.338,-0.289C0.354,-0.307 0.362,-0.333 0.362,-0.367C0.362,-0.403 0.354,-0.431 0.337,-0.449C0.32,-0.467 0.296,-0.476 0.263,-0.476C0.23,-0.476 0.206,-0.467 0.189,-0.448C0.172,-0.43 0.164,-0.402 0.164,-0.366C0.164,-0.333 0.172,-0.307 0.189,-0.289C0.206,-0.27 0.231,-0.261 0.263,-0.261Z" style="fill:white;fill-rule:nonzero;"/>
            </g>
            <g transform="matrix(21,0,0,21,87.6504,0)">
                <path d="M0.297,-0.551C0.346,-0.551 0.387,-0.541 0.421,-0.521C0.456,-0.501 0.482,-0.473 0.501,-0.437C0.52,-0.4 0.529,-0.356 0.529,-0.306L0.529,-0.244L0.168,-0.244C0.169,-0.192 0.183,-0.151 0.21,-0.123C0.237,-0.095 0.275,-0.081 0.323,-0.081C0.358,-0.081 0.389,-0.084 0.416,-0.091C0.444,-0.097 0.472,-0.107 0.501,-0.12L0.501,-0.027C0.474,-0.014 0.447,-0.005 0.419,0.001C0.391,0.007 0.357,0.01 0.318,0.01C0.265,0.01 0.219,-0.001 0.178,-0.021C0.138,-0.042 0.107,-0.073 0.084,-0.114C0.062,-0.155 0.05,-0.206 0.05,-0.267C0.05,-0.327 0.061,-0.379 0.081,-0.421C0.102,-0.463 0.13,-0.495 0.167,-0.518C0.205,-0.54 0.248,-0.551 0.297,-0.551ZM0.297,-0.464C0.261,-0.464 0.232,-0.453 0.21,-0.429C0.187,-0.406 0.174,-0.371 0.17,-0.326L0.417,-0.326C0.416,-0.353 0.412,-0.377 0.403,-0.398C0.394,-0.419 0.381,-0.435 0.364,-0.447C0.347,-0.458 0.324,-0.464 0.297,-0.464Z" style="fill:white;fill-rule:nonzero;"/>
            </g>
            <g transform="matrix(21,0,0,21,99.75,0)">
                <path d="M0.364,-0.551C0.425,-0.551 0.472,-0.535 0.506,-0.504C0.54,-0.472 0.557,-0.422 0.557,-0.353L0.557,-0L0.442,-0L0.442,-0.331C0.442,-0.373 0.434,-0.405 0.417,-0.426C0.399,-0.447 0.373,-0.457 0.336,-0.457C0.284,-0.457 0.248,-0.441 0.227,-0.409C0.207,-0.376 0.197,-0.33 0.197,-0.269L0.197,-0L0.082,-0L0.082,-0.541L0.171,-0.541L0.188,-0.467L0.194,-0.467C0.206,-0.486 0.22,-0.502 0.238,-0.514C0.255,-0.526 0.274,-0.535 0.296,-0.542C0.318,-0.548 0.34,-0.551 0.364,-0.551Z" style="fill:white;fill-rule:nonzero;"/>
            </g>
            <g transform="matrix(21,0,0,21,118.545,0)">
                <path d="M0.289,-0.541C0.334,-0.541 0.372,-0.53 0.402,-0.509C0.432,-0.488 0.455,-0.459 0.469,-0.422C0.484,-0.386 0.492,-0.343 0.492,-0.296L0.492,-0.26L0.108,-0.26C0.108,-0.187 0.125,-0.131 0.159,-0.092C0.193,-0.053 0.241,-0.034 0.304,-0.034C0.337,-0.034 0.365,-0.036 0.389,-0.042C0.414,-0.047 0.441,-0.056 0.47,-0.069L0.47,-0.024C0.444,-0.012 0.418,-0.004 0.392,0.002C0.366,0.007 0.336,0.01 0.302,0.01C0.249,0.01 0.204,-0.001 0.167,-0.024C0.131,-0.046 0.104,-0.077 0.085,-0.118C0.067,-0.159 0.058,-0.206 0.058,-0.261C0.058,-0.314 0.066,-0.361 0.084,-0.404C0.102,-0.446 0.128,-0.48 0.162,-0.504C0.197,-0.529 0.239,-0.541 0.289,-0.541ZM0.289,-0.499C0.238,-0.499 0.197,-0.482 0.165,-0.448C0.134,-0.414 0.115,-0.366 0.11,-0.302L0.44,-0.302C0.44,-0.341 0.435,-0.375 0.424,-0.405C0.413,-0.434 0.396,-0.457 0.374,-0.474C0.351,-0.49 0.323,-0.499 0.289,-0.499Z" style="fill:white;fill-rule:nonzero;"/>
            </g>
            <g transform="matrix(21,0,0,21,130.081,0)">
                <path d="M0.08,-0.035C0.08,-0.049 0.083,-0.06 0.09,-0.068C0.096,-0.075 0.106,-0.079 0.119,-0.079C0.133,-0.079 0.143,-0.075 0.149,-0.068C0.156,-0.06 0.159,-0.049 0.159,-0.035C0.159,-0.02 0.156,-0.009 0.149,-0.001C0.143,0.006 0.133,0.01 0.119,0.01C0.106,0.01 0.096,0.006 0.09,-0.001C0.083,-0.009 0.08,-0.02 0.08,-0.035Z" style="fill:white;fill-rule:nonzero;"/>
            </g>
            <g transform="matrix(21,0,0,21,135.085,0)">
                <path d="M0.577,-0.714L0.313,-0L0.264,-0L0,-0.714L0.053,-0.714L0.248,-0.186C0.254,-0.17 0.259,-0.155 0.264,-0.141C0.269,-0.126 0.273,-0.112 0.277,-0.099C0.282,-0.086 0.285,-0.073 0.289,-0.061C0.292,-0.073 0.295,-0.086 0.3,-0.098C0.304,-0.111 0.308,-0.125 0.313,-0.139C0.318,-0.154 0.323,-0.169 0.329,-0.186L0.524,-0.714L0.577,-0.714Z" style="fill:white;fill-rule:nonzero;"/>
            </g>
            <g transform="matrix(21,0,0,21,147.205,0)">
                <path d="M0.08,-0.035C0.08,-0.049 0.083,-0.06 0.09,-0.068C0.096,-0.075 0.106,-0.079 0.119,-0.079C0.133,-0.079 0.143,-0.075 0.149,-0.068C0.156,-0.06 0.159,-0.049 0.159,-0.035C0.159,-0.02 0.156,-0.009 0.149,-0.001C0.143,0.006 0.133,0.01 0.119,0.01C0.106,0.01 0.096,0.006 0.09,-0.001C0.083,-0.009 0.08,-0.02 0.08,-0.035Z" style="fill:white;fill-rule:nonzero;"/>
            </g>
        </g>
        <g transform="matrix(1,0,0,1,99.6525,68.1021)">
            <g transform="matrix(21,0,0,21,0,0)">
                <path d="M0.42,-0.139C0.42,-0.108 0.412,-0.081 0.396,-0.058C0.38,-0.036 0.357,-0.019 0.327,-0.008C0.297,0.004 0.26,0.01 0.215,0.01C0.179,0.01 0.146,0.007 0.117,-0C0.088,-0.007 0.063,-0.014 0.044,-0.024L0.044,-0.073C0.068,-0.061 0.095,-0.051 0.125,-0.043C0.155,-0.036 0.185,-0.032 0.216,-0.032C0.271,-0.032 0.31,-0.042 0.334,-0.06C0.359,-0.079 0.371,-0.104 0.371,-0.136C0.371,-0.157 0.365,-0.175 0.353,-0.189C0.341,-0.203 0.324,-0.215 0.302,-0.225C0.28,-0.235 0.253,-0.245 0.222,-0.255C0.189,-0.266 0.16,-0.277 0.135,-0.288C0.11,-0.299 0.09,-0.314 0.076,-0.332C0.061,-0.35 0.054,-0.375 0.054,-0.406C0.054,-0.448 0.071,-0.482 0.105,-0.505C0.14,-0.529 0.186,-0.541 0.243,-0.541C0.275,-0.541 0.305,-0.538 0.332,-0.532C0.36,-0.526 0.385,-0.518 0.407,-0.509L0.39,-0.467C0.369,-0.476 0.346,-0.484 0.32,-0.49C0.293,-0.496 0.267,-0.499 0.241,-0.499C0.197,-0.499 0.164,-0.491 0.139,-0.476C0.115,-0.46 0.103,-0.438 0.103,-0.408C0.103,-0.385 0.108,-0.368 0.12,-0.355C0.132,-0.342 0.149,-0.331 0.17,-0.323C0.192,-0.314 0.218,-0.304 0.248,-0.294C0.279,-0.283 0.308,-0.272 0.334,-0.26C0.36,-0.249 0.381,-0.233 0.396,-0.215C0.412,-0.196 0.42,-0.171 0.42,-0.139Z" style="fill:white;fill-rule:nonzero;"/>
            </g>
            <g transform="matrix(21,0,0,21,9.78223,0)">
                <path d="M0.289,-0.541C0.334,-0.541 0.372,-0.53 0.402,-0.509C0.432,-0.488 0.455,-0.459 0.469,-0.422C0.484,-0.386 0.492,-0.343 0.492,-0.296L0.492,-0.26L0.108,-0.26C0.108,-0.187 0.125,-0.131 0.159,-0.092C0.193,-0.053 0.241,-0.034 0.304,-0.034C0.337,-0.034 0.365,-0.036 0.389,-0.042C0.414,-0.047 0.441,-0.056 0.47,-0.069L0.47,-0.024C0.444,-0.012 0.418,-0.004 0.392,0.002C0.366,0.007 0.336,0.01 0.302,0.01C0.249,0.01 0.204,-0.001 0.167,-0.024C0.131,-0.046 0.104,-0.077 0.085,-0.118C0.067,-0.159 0.058,-0.206 0.058,-0.261C0.058,-0.314 0.066,-0.361 0.084,-0.404C0.102,-0.446 0.128,-0.48 0.162,-0.504C0.197,-0.529 0.239,-0.541 0.289,-0.541ZM0.289,-0.499C0.238,-0.499 0.197,-0.482 0.165,-0.448C0.134,-0.414 0.115,-0.366 0.11,-0.302L0.44,-0.302C0.44,-0.341 0.435,-0.375 0.424,-0.405C0.413,-0.434 0.396,-0.457 0.374,-0.474C0.351,-0.49 0.323,-0.499 0.289,-0.499Z" style="fill:white;fill-rule:nonzero;"/>
            </g>
            <g transform="matrix(21,0,0,21,21.3179,0)">
                <path d="M0.137,-0.531L0.137,-0L0.088,-0L0.088,-0.531L0.137,-0.531ZM0.113,-0.727C0.126,-0.727 0.135,-0.723 0.141,-0.716C0.146,-0.709 0.149,-0.699 0.149,-0.687C0.149,-0.674 0.146,-0.664 0.141,-0.657C0.135,-0.65 0.126,-0.646 0.113,-0.646C0.102,-0.646 0.093,-0.65 0.087,-0.657C0.081,-0.664 0.078,-0.674 0.078,-0.687C0.078,-0.699 0.081,-0.709 0.087,-0.716C0.093,-0.723 0.102,-0.727 0.113,-0.727Z" style="fill:white;fill-rule:nonzero;"/>
            </g>
            <g transform="matrix(21,0,0,21,26.0654,0)">
                <path d="M0.231,-0.033C0.247,-0.033 0.261,-0.034 0.274,-0.036C0.287,-0.038 0.299,-0.041 0.309,-0.045L0.309,-0.004C0.299,-0 0.286,0.003 0.272,0.006C0.258,0.008 0.243,0.01 0.226,0.01C0.196,0.01 0.171,0.004 0.151,-0.007C0.132,-0.018 0.117,-0.035 0.106,-0.058C0.096,-0.081 0.091,-0.111 0.091,-0.146L0.091,-0.49L0.012,-0.49L0.012,-0.519L0.091,-0.534L0.108,-0.659L0.141,-0.659L0.141,-0.531L0.306,-0.531L0.306,-0.49L0.141,-0.49L0.141,-0.149C0.141,-0.111 0.148,-0.082 0.162,-0.062C0.176,-0.043 0.199,-0.033 0.231,-0.033Z" style="fill:white;fill-rule:nonzero;"/>
            </g>
            <g transform="matrix(21,0,0,21,38.5444,0)">
                <path d="M0.333,-0L0.285,-0L0.285,-0.59C0.285,-0.604 0.285,-0.617 0.285,-0.629C0.285,-0.64 0.286,-0.651 0.287,-0.662C0.278,-0.653 0.269,-0.645 0.261,-0.639C0.253,-0.632 0.243,-0.624 0.23,-0.614L0.125,-0.534L0.097,-0.569L0.292,-0.714L0.333,-0.714L0.333,-0Z" style="fill:white;fill-rule:nonzero;"/>
            </g>
            <g transform="matrix(21,0,0,21,50.5312,0)">
                <path d="M0.508,-0.412C0.508,-0.358 0.504,-0.309 0.495,-0.265C0.487,-0.22 0.475,-0.181 0.458,-0.147C0.442,-0.112 0.422,-0.083 0.397,-0.06C0.372,-0.037 0.343,-0.019 0.31,-0.007C0.277,0.005 0.239,0.011 0.198,0.011C0.181,0.011 0.162,0.01 0.144,0.008C0.125,0.006 0.109,0.003 0.096,-0L0.096,-0.046C0.109,-0.042 0.124,-0.039 0.142,-0.036C0.16,-0.033 0.178,-0.031 0.197,-0.031C0.253,-0.031 0.3,-0.044 0.338,-0.071C0.376,-0.097 0.405,-0.136 0.425,-0.187C0.445,-0.238 0.457,-0.302 0.458,-0.377L0.455,-0.377C0.446,-0.36 0.433,-0.343 0.415,-0.327C0.398,-0.311 0.376,-0.298 0.351,-0.287C0.325,-0.277 0.295,-0.272 0.26,-0.272C0.217,-0.272 0.18,-0.281 0.149,-0.298C0.118,-0.316 0.094,-0.34 0.078,-0.373C0.061,-0.405 0.053,-0.444 0.053,-0.488C0.053,-0.535 0.062,-0.577 0.08,-0.612C0.097,-0.647 0.122,-0.675 0.155,-0.695C0.188,-0.714 0.227,-0.724 0.272,-0.724C0.312,-0.724 0.347,-0.716 0.376,-0.7C0.405,-0.685 0.43,-0.663 0.449,-0.634C0.469,-0.606 0.483,-0.572 0.493,-0.535C0.503,-0.497 0.508,-0.456 0.508,-0.412ZM0.272,-0.681C0.219,-0.681 0.177,-0.664 0.148,-0.631C0.118,-0.597 0.103,-0.55 0.103,-0.489C0.103,-0.435 0.117,-0.392 0.144,-0.361C0.171,-0.329 0.212,-0.313 0.268,-0.313C0.306,-0.313 0.339,-0.321 0.367,-0.337C0.395,-0.352 0.416,-0.371 0.431,-0.394C0.447,-0.417 0.454,-0.439 0.454,-0.461C0.454,-0.482 0.451,-0.504 0.445,-0.529C0.439,-0.554 0.429,-0.578 0.415,-0.601C0.401,-0.624 0.383,-0.643 0.36,-0.658C0.336,-0.673 0.307,-0.681 0.272,-0.681Z" style="fill:white;fill-rule:nonzero;"/>
            </g>
            <g transform="matrix(21,0,0,21,62.5181,0)">
                <path d="M0.502,-0L0.055,-0L0.055,-0.042L0.265,-0.261C0.299,-0.296 0.327,-0.327 0.35,-0.355C0.373,-0.383 0.39,-0.412 0.402,-0.44C0.414,-0.468 0.42,-0.5 0.42,-0.535C0.42,-0.581 0.406,-0.617 0.38,-0.642C0.353,-0.667 0.316,-0.68 0.271,-0.68C0.24,-0.68 0.21,-0.675 0.181,-0.664C0.153,-0.653 0.125,-0.636 0.098,-0.615L0.071,-0.649C0.091,-0.666 0.112,-0.679 0.134,-0.69C0.156,-0.701 0.178,-0.71 0.201,-0.716C0.224,-0.721 0.247,-0.724 0.271,-0.724C0.311,-0.724 0.346,-0.716 0.376,-0.701C0.406,-0.685 0.429,-0.664 0.446,-0.636C0.462,-0.608 0.471,-0.575 0.471,-0.537C0.471,-0.498 0.464,-0.463 0.45,-0.431C0.437,-0.399 0.418,-0.368 0.393,-0.338C0.368,-0.308 0.339,-0.275 0.305,-0.24L0.119,-0.048L0.119,-0.046L0.502,-0.046L0.502,-0Z" style="fill:white;fill-rule:nonzero;"/>
            </g>
            <g transform="matrix(21,0,0,21,74.5049,0)">
                <path d="M0.063,-0.304C0.063,-0.358 0.067,-0.406 0.075,-0.45C0.084,-0.495 0.096,-0.534 0.112,-0.568C0.129,-0.602 0.149,-0.63 0.174,-0.654C0.199,-0.677 0.228,-0.695 0.261,-0.707C0.294,-0.719 0.331,-0.725 0.373,-0.725C0.39,-0.725 0.408,-0.724 0.424,-0.722C0.44,-0.72 0.454,-0.717 0.467,-0.714L0.467,-0.669C0.455,-0.673 0.441,-0.677 0.425,-0.679C0.409,-0.681 0.392,-0.683 0.374,-0.683C0.318,-0.683 0.271,-0.67 0.232,-0.644C0.194,-0.618 0.165,-0.579 0.145,-0.528C0.125,-0.477 0.114,-0.413 0.112,-0.337L0.115,-0.337C0.125,-0.355 0.138,-0.372 0.155,-0.388C0.172,-0.404 0.193,-0.417 0.219,-0.427C0.245,-0.437 0.275,-0.442 0.31,-0.442C0.353,-0.442 0.39,-0.433 0.421,-0.416C0.452,-0.399 0.476,-0.374 0.492,-0.342C0.509,-0.31 0.518,-0.271 0.518,-0.227C0.518,-0.18 0.509,-0.138 0.491,-0.103C0.474,-0.067 0.449,-0.039 0.416,-0.02C0.384,-0 0.344,0.01 0.298,0.01C0.259,0.01 0.225,0.002 0.196,-0.014C0.167,-0.03 0.142,-0.052 0.122,-0.081C0.103,-0.11 0.088,-0.143 0.078,-0.181C0.068,-0.219 0.063,-0.26 0.063,-0.304ZM0.298,-0.033C0.352,-0.033 0.393,-0.05 0.423,-0.084C0.453,-0.117 0.468,-0.165 0.468,-0.227C0.468,-0.28 0.454,-0.323 0.427,-0.354C0.399,-0.385 0.358,-0.4 0.303,-0.4C0.264,-0.4 0.231,-0.393 0.203,-0.377C0.176,-0.362 0.154,-0.343 0.139,-0.321C0.124,-0.298 0.117,-0.276 0.117,-0.254C0.117,-0.233 0.12,-0.211 0.125,-0.186C0.131,-0.16 0.141,-0.136 0.155,-0.113C0.169,-0.09 0.188,-0.071 0.211,-0.056C0.234,-0.041 0.263,-0.033 0.298,-0.033Z" style="fill:white;fill-rule:nonzero;"/>
            </g>
        </g>
    </g>
    <defs>
        <linearGradient id="_Linear1" x1="0" y1="0" x2="1" y2="0" gradientUnits="userSpaceOnUse" gradientTransform="matrix(735.61,0,0,735.61,131.9,500.5)"><stop offset="0" style="stop-color:rgb(168,170,172);stop-opacity:1"/><stop offset="0.19" style="stop-color:rgb(171,173,175);stop-opacity:1"/><stop offset="0.35" style="stop-color:rgb(181,182,184);stop-opacity:1"/><stop offset="0.49" style="stop-color:rgb(198,198,198);stop-opacity:1"/><stop offset="0.5" style="stop-color:rgb(200,200,200);stop-opacity:1"/><stop offset="0.52" style="stop-color:rgb(198,198,198);stop-opacity:1"/><stop offset="0.66" style="stop-color:rgb(181,182,184);stop-opacity:1"/><stop offset="0.81" style="stop-color:rgb(171,173,175);stop-opacity:1"/><stop offset="1" style="stop-color:rgb(168,170,172);stop-opacity:1"/></linearGradient>
        <linearGradient id="_Linear2" x1="0" y1="0" x2="1" y2="0" gradientUnits="userSpaceOnUse" gradientTransform="matrix(682.59,0,0,682.59,158.41,610.48)"><stop offset="0" style="stop-color:rgb(34,29,29);stop-opacity:1"/><stop offset="0.27" style="stop-color:rgb(37,32,32);stop-opacity:1"/><stop offset="0.48" style="stop-color:rgb(47,42,42);stop-opacity:1"/><stop offset="0.5" style="stop-color:rgb(49,44,44);stop-opacity:1"/><stop offset="0.53" style="stop-color:rgb(47,42,42);stop-opacity:1"/><stop offset="0.74" style="stop-color:rgb(37,32,32);stop-opacity:1"/><stop offset="1" style="stop-color:rgb(34,29,29);stop-opacity:1"/></linearGradient>
        <linearGradient id="_Linear3" x1="0" y1="0" x2="1" y2="0" gradientUnits="userSpaceOnUse" gradientTransform="matrix(442.9,0,0,442.9,285.66,767.83)"><stop offset="0" style="stop-color:rgb(214,60,43);stop-opacity:1"/><stop offset="0.24" style="stop-color:rgb(217,63,46);stop-opacity:1"/><stop offset="0.42" style="stop-color:rgb(227,73,56);stop-opacity:1"/><stop offset="0.5" style="stop-color:rgb(234,80,63);stop-opacity:1"/><stop offset="0.58" style="stop-color:rgb(227,73,56);stop-opacity:1"/><stop offset="0.77" style="stop-color:rgb(217,63,46);stop-opacity:1"/><stop offset="1" style="stop-color:rgb(214,60,43);stop-opacity:1"/></linearGradient>
        <linearGradient id="_Linear4" x1="0" y1="0" x2="1" y2="0" gradientUnits="userSpaceOnUse" gradientTransform="matrix(331897,0,0,331897,119496,120764)"><stop offset="0" style="stop-color:rgb(214,60,43);stop-opacity:1"/><stop offset="0.24" style="stop-color:rgb(217,63,46);stop-opacity:1"/><stop offset="0.42" style="stop-color:rgb(227,73,56);stop-opacity:1"/><stop offset="0.5" style="stop-color:rgb(234,80,63);stop-opacity:1"/><stop offset="0.58" style="stop-color:rgb(227,73,56);stop-opacity:1"/><stop offset="0.77" style="stop-color:rgb(217,63,46);stop-opacity:1"/><stop offset="1" style="stop-color:rgb(214,60,43);stop-opacity:1"/></linearGradient>
        <linearGradient id="_Linear5" x1="0" y1="0" x2="1" y2="0" gradientUnits="userSpaceOnUse" gradientTransform="matrix(382239,0,0,382239,116929,84167.9)"><stop offset="0" style="stop-color:rgb(214,60,43);stop-opacity:1"/><stop offset="0.24" style="stop-color:rgb(217,63,46);stop-opacity:1"/><stop offset="0.42" style="stop-color:rgb(227,73,56);stop-opacity:1"/><stop offset="0.5" style="stop-color:rgb(234,80,63);stop-opacity:1"/><stop offset="0.58" style="stop-color:rgb(227,73,56);stop-opacity:1"/><stop offset="0.77" style="stop-color:rgb(217,63,46);stop-opacity:1"/><stop offset="1" style="stop-color:rgb(214,60,43);stop-opacity:1"/></linearGradient>
    </defs>
</svg>
