<svg xmlns="http://www.w3.org/2000/svg" width="113" height="28" fill="white" viewBox="0 0 113 28">
  <path fill="white" d="M109.814 22.9392c-.56 0-.992-.144-1.296-.432-.304-.288-.456-.656-.456-1.104 0-.448.152-.816.456-1.104.304-.288.736-.432 1.296-.432s.992.144 1.296.432c.304.288.456.656.456 1.104 0 .448-.152.816-.456 1.104-.304.288-.736.432-1.296.432ZM102.668 22.748V5.252h3.216v17.496h-3.216ZM91.9084 22.9637c-1.152 0-2.16-.264-3.024-.792-.864-.528-1.536-1.288-2.016-2.28-.48-.992-.72-2.168-.72-3.528 0-1.376.24-2.552.72-3.528.48-.992 1.152-1.752 2.016-2.28.864-.528 1.872-.792 3.024-.792 1.136 0 2.096.224 2.88.672.8.448 1.36 1.04 1.68 1.776h.168l.12-2.232h3.024v12.768h-3.12l-.048-2.304h-.168c-.336.768-.912 1.384-1.728 1.848-.8.448-1.736.672-2.808.672Zm1.056-2.52c1.152 0 2.04-.352 2.664-1.056.64-.704.96-1.544.96-2.52v-1.08c0-.976-.32-1.8-.96-2.472-.64-.688-1.52-1.032-2.64-1.032s-2 .36-2.64 1.08c-.64.704-.96 1.704-.96 3 0 1.264.312 2.264.936 3 .64.72 1.52 1.08 2.64 1.08ZM77.917 22.9637c-1.424 0-2.648-.264-3.672-.792-1.008-.544-1.784-1.304-2.328-2.28-.528-.992-.792-2.144-.792-3.456 0-1.376.272-2.56.816-3.552.56-1.008 1.344-1.776 2.352-2.304 1.008-.544 2.2-.816 3.576-.816 1.536 0 2.808.304 3.816.912 1.024.608 1.768 1.464 2.232 2.568.464 1.088.632 2.352.504 3.792H74.365c.016 1.168.352 2.056 1.008 2.664.672.608 1.552.912 2.64.912.816 0 1.504-.16 2.064-.48.576-.336.952-.768 1.128-1.296h3.12c-.16.848-.536 1.584-1.128 2.208-.576.624-1.32 1.104-2.232 1.44-.896.32-1.912.48-3.048.48Zm-.048-10.92c-1.008 0-1.824.272-2.448.816-.608.544-.96 1.288-1.056 2.232h6.864c-.048-1.008-.376-1.768-.984-2.28-.592-.512-1.384-.768-2.376-.768ZM47.2617 22.7482V9.9802h3.096l.12 2.352h.168c.368-.832.936-1.472 1.704-1.92.784-.448 1.656-.672 2.616-.672 1.04 0 1.944.24 2.712.72.768.48 1.32 1.224 1.656 2.232h.216c.4-.992 1.016-1.728 1.848-2.208.832-.496 1.776-.744 2.832-.744 1.456 0 2.624.448 3.504 1.344.896.88 1.344 2.304 1.344 4.272v7.392h-3.216v-6.84c0-1.168-.216-2.064-.648-2.688-.416-.624-1.128-.936-2.136-.936-1.024 0-1.832.344-2.424 1.032-.592.688-.888 1.552-.888 2.592v6.84h-3.216v-6.792c0-1.2-.216-2.112-.648-2.736-.432-.624-1.144-.936-2.136-.936-1.04 0-1.848.352-2.424 1.056-.576.688-.864 1.544-.864 2.568v6.84h-3.216ZM42.0674 22.7481c-2.08 0-3.12-1.048-3.12-3.144v-7.128h-2.424v-2.496h2.424V6.476l3.168-.48V9.98h2.976v2.496h-2.976v6.408c0 .432.104.736.312.912.208.176.504.264.888.264h1.8v2.688h-3.048ZM26.8928 22.9637c-1.152 0-2.16-.264-3.024-.792-.864-.528-1.536-1.288-2.016-2.28-.48-.992-.72-2.168-.72-3.528 0-1.376.24-2.552.72-3.528.48-.992 1.152-1.752 2.016-2.28.864-.528 1.872-.792 3.024-.792 1.136 0 2.096.224 2.88.672.8.448 1.36 1.04 1.68 1.776h.168l.12-2.232h3.024v12.768h-3.12l-.048-2.304h-.168c-.336.768-.912 1.384-1.728 1.848-.8.448-1.736.672-2.808.672Zm1.056-2.52c1.152 0 2.04-.352 2.664-1.056.64-.704.96-1.544.96-2.52v-1.08c0-.976-.32-1.8-.96-2.472-.64-.688-1.52-1.032-2.64-1.032s-2 .36-2.64 1.08c-.64.704-.96 1.704-.96 3 0 1.264.312 2.264.936 3 .64.72 1.52 1.08 2.64 1.08ZM9.9582 22.9632c-1.888 0-3.52-.36-4.896-1.08-1.376-.736-2.44-1.776-3.192-3.12-.752-1.344-1.128-2.936-1.128-4.776 0-1.84.376-3.424 1.128-4.752.752-1.344 1.816-2.376 3.192-3.096 1.376-.736 3.008-1.104 4.896-1.104s3.52.368 4.896 1.104c1.376.72 2.44 1.752 3.192 3.096.752 1.344 1.128 2.928 1.128 4.752 0 1.856-.376 3.456-1.128 4.8-.752 1.328-1.824 2.36-3.216 3.096-1.376.72-3 1.08-4.872 1.08Zm0-2.784c1.776 0 3.184-.528 4.224-1.584 1.04-1.072 1.56-2.608 1.56-4.608 0-1.984-.528-3.504-1.584-4.56-1.04-1.072-2.44-1.608-4.2-1.608-1.776 0-3.184.536-4.224 1.608-1.04 1.056-1.56 2.576-1.56 4.56 0 2 .52 3.536 1.56 4.608 1.056 1.056 2.464 1.584 4.224 1.584Z"/>
</svg>