<?xml version="1.0" encoding="UTF-8" standalone="no"?>
<!DOCTYPE svg PUBLIC "-//W3C//DTD SVG 1.1//EN" "http://www.w3.org/Graphics/SVG/1.1/DTD/svg11.dtd">
<svg width="100%" height="100%" viewBox="0 0 87 108" version="1.1" xmlns="http://www.w3.org/2000/svg" xmlns:xlink="http://www.w3.org/1999/xlink" xml:space="preserve" xmlns:serif="http://www.serif.com/" style="fill-rule:evenodd;clip-rule:evenodd;stroke-linejoin:round;stroke-miterlimit:2;">
    <g id="shield" transform="matrix(0.118264,0,0,0.118264,-81.6002,0)">
        <g id="gray-shield-background" serif:id="gray shield background" transform="matrix(1,0,0,1,558.083,-44)">
            <path d="M867.51,44L867.51,589.19C867.51,792.33 702.84,957 499.71,957C296.58,957 131.9,792.33 131.9,589.19L131.9,44L867.51,44Z" style="fill:url(#_Linear1);fill-rule:nonzero;"/>
        </g>
        <g id="black-background" serif:id="black background" transform="matrix(1,0,0,1,558.083,-44)">
            <path d="M841,290.57L841,589.1C841,777.6 688.2,930.4 499.71,930.4C311.22,930.4 158.41,777.6 158.41,589.1L158.41,290.57L841,290.57Z" style="fill:url(#_Linear2);fill-rule:nonzero;"/>
        </g>
        <g id="deer-antler-3" serif:id="deer antler 3" transform="matrix(1,0,0,1,558.083,-44)">
            <path d="M697.06,798C692.81,796.87 688.5,796 684.16,795.24C677.21,794.06 631.71,791.61 618.65,779.1C618.06,778.53 623.65,741.84 652.18,724.72C669.24,714.48 703.18,717.72 708.04,718.2C708.797,718.291 709.563,718.291 710.32,718.2C712.5,717.91 715.02,716.62 706,711.2C693.37,703.57 661,703.14 648.86,707.62C637.206,712.032 626.491,718.608 617.28,727C611.96,732 582.28,761.41 574.56,771C567.38,779.94 532.88,778.54 521.74,775.85C517.95,774.93 515.01,769 515.27,767.01C516.01,761.2 516.27,756.54 519.56,749.01C522.72,741.9 542.32,712.69 555.48,701.11C564.27,693.38 583.65,694.38 587.48,694.17C589.405,694.098 591.249,693.367 592.7,692.1C594.23,690.71 594.77,688.92 589.83,687.68C579.3,685.05 552.58,681.1 539.95,687.16C527.32,693.22 509.03,711.63 492.45,739.27C475.87,766.91 474.03,769.27 470.08,772.43C466.13,775.59 439,790.12 426.62,774.5C423.15,770.12 429.42,740.5 433.87,730.5C436.5,724.63 456.64,694.42 467.25,691.63C479.13,688.51 483.46,686.63 482.38,685.01C478.86,679.66 466.65,682.01 460.32,683.01C448.16,684.93 428.32,692.09 411.5,718.68C402.83,732.38 397.05,761.38 395.85,766.98C394.716,772.557 391.189,777.364 386.21,780.12C385.522,780.505 384.807,780.839 384.07,781.12C375.39,784.28 358.54,783.23 357.22,781.12C355.9,779.01 360.77,753.44 336.3,752.65C318.5,752.08 315.3,772.74 314.9,781.73C314.745,785.045 312.63,787.967 309.53,789.15C302.2,791.94 285.8,798.45 285.66,810.98C285.46,828.98 300.97,832.3 311.43,833.09C314.964,833.349 318.515,833.252 322.03,832.8C326.11,832.28 328.61,840.45 329.64,844.43C330.162,846.632 331.069,848.724 332.32,850.61C336.72,856.83 365.59,857.47 360.93,828.14C359.48,819.02 360.7,815.22 369.93,815.14L672.08,809.59C676.66,809.55 681.24,809.637 685.82,809.85C695.2,810.29 704.56,811.12 713.88,812.22C719.58,812.89 726.18,813.15 728.39,811.22C730.6,809.29 709.86,801.41 697.06,798Z" style="fill:url(#_Linear3);fill-rule:nonzero;"/>
        </g>
        <g id="deer-antler-2" serif:id="deer antler 2" transform="matrix(1,0,0,1,558.083,-44)">
            <path d="M760.88,649.31L760.64,649.17C749.64,642.65 741.06,637.35 722.47,635.88C690.64,633.36 637.38,623.75 636.47,618.71C636.29,617.71 633.98,594.45 668.14,573.95C688.58,561.69 729.14,565.51 735.04,566.14C735.95,566.25 736.87,566.25 737.78,566.14C740.39,565.79 743.41,564.25 732.61,557.72C717.48,548.58 676.98,546.37 662.48,551.72C652.62,555.36 643.97,558.07 631.48,569.84C625.1,575.84 613.33,588.99 604.08,600.52C595.49,611.23 577.93,623.13 564.59,619.91C560.05,618.81 556.53,611.71 556.84,609.33C557.73,602.33 557.99,596.8 561.98,587.81C565.76,579.3 589.24,544.32 604.98,530.45C615.5,521.19 631.93,522.39 636.52,522.14C638.825,522.054 641.033,521.178 642.77,519.66C644.6,518 645.24,515.85 639.33,514.37C626.72,511.22 601.51,506.49 586.38,513.74C571.25,520.99 549.38,543.05 529.49,576.15C509.6,609.25 507.43,612.08 502.7,615.86C497.97,619.64 457.79,616.18 450.86,615.86C443.93,615.54 445.86,582.77 458.42,559.44C470.98,536.11 491.83,518.44 502.23,512.44C506.13,510.19 509.06,504.56 504.44,503.3C492.29,499.98 471.25,507.72 460.94,514.96C447.94,524.09 440.3,538.57 431.94,550.18C424.79,560.09 418.09,583.4 416.69,588.64C416.575,589.074 416.485,589.515 416.42,589.96C415,599.59 412.95,620.38 388.42,620.38C351.86,620.38 356.27,616.28 356.27,605.88C356.27,595.48 368.27,538.43 390.27,518.58C401.91,508.1 407.27,503.73 400.13,503.05C397.57,502.81 392.56,503.63 390.04,504.15C382.186,505.831 374.971,509.713 369.24,515.34C342.8,541.78 333.88,588.89 330.62,604.12C329.259,610.833 325.004,616.615 319,619.91C318.176,620.358 317.32,620.745 316.44,621.07C306.04,624.85 289.26,623.59 287.68,621.07C286.1,618.55 291.93,593.02 262.62,592.07C241.3,591.38 237.49,611.07 236.99,621.81C236.809,625.782 234.276,629.285 230.56,630.7C221.78,634.04 207.23,641.84 207.06,656.85C206.82,678.36 220.3,682.38 232.83,683.33C237.061,683.64 241.312,683.522 245.52,682.98C250.379,682.311 255.032,685.38 256.33,690.11C256.956,692.746 258.042,695.252 259.54,697.51C264.81,704.96 293.08,706.75 297.32,677.31C298.783,666.424 308.088,658.163 319.07,658L686.89,649.7C696.67,649.48 706.45,649.653 716.23,650.22L723.01,650.62C732.31,651.16 741.49,654.32 750.35,657.2C760.73,660.58 762.4,661.71 772.44,666.01C778.19,668.47 780.62,669.01 782.94,666.14C785.52,662.92 765.31,652 760.88,649.31Z" style="fill:url(#_Linear4);fill-rule:nonzero;"/>
        </g>
        <g id="deer-antler-1" serif:id="deer antler 1" transform="matrix(1,0,0,1,558.083,-44)">
            <path d="M783.51,460.54L783.26,460.39C771.63,453.5 753.56,444.9 733.9,443.34C700.23,440.67 655.9,444.01 654.9,438.67C653.9,433.33 657.57,402.34 680.9,388.34C704.23,374.34 756.9,375.67 756.9,375.67C756.9,375.67 769.57,376.34 753.57,366.67C737.57,357 694.74,354.67 679.4,360.34C668.97,364.19 659.82,367.06 646.57,379.51C636.34,389.12 620.46,416.2 613.19,428.2C611.25,431.4 609.14,434.08 607.19,434.67C603.51,435.82 579.9,435.67 565.57,435.52C565.534,435.52 565.499,435.521 565.463,435.521C559.862,435.521 555.253,430.912 555.253,425.311C555.253,424.795 555.292,424.28 555.37,423.77C556.485,414.55 558.91,405.536 562.57,397C566.57,388 586.9,354 603.57,339.33C614.7,329.54 626.07,327.81 630.93,327.54C633.368,327.45 635.702,326.524 637.54,324.92C639.48,323.16 640.16,320.92 633.9,319.33C620.57,316 599.9,314 583.9,321.66C567.9,329.32 549.23,349.66 528.23,384.66C507.23,419.66 504.9,422.66 499.9,426.66C494.9,430.66 465.9,432.99 458.57,432.66C451.24,432.33 453.24,397.66 466.57,372.99C479.9,348.32 501.9,329.66 512.9,323.32C517.03,320.95 520.13,314.99 515.23,313.65C502.38,310.14 480.13,318.32 469.23,325.98C455.49,335.64 447.41,350.98 438.54,363.23C430.54,374.23 423.13,401.06 422.23,404.63C420.73,414.5 408.57,430 382,430C343.33,430 348,425.67 348,414.67C348,403.67 360.67,349.34 384,328.34C396.31,317.26 401.94,312.64 394.43,311.92C391.72,311.66 386.43,312.53 383.76,313.09C375.454,314.866 367.822,318.97 361.76,324.92C333.76,352.92 324.37,396.71 320.92,412.81C319.483,419.873 315.016,425.96 308.71,429.45C307.838,429.925 306.932,430.336 306,430.68C295,434.68 277.25,433.35 275.59,430.68C273.93,428.01 278.59,398.01 247.59,397.01C225.04,396.28 221.01,417.07 220.49,428.46C220.294,432.659 217.617,436.36 213.69,437.86C204.4,441.39 189.01,449.64 188.84,465.52C188.59,488.27 202.84,492.52 216.09,493.52C220.564,493.847 225.06,493.723 229.51,493.15C234.649,492.441 239.569,495.687 240.94,500.69C241.599,503.48 242.747,506.131 244.33,508.52C250.42,517.13 287.01,523.08 286.33,482.21C286.328,482.126 286.327,482.043 286.327,481.959C286.327,476.185 291.036,471.415 296.81,471.34L710,467.64C716.36,467.58 722.72,467.42 729.09,467.24C734.87,467.07 754.95,469.38 766.28,472.91C773.28,475.1 802.28,484.03 806.86,478.33C809.57,474.94 788.2,463.38 783.51,460.54Z" style="fill:url(#_Linear5);fill-rule:nonzero;"/>
        </g>
        <g id="tcw" transform="matrix(1,0,0,1,689.983,0)">
            <g id="path187" transform="matrix(1,0,0,1,-131.9,-44)">
                <path d="M318.48,123.08L318.48,137.78L233.48,137.78L233.48,211.86C233.48,219.193 235.48,224.177 239.48,226.81C243.48,229.443 251.783,230.777 264.39,230.81C278.143,230.81 286.907,229.143 290.68,225.81C294.453,222.477 296.34,217 296.34,209.38L296.34,201.79L327.16,201.79C327.16,216.517 323.113,227.54 315.02,234.86C306.927,242.18 290.05,245.847 264.39,245.86C248.037,245.86 235.227,244.823 225.96,242.75C216.693,240.677 210.04,237.17 206,232.23C202,227.35 200,220.56 200,211.86L200,137.78L171,137.78L171,123.08L200,123.08L200,93.94L233.46,93.94L233.46,123.07L318.48,123.08Z" style="fill:rgb(34,29,29);fill-rule:nonzero;"/>
            </g>
            <g id="path189" transform="matrix(1,0,0,1,-131.9,-44)">
                <path d="M264.39,253.76C247.29,253.76 234.15,252.68 224.21,250.46C213.21,248 205.01,243.58 199.85,237.32C194.69,231.06 192,222.43 192,211.86L192,145.78L163,145.78L163,115.08L192,115.08L192,85.94L241.46,85.94L241.46,115.07L326.46,115.07L326.46,145.77L241.46,145.77L241.46,211.85C241.46,214.34 241.78,218.72 243.89,220.11C244.57,220.55 248.72,222.76 264.4,222.76C281.79,222.76 285.23,219.87 285.4,219.76C287.86,217.57 288.4,212.86 288.4,209.3L288.4,193.71L335.22,193.71L335.22,201.71C335.22,218.71 330.22,231.85 320.45,240.71C310.68,249.57 292.36,253.76 264.39,253.76ZM208,101.94L208,211.86C208,218.61 209.42,223.75 212.21,227.13C215,230.51 220.28,233.13 227.72,234.84C233.239,235.991 238.833,236.747 244.46,237.1C241.147,236.474 237.976,235.25 235.1,233.49C228.7,229.28 225.46,222.01 225.46,211.86L225.46,101.94L208,101.94ZM304.36,209.71C304.28,219.45 301.48,226.85 296.02,231.71C293.172,234.082 289.809,235.756 286.2,236.6C299.93,234.92 306.52,231.69 309.67,228.84C314.6,224.38 317.58,218.08 318.67,209.71L304.36,209.71Z" style="fill:rgb(34,29,29);fill-rule:nonzero;"/>
            </g>
            <g id="path191" transform="matrix(1,0,0,1,-131.9,-44)">
                <path d="M496.27,200L526,200C526,212.427 523.22,221.873 517.66,228.34C512.1,234.807 503.377,239.237 491.49,241.63C479.61,244.023 463.073,245.22 441.88,245.22C421.14,245.22 404.83,243.967 392.95,241.46C381.07,238.953 372.347,235.087 366.78,229.86C361.318,224.821 357.615,218.159 356.22,210.86C354.74,203.473 354,193.06 354,179.62C354,165.353 356.46,154.09 361.38,145.83C366.3,137.57 375.137,131.473 387.89,127.54C400.643,123.607 418.643,121.64 441.89,121.64C467.47,121.64 487.203,124.137 501.09,129.13C514.977,134.123 521.92,143.983 521.92,158.71L521.92,162.65L493.1,162.65C493.1,155.317 491.53,149.793 488.39,146.08C485.25,142.367 480.293,139.813 473.52,138.42C466.747,137.04 457.307,136.35 445.2,136.35C427.113,136.35 413.943,137.41 405.69,139.53C397.437,141.65 391.95,145.503 389.23,151.09C386.503,156.683 385.14,165.53 385.14,177.63L385.14,189.78C385.14,200.507 386.14,208.583 388.14,214.01C390.14,219.437 395.04,223.59 402.84,226.47C410.633,229.35 422.893,230.787 439.62,230.78C455.62,230.78 467.39,230.147 474.93,228.88C482.47,227.613 487.92,224.807 491.28,220.46C494.607,216.107 496.27,209.287 496.27,200Z" style="fill:rgb(34,29,29);fill-rule:nonzero;"/>
            </g>
            <g id="path193" transform="matrix(1,0,0,1,-131.9,-44)">
                <path d="M532.46,192L532.46,200C532.46,214.34 529,225.63 522.18,233.56C515.36,241.49 505.18,246.74 491.53,249.48C479.18,251.96 465.22,253.22 443.6,253.22C422.4,253.22 405.38,251.9 393.01,249.29C379.55,246.45 369.74,242 363.01,235.69C356.341,229.527 351.81,221.394 350.08,212.48C348.49,204.48 347.72,193.73 347.72,179.64C347.72,163.98 350.58,151.23 356.22,141.75C362.16,131.75 372.6,124.42 387.22,119.91C400.86,115.7 419.29,113.65 443.56,113.65C470.31,113.65 490.56,116.25 505.47,121.65C522.56,127.8 531.59,140.65 531.59,158.76L531.59,170.7L486.8,170.7L486.8,162.7C486.8,157.43 485.8,153.48 483.97,151.28C482.14,149.08 478.55,147.28 473.62,146.28C467.4,145.02 458.4,144.37 446.89,144.37C429.55,144.37 416.89,145.37 409.37,147.3C403.45,148.82 399.77,151.21 398.11,154.62C396.62,157.69 394.83,164.18 394.83,177.62L394.83,189.77C394.83,201.88 396.2,208.12 397.35,211.23C398.5,214.34 401.85,216.94 407.35,218.96C414.22,221.49 425.66,222.78 441.35,222.78C456.81,222.78 464.99,222.17 472.08,220.99C477.55,220.07 481.79,218.26 483.83,215.59C485.35,213.59 486.74,209.27 486.74,199.98L486.74,191.98L532.46,192Z" style="fill:rgb(34,29,29);fill-rule:nonzero;"/>
            </g>
            <g id="path195" transform="matrix(1,0,0,1,-131.9,-44)">
                <path d="M810.83,123.08L757.95,244.38L717.32,244.38L676.7,135.78L636.92,244.38L595.45,244.38L544.38,123.08L573.17,123.08L616,231.67L657.5,123.08L697.7,123.08L738.32,231.67L781.08,123.08L810.83,123.08Z" style="fill:rgb(34,29,29);fill-rule:nonzero;"/>
            </g>
            <g id="path197" transform="matrix(1,0,0,1,-131.9,-44)">
                <path d="M763.14,252.38L711.77,252.38L676.77,158.83L642.51,252.38L590.14,252.38L532.33,115.08L578.61,115.08L615.91,209.57L652,115.08L703.25,115.08L738.52,209.35L775.64,115.08L823,115.08L763.14,252.38ZM745.07,236.38L752.7,236.38L798.61,131.08L786.53,131.08L745.07,236.38ZM722.87,236.38L731.54,236.38L692.15,131.08L683.48,131.08L722.87,236.38ZM622.8,236.38L631.34,236.38L669.9,131.08L663,131.08L622.8,236.38ZM600.8,236.38L609.32,236.38L567.76,131.08L556.46,131.08L600.8,236.38Z" style="fill:rgb(34,29,29);fill-rule:nonzero;"/>
            </g>
        </g>
    </g>
    <defs>
        <linearGradient id="_Linear1" x1="0" y1="0" x2="1" y2="0" gradientUnits="userSpaceOnUse" gradientTransform="matrix(735.61,0,0,735.61,131.9,500.5)"><stop offset="0" style="stop-color:rgb(168,170,172);stop-opacity:1"/><stop offset="0.19" style="stop-color:rgb(171,173,175);stop-opacity:1"/><stop offset="0.35" style="stop-color:rgb(181,182,184);stop-opacity:1"/><stop offset="0.49" style="stop-color:rgb(198,198,198);stop-opacity:1"/><stop offset="0.5" style="stop-color:rgb(200,200,200);stop-opacity:1"/><stop offset="0.52" style="stop-color:rgb(198,198,198);stop-opacity:1"/><stop offset="0.66" style="stop-color:rgb(181,182,184);stop-opacity:1"/><stop offset="0.81" style="stop-color:rgb(171,173,175);stop-opacity:1"/><stop offset="1" style="stop-color:rgb(168,170,172);stop-opacity:1"/></linearGradient>
        <linearGradient id="_Linear2" x1="0" y1="0" x2="1" y2="0" gradientUnits="userSpaceOnUse" gradientTransform="matrix(682.59,0,0,682.59,158.41,610.48)"><stop offset="0" style="stop-color:rgb(34,29,29);stop-opacity:1"/><stop offset="0.27" style="stop-color:rgb(37,32,32);stop-opacity:1"/><stop offset="0.48" style="stop-color:rgb(47,42,42);stop-opacity:1"/><stop offset="0.5" style="stop-color:rgb(49,44,44);stop-opacity:1"/><stop offset="0.53" style="stop-color:rgb(47,42,42);stop-opacity:1"/><stop offset="0.74" style="stop-color:rgb(37,32,32);stop-opacity:1"/><stop offset="1" style="stop-color:rgb(34,29,29);stop-opacity:1"/></linearGradient>
        <linearGradient id="_Linear3" x1="0" y1="0" x2="1" y2="0" gradientUnits="userSpaceOnUse" gradientTransform="matrix(442.9,0,0,442.9,285.66,767.83)"><stop offset="0" style="stop-color:rgb(214,60,43);stop-opacity:1"/><stop offset="0.24" style="stop-color:rgb(217,63,46);stop-opacity:1"/><stop offset="0.42" style="stop-color:rgb(227,73,56);stop-opacity:1"/><stop offset="0.5" style="stop-color:rgb(234,80,63);stop-opacity:1"/><stop offset="0.58" style="stop-color:rgb(227,73,56);stop-opacity:1"/><stop offset="0.77" style="stop-color:rgb(217,63,46);stop-opacity:1"/><stop offset="1" style="stop-color:rgb(214,60,43);stop-opacity:1"/></linearGradient>
        <linearGradient id="_Linear4" x1="0" y1="0" x2="1" y2="0" gradientUnits="userSpaceOnUse" gradientTransform="matrix(331897,0,0,331897,119496,120764)"><stop offset="0" style="stop-color:rgb(214,60,43);stop-opacity:1"/><stop offset="0.24" style="stop-color:rgb(217,63,46);stop-opacity:1"/><stop offset="0.42" style="stop-color:rgb(227,73,56);stop-opacity:1"/><stop offset="0.5" style="stop-color:rgb(234,80,63);stop-opacity:1"/><stop offset="0.58" style="stop-color:rgb(227,73,56);stop-opacity:1"/><stop offset="0.77" style="stop-color:rgb(217,63,46);stop-opacity:1"/><stop offset="1" style="stop-color:rgb(214,60,43);stop-opacity:1"/></linearGradient>
        <linearGradient id="_Linear5" x1="0" y1="0" x2="1" y2="0" gradientUnits="userSpaceOnUse" gradientTransform="matrix(382239,0,0,382239,116929,84167.9)"><stop offset="0" style="stop-color:rgb(214,60,43);stop-opacity:1"/><stop offset="0.24" style="stop-color:rgb(217,63,46);stop-opacity:1"/><stop offset="0.42" style="stop-color:rgb(227,73,56);stop-opacity:1"/><stop offset="0.5" style="stop-color:rgb(234,80,63);stop-opacity:1"/><stop offset="0.58" style="stop-color:rgb(227,73,56);stop-opacity:1"/><stop offset="0.77" style="stop-color:rgb(217,63,46);stop-opacity:1"/><stop offset="1" style="stop-color:rgb(214,60,43);stop-opacity:1"/></linearGradient>
    </defs>
</svg>
