<?xml version="1.0" standalone="no"?>
<!DOCTYPE svg PUBLIC "-//W3C//DTD SVG 20010904//EN"
 "http://www.w3.org/TR/2001/REC-SVG-20010904/DTD/svg10.dtd">
<svg version="1.0" xmlns="http://www.w3.org/2000/svg"
 width="864.000000pt" height="864.000000pt" viewBox="0 0 864.000000 864.000000"
 preserveAspectRatio="xMidYMid meet">
<metadata>
Created by potrace 1.14, written by Peter Selinger 2001-2017
</metadata>
<g transform="translate(0.000000,864.000000) scale(0.100000,-0.100000)"
fill="#000000" stroke="none">
<path d="M1417 8233 c-4 -3 -7 -66 -7 -140 l0 -133 -135 0 -135 0 0 -140 0
-140 135 0 135 0 0 -317 c0 -175 5 -347 11 -383 24 -154 110 -241 279 -284
154 -39 509 -45 680 -12 252 48 359 173 376 435 l7 101 -215 0 -215 0 -5 -102
c-2 -57 -10 -113 -16 -125 -18 -34 -82 -47 -222 -47 -143 0 -196 13 -211 51
-5 13 -9 172 -9 354 l0 329 403 2 402 3 3 137 3 138 -403 2 -403 3 -3 138 -3
137 -223 0 c-122 0 -226 -3 -229 -7z"/>
<path d="M3575 7968 c-327 -22 -538 -116 -618 -274 -55 -110 -62 -153 -62
-379 0 -284 22 -365 127 -472 123 -125 335 -173 763 -173 428 0 614 45 735
177 68 74 91 141 98 276 l5 107 -211 0 -210 0 -4 -92 c-5 -107 -16 -130 -73
-158 -82 -39 -419 -51 -599 -20 -72 12 -144 46 -168 80 -25 35 -38 134 -38
285 0 238 31 312 141 342 83 22 344 34 492 23 205 -15 247 -45 247 -175 l0
-65 210 0 210 0 0 48 c-2 320 -163 438 -648 471 -171 12 -210 12 -397 -1z"/>
<path d="M4640 7957 c0 -2 121 -291 269 -642 l270 -640 244 -3 243 -2 160 436
c87 240 164 436 169 436 6 0 76 -177 157 -394 81 -216 155 -412 164 -435 l16
-43 237 0 238 0 258 593 c142 325 269 616 282 645 l23 52 -218 0 -219 0 -173
-440 c-95 -242 -176 -440 -180 -440 -4 0 -81 198 -171 440 l-164 439 -241 1
-240 0 -165 -431 c-90 -237 -169 -438 -174 -446 -8 -10 -54 98 -185 431 l-175
445 -212 1 c-117 0 -213 -1 -213 -3z"/>
<path d="M1100 4788 c0 -1589 1 -1606 45 -1863 205 -1188 1079 -2175 2236
-2525 805 -243 1661 -166 2414 218 166 85 398 235 550 357 134 107 381 355
489 490 392 493 624 1060 691 1685 12 112 15 395 15 1643 l0 1507 -3220 0
-3220 0 0 -1512z m2244 1316 c9 -3 16 -11 16 -18 0 -6 -45 -56 -100 -110 -60
-59 -119 -128 -146 -173 -114 -182 -223 -520 -224 -690 0 -65 2 -74 23 -88 51
-33 283 -45 398 -21 83 18 142 47 192 95 50 47 60 67 101 203 53 173 95 263
187 399 152 224 254 310 437 369 108 35 229 42 256 14 9 -8 16 -18 16 -22 -2
-23 -34 -57 -100 -103 -97 -68 -250 -223 -318 -322 -113 -164 -171 -330 -179
-513 -7 -147 -3 -154 85 -154 71 0 219 20 289 39 58 16 91 57 246 310 213 347
332 504 465 612 130 105 210 133 377 133 126 0 262 -26 272 -51 9 -22 -30 -51
-75 -58 -71 -11 -147 -37 -194 -67 -121 -76 -347 -373 -444 -583 -33 -74 -74
-223 -74 -274 0 -17 10 -42 24 -58 l24 -28 209 -3 c153 -2 214 1 233 10 14 8
63 76 120 168 119 193 180 279 242 341 108 108 266 187 418 210 164 24 439 -8
568 -66 62 -28 119 -76 108 -93 -3 -5 -79 -12 -168 -15 -326 -13 -529 -63
-649 -159 -87 -70 -171 -240 -185 -371 -6 -57 -4 -65 12 -72 11 -4 168 -12
349 -16 182 -4 368 -13 414 -19 93 -12 214 -48 308 -90 91 -42 270 -150 317
-192 40 -37 41 -38 21 -54 -30 -24 -133 -12 -306 36 -281 77 -224 74 -1379 61
-564 -6 -1367 -13 -1785 -16 -1006 -7 -1374 -14 -1397 -26 -28 -15 -48 -70
-48 -133 0 -200 -181 -321 -352 -235 -41 21 -60 45 -77 100 -21 65 -37 73
-169 74 -64 1 -135 7 -158 13 -58 17 -117 63 -139 108 -27 55 -32 172 -10 229
21 56 96 124 178 163 34 17 69 38 79 48 9 11 21 54 28 99 19 128 60 194 144
237 33 17 53 20 120 16 159 -9 232 -83 252 -258 6 -58 7 -60 43 -70 80 -22
237 -2 289 37 60 44 81 85 112 213 42 173 84 297 141 419 93 198 222 362 329
416 84 43 191 65 234 49z m1020 -1804 c55 -20 28 -69 -77 -139 -75 -51 -174
-148 -249 -245 -132 -171 -208 -375 -208 -562 0 -68 4 -96 15 -107 11 -11 58
-17 201 -22 199 -8 270 -4 304 17 27 17 94 114 214 313 224 369 452 610 625
662 39 12 88 17 161 16 118 -1 306 -34 329 -58 14 -13 13 -17 -6 -37 -18 -17
-39 -22 -116 -28 -148 -12 -188 -29 -283 -124 -134 -134 -336 -422 -376 -534
-26 -73 -34 -164 -18 -202 28 -69 122 -77 235 -20 85 42 151 100 246 215 141
171 263 285 354 332 142 73 198 86 375 86 119 0 178 -5 254 -21 139 -29 272
-98 252 -130 -4 -6 -90 -10 -214 -9 -290 0 -391 -23 -537 -128 -129 -92 -217
-222 -219 -325 -1 -49 2 -56 24 -66 77 -38 413 -101 709 -134 223 -25 274 -41
447 -143 155 -92 200 -127 191 -150 -12 -31 -34 -29 -124 8 -338 140 -421 151
-1053 135 -228 -5 -683 -17 -1010 -25 -327 -8 -827 -19 -1110 -25 -283 -5
-648 -13 -810 -16 -162 -3 -313 -10 -335 -16 -26 -7 -56 -26 -86 -57 -41 -40
-48 -55 -63 -122 -30 -136 -103 -212 -215 -226 -77 -9 -134 16 -160 71 -12 23
-21 47 -21 53 0 7 -12 21 -26 32 -23 18 -41 21 -129 21 -128 0 -193 18 -243
68 -21 21 -43 56 -50 78 -17 59 -15 142 7 189 25 55 99 121 175 154 68 31 79
47 91 131 24 173 124 265 266 246 139 -19 209 -93 209 -222 0 -61 16 -69 129
-69 109 0 157 13 207 58 47 41 57 63 89 202 35 154 97 347 146 452 75 164 190
313 284 368 47 28 144 55 197 55 67 0 61 -24 -24 -105 -128 -120 -192 -224
-265 -424 -70 -195 -124 -471 -103 -527 12 -32 61 -44 196 -51 151 -7 211 5
267 56 46 42 72 95 87 183 14 83 75 268 113 343 51 103 168 267 247 346 55 56
95 86 150 112 126 62 272 91 334 67z m-218 -1704 c32 -24 6 -47 -87 -77 -80
-26 -88 -31 -159 -106 -99 -104 -189 -240 -218 -328 -13 -38 -33 -127 -44
-198 l-22 -127 20 -28 c11 -15 36 -35 55 -44 70 -36 221 -12 320 51 53 33 68
54 204 276 128 210 188 290 306 406 132 132 193 162 333 167 100 4 274 -16
329 -37 15 -6 27 -17 27 -25 0 -29 -33 -40 -138 -47 -59 -4 -127 -15 -152 -24
-57 -20 -129 -90 -228 -220 -155 -203 -210 -310 -214 -418 -2 -38 2 -52 22
-72 45 -44 276 -58 429 -24 54 11 60 16 295 254 248 249 310 301 440 360 94
43 155 55 287 55 162 0 300 -33 362 -88 41 -36 24 -40 -165 -40 -209 0 -301
-17 -396 -75 -114 -68 -217 -211 -271 -373 -39 -116 -39 -128 2 -152 77 -48
211 -80 458 -111 177 -23 269 -43 401 -91 227 -82 188 -110 -112 -81 -152 14
-573 12 -1435 -9 -214 -5 -694 -14 -1065 -20 -559 -10 -679 -14 -698 -26 -21
-14 -22 -21 -20 -118 1 -90 -2 -107 -22 -143 -31 -56 -89 -87 -162 -88 -70 0
-101 25 -122 99 -27 89 -31 93 -145 98 -84 4 -109 9 -158 34 -35 17 -67 42
-80 62 -28 43 -38 110 -24 155 17 50 89 112 175 151 77 36 96 55 96 103 0 48
29 146 56 186 57 86 190 101 274 30 44 -37 61 -77 69 -157 7 -81 11 -83 116
-85 110 -1 195 33 226 91 7 12 27 83 45 158 57 237 103 343 201 463 93 114
234 204 363 231 88 19 201 20 226 2z"/>
</g>
</svg>
